<?xml version="1.0" encoding="UTF-8"?>
<!-- Generated by SVGo -->
<svg width="344.327mm" height="112.202mm" viewBox="0.000 0.000 344.327 112.202" xmlns="http://www.w3.org/2000/svg" xmlns:xlink="http://www.w3.org/1999/xlink">
<polygon points="337.327,5.001 337.483,5.007 337.639,5.025 337.793,5.056 337.945,5.098 338.092,5.153 338.234,5.218 338.371,5.295 338.502,5.382 338.625,5.480 338.741,5.586 338.847,5.702 338.945,5.825 339.032,5.956 339.109,6.093 339.174,6.235 339.229,6.382 339.271,6.534 339.302,6.688 339.320,6.844 339.327,7.001 339.327,105.202 339.320,105.358 339.302,105.514 339.271,105.668 339.229,105.820 339.174,105.967 339.109,106.109 339.032,106.246 338.945,106.377 338.847,106.500 338.741,106.616 338.625,106.722 338.502,106.820 338.371,106.907 338.234,106.984 338.092,107.049 337.945,107.104 337.793,107.146 337.639,107.177 337.483,107.195 337.327,107.201 7.001,107.202 6.844,107.195 6.688,107.177 6.534,107.146 6.382,107.104 6.235,107.049 6.093,106.984 5.956,106.907 5.825,106.820 5.702,106.722 5.586,106.616 5.480,106.500 5.382,106.377 5.295,106.246 5.218,106.109 5.153,105.967 5.098,105.820 5.056,105.668 5.025,105.514 5.007,105.358 5.000,105.202 5.001,7.001 5.007,6.844 5.025,6.688 5.056,6.534 5.098,6.382 5.153,6.235 5.218,6.093 5.295,5.956 5.382,5.825 5.480,5.702 5.586,5.586 5.702,5.480 5.825,5.382 5.956,5.295 6.093,5.218 6.235,5.153 6.382,5.098 6.534,5.056 6.688,5.025 6.844,5.007 7.001,5.000" style="fill:none;stroke-width:0.050000mm;stroke:black"/>
<polygon points="9.746,101.417 9.516,101.534 9.333,101.717 9.216,101.947 9.176,102.202 9.216,102.456 9.333,102.686 9.516,102.869 9.746,102.986 10.001,103.027 10.255,102.986 10.485,102.869 10.668,102.686 10.785,102.456 10.826,102.202 10.785,101.947 10.668,101.717 10.485,101.534 10.255,101.417 10.001,101.376" style="fill:none;stroke-width:0.050000mm;stroke:black"/>
<polygon points="117.854,101.417 117.624,101.534 117.442,101.717 117.325,101.947 117.284,102.202 117.325,102.456 117.442,102.686 117.624,102.869 117.854,102.986 118.109,103.027 118.364,102.986 118.594,102.869 118.777,102.686 118.894,102.456 118.934,102.202 118.894,101.947 118.777,101.717 118.594,101.534 118.364,101.417 118.109,101.376" style="fill:none;stroke-width:0.050000mm;stroke:black"/>
<polygon points="225.963,101.417 225.733,101.534 225.550,101.717 225.433,101.947 225.393,102.202 225.433,102.456 225.550,102.686 225.733,102.869 225.963,102.986 226.218,103.027 226.473,102.986 226.703,102.869 226.885,102.686 227.002,102.456 227.043,102.202 227.002,101.947 226.885,101.717 226.703,101.534 226.473,101.417 226.218,101.376" style="fill:none;stroke-width:0.050000mm;stroke:black"/>
<polygon points="334.072,101.417 333.842,101.534 333.659,101.717 333.542,101.947 333.502,102.202 333.542,102.456 333.659,102.686 333.842,102.869 334.072,102.986 334.327,103.027 334.581,102.986 334.811,102.869 334.994,102.686 335.111,102.456 335.152,102.202 335.111,101.947 334.994,101.717 334.811,101.534 334.581,101.417 334.327,101.376" style="fill:none;stroke-width:0.050000mm;stroke:black"/>
<polygon points="15.001,15.001 15.001,97.202 329.327,97.202 329.327,15.001" style="fill:none;stroke-width:0.050000mm;stroke:black"/>
<polygon points="9.746,9.216 9.516,9.333 9.333,9.516 9.216,9.746 9.176,10.001 9.216,10.255 9.333,10.485 9.516,10.668 9.746,10.785 10.001,10.826 10.255,10.785 10.485,10.668 10.668,10.485 10.785,10.255 10.826,10.001 10.785,9.746 10.668,9.516 10.485,9.333 10.255,9.216 10.001,9.176" style="fill:none;stroke-width:0.050000mm;stroke:black"/>
<polygon points="334.072,9.216 333.842,9.333 333.659,9.516 333.542,9.746 333.502,10.001 333.542,10.255 333.659,10.485 333.842,10.668 334.072,10.785 334.327,10.826 334.581,10.785 334.811,10.668 334.994,10.485 335.111,10.255 335.152,10.001 335.111,9.746 334.994,9.516 334.811,9.333 334.581,9.216 334.327,9.176" style="fill:none;stroke-width:0.050000mm;stroke:black"/>
<polygon points="225.963,9.216 225.733,9.333 225.550,9.516 225.433,9.746 225.393,10.001 225.433,10.255 225.550,10.485 225.733,10.668 225.963,10.785 226.218,10.826 226.473,10.785 226.703,10.668 226.885,10.485 227.002,10.255 227.043,10.001 227.002,9.746 226.885,9.516 226.703,9.333 226.473,9.216 226.218,9.176" style="fill:none;stroke-width:0.050000mm;stroke:black"/>
<polygon points="117.854,9.216 117.624,9.333 117.442,9.516 117.325,9.746 117.284,10.001 117.325,10.255 117.442,10.485 117.624,10.668 117.854,10.785 118.109,10.826 118.364,10.785 118.594,10.668 118.777,10.485 118.894,10.255 118.934,10.001 118.894,9.746 118.777,9.516 118.594,9.333 118.364,9.216 118.109,9.176" style="fill:none;stroke-width:0.050000mm;stroke:black"/>
</svg>