  0
SECTION
  2
HEADER
  9
$ACADVER
  1
AC1009
  9
$EXTMIN
 10
0.0
 20
0.0
 30
0.0
  9
$EXTMAX
 10
1000.0
 20
1000.0
 30
0.0
  9
$FILLMODE
 70
 0
  9
$SPLFRAME
 70
 1
  0
ENDSEC
  0
SECTION
  2
TABLES
  0
TABLE
  2
LAYER
 70
1
  0
LAYER
  2
0
 70
     0
 62
     7
  6
CONTINUOUS
  0
ENDTAB
  0
ENDSEC
  0
SECTION
  2
ENTITIES
  0
LINE
  8
0
 62
     0
 10
332.421
 20
102.563
 30
0.0
 11
332.577
 21
102.556
 31
0.0
  0
LINE
  8
0
 62
     0
 10
332.577
 20
102.556
 30
0.0
 11
332.733
 21
102.538
 31
0.0
  0
LINE
  8
0
 62
     0
 10
332.733
 20
102.538
 30
0.0
 11
332.887
 21
102.508
 31
0.0
  0
LINE
  8
0
 62
     0
 10
332.887
 20
102.508
 30
0.0
 11
333.04
 21
102.465
 31
0.0
  0
LINE
  8
0
 62
     0
 10
333.04
 20
102.465
 30
0.0
 11
333.186
 21
102.41
 31
0.0
  0
LINE
  8
0
 62
     0
 10
333.186
 20
102.41
 30
0.0
 11
333.328
 21
102.345
 31
0.0
  0
LINE
  8
0
 62
     0
 10
333.328
 20
102.345
 30
0.0
 11
333.466
 21
102.269
 31
0.0
  0
LINE
  8
0
 62
     0
 10
333.466
 20
102.269
 30
0.0
 11
333.597
 21
102.181
 31
0.0
  0
LINE
  8
0
 62
     0
 10
333.597
 20
102.181
 30
0.0
 11
333.72
 21
102.084
 31
0.0
  0
LINE
  8
0
 62
     0
 10
333.72
 20
102.084
 30
0.0
 11
333.835
 21
101.977
 31
0.0
  0
LINE
  8
0
 62
     0
 10
333.835
 20
101.977
 30
0.0
 11
333.941
 21
101.862
 31
0.0
  0
LINE
  8
0
 62
     0
 10
333.941
 20
101.862
 30
0.0
 11
334.039
 21
101.739
 31
0.0
  0
LINE
  8
0
 62
     0
 10
334.039
 20
101.739
 30
0.0
 11
334.126
 21
101.608
 31
0.0
  0
LINE
  8
0
 62
     0
 10
334.126
 20
101.608
 30
0.0
 11
334.203
 21
101.471
 31
0.0
  0
LINE
  8
0
 62
     0
 10
334.203
 20
101.471
 30
0.0
 11
334.268
 21
101.328
 31
0.0
  0
LINE
  8
0
 62
     0
 10
334.268
 20
101.328
 30
0.0
 11
334.323
 21
101.182
 31
0.0
  0
LINE
  8
0
 62
     0
 10
334.323
 20
101.182
 30
0.0
 11
334.366
 21
101.03
 31
0.0
  0
LINE
  8
0
 62
     0
 10
334.366
 20
101.03
 30
0.0
 11
334.396
 21
100.876
 31
0.0
  0
LINE
  8
0
 62
     0
 10
334.396
 20
100.876
 30
0.0
 11
334.414
 21
100.719
 31
0.0
  0
LINE
  8
0
 62
     0
 10
334.414
 20
100.719
 30
0.0
 11
334.421
 21
100.562
 31
0.0
  0
LINE
  8
0
 62
     0
 10
334.421
 20
100.562
 30
0.0
 11
334.421
 21
2.36196
 31
0.0
  0
LINE
  8
0
 62
     0
 10
334.421
 20
2.36196
 30
0.0
 11
334.414
 21
2.20624
 31
0.0
  0
LINE
  8
0
 62
     0
 10
334.414
 20
2.20624
 30
0.0
 11
334.396
 21
2.05052
 31
0.0
  0
LINE
  8
0
 62
     0
 10
334.396
 20
2.05052
 30
0.0
 11
334.366
 21
1.89618
 31
0.0
  0
LINE
  8
0
 62
     0
 10
334.366
 20
1.89618
 30
0.0
 11
334.323
 21
1.74322
 31
0.0
  0
LINE
  8
0
 62
     0
 10
334.323
 20
1.74322
 30
0.0
 11
334.268
 21
1.59714
 31
0.0
  0
LINE
  8
0
 62
     0
 10
334.268
 20
1.59714
 30
0.0
 11
334.203
 21
1.45521
 31
0.0
  0
LINE
  8
0
 62
     0
 10
334.203
 20
1.45521
 30
0.0
 11
334.126
 21
1.31741
 31
0.0
  0
LINE
  8
0
 62
     0
 10
334.126
 20
1.31741
 30
0.0
 11
334.039
 21
1.18649
 31
0.0
  0
LINE
  8
0
 62
     0
 10
334.039
 20
1.18649
 30
0.0
 11
333.941
 21
1.06385
 31
0.0
  0
LINE
  8
0
 62
     0
 10
333.941
 20
1.06385
 30
0.0
 11
333.835
 21
0.94809
 31
0.0
  0
LINE
  8
0
 62
     0
 10
333.835
 20
0.94809
 30
0.0
 11
333.72
 21
0.841982
 31
0.0
  0
LINE
  8
0
 62
     0
 10
333.72
 20
0.841982
 30
0.0
 11
333.597
 21
0.744142
 31
0.0
  0
LINE
  8
0
 62
     0
 10
333.597
 20
0.744142
 30
0.0
 11
333.466
 21
0.657324
 31
0.0
  0
LINE
  8
0
 62
     0
 10
333.466
 20
0.657324
 30
0.0
 11
333.328
 21
0.580154
 31
0.0
  0
LINE
  8
0
 62
     0
 10
333.328
 20
0.580154
 30
0.0
 11
333.186
 21
0.515387
 31
0.0
  0
LINE
  8
0
 62
     0
 10
333.186
 20
0.515387
 30
0.0
 11
333.04
 21
0.460266
 31
0.0
  0
LINE
  8
0
 62
     0
 10
333.04
 20
0.460266
 30
0.0
 11
332.887
 21
0.417544
 31
0.0
  0
LINE
  8
0
 62
     0
 10
332.887
 20
0.417544
 30
0.0
 11
332.733
 21
0.38723
 31
0.0
  0
LINE
  8
0
 62
     0
 10
332.733
 20
0.38723
 30
0.0
 11
332.577
 21
0.369316
 31
0.0
  0
LINE
  8
0
 62
     0
 10
332.577
 20
0.369316
 30
0.0
 11
332.421
 21
0.362423
 31
0.0
  0
LINE
  8
0
 62
     0
 10
332.421
 20
0.362423
 30
0.0
 11
2.096
 21
0.362423
 31
0.0
  0
LINE
  8
0
 62
     0
 10
2.096
 20
0.362423
 30
0.0
 11
1.9389
 21
0.369316
 31
0.0
  0
LINE
  8
0
 62
     0
 10
1.9389
 20
0.369316
 30
0.0
 11
1.7818
 21
0.38723
 31
0.0
  0
LINE
  8
0
 62
     0
 10
1.7818
 20
0.38723
 30
0.0
 11
1.62884
 21
0.417544
 31
0.0
  0
LINE
  8
0
 62
     0
 10
1.62884
 20
0.417544
 30
0.0
 11
1.47588
 21
0.460266
 31
0.0
  0
LINE
  8
0
 62
     0
 10
1.47588
 20
0.460266
 30
0.0
 11
1.32981
 21
0.515387
 31
0.0
  0
LINE
  8
0
 62
     0
 10
1.32981
 20
0.515387
 30
0.0
 11
1.18787
 21
0.580154
 31
0.0
  0
LINE
  8
0
 62
     0
 10
1.18787
 20
0.580154
 30
0.0
 11
1.05006
 21
0.657324
 31
0.0
  0
LINE
  8
0
 62
     0
 10
1.05006
 20
0.657324
 30
0.0
 11
0.919152
 21
0.744142
 31
0.0
  0
LINE
  8
0
 62
     0
 10
0.919152
 20
0.744142
 30
0.0
 11
0.796505
 21
0.841982
 31
0.0
  0
LINE
  8
0
 62
     0
 10
0.796505
 20
0.841982
 30
0.0
 11
0.680752
 21
0.94809
 31
0.0
  0
LINE
  8
0
 62
     0
 10
0.680752
 20
0.94809
 30
0.0
 11
0.574643
 21
1.06385
 31
0.0
  0
LINE
  8
0
 62
     0
 10
0.574643
 20
1.06385
 30
0.0
 11
0.4768
 21
1.18649
 31
0.0
  0
LINE
  8
0
 62
     0
 10
0.4768
 20
1.18649
 30
0.0
 11
0.389985
 21
1.31741
 31
0.0
  0
LINE
  8
0
 62
     0
 10
0.389985
 20
1.31741
 30
0.0
 11
0.312815
 21
1.45521
 31
0.0
  0
LINE
  8
0
 62
     0
 10
0.312815
 20
1.45521
 30
0.0
 11
0.248047
 21
1.59714
 31
0.0
  0
LINE
  8
0
 62
     0
 10
0.248047
 20
1.59714
 30
0.0
 11
0.192925
 21
1.74322
 31
0.0
  0
LINE
  8
0
 62
     0
 10
0.192925
 20
1.74322
 30
0.0
 11
0.150206
 21
1.89618
 31
0.0
  0
LINE
  8
0
 62
     0
 10
0.150206
 20
1.89618
 30
0.0
 11
0.119889
 21
2.05052
 31
0.0
  0
LINE
  8
0
 62
     0
 10
0.119889
 20
2.05052
 30
0.0
 11
0.101975
 21
2.20624
 31
0.0
  0
LINE
  8
0
 62
     0
 10
0.101975
 20
2.20624
 30
0.0
 11
0.0950846
 21
2.36196
 31
0.0
  0
LINE
  8
0
 62
     0
 10
0.0950846
 20
2.36196
 30
0.0
 11
0.0950846
 21
100.562
 31
0.0
  0
LINE
  8
0
 62
     0
 10
0.0950846
 20
100.562
 30
0.0
 11
0.101975
 21
100.719
 31
0.0
  0
LINE
  8
0
 62
     0
 10
0.101975
 20
100.719
 30
0.0
 11
0.119889
 21
100.876
 31
0.0
  0
LINE
  8
0
 62
     0
 10
0.119889
 20
100.876
 30
0.0
 11
0.150206
 21
101.03
 31
0.0
  0
LINE
  8
0
 62
     0
 10
0.150206
 20
101.03
 30
0.0
 11
0.192925
 21
101.182
 31
0.0
  0
LINE
  8
0
 62
     0
 10
0.192925
 20
101.182
 30
0.0
 11
0.248047
 21
101.328
 31
0.0
  0
LINE
  8
0
 62
     0
 10
0.248047
 20
101.328
 30
0.0
 11
0.312815
 21
101.471
 31
0.0
  0
LINE
  8
0
 62
     0
 10
0.312815
 20
101.471
 30
0.0
 11
0.389985
 21
101.608
 31
0.0
  0
LINE
  8
0
 62
     0
 10
0.389985
 20
101.608
 30
0.0
 11
0.4768
 21
101.739
 31
0.0
  0
LINE
  8
0
 62
     0
 10
0.4768
 20
101.739
 30
0.0
 11
0.574643
 21
101.862
 31
0.0
  0
LINE
  8
0
 62
     0
 10
0.574643
 20
101.862
 30
0.0
 11
0.680752
 21
101.977
 31
0.0
  0
LINE
  8
0
 62
     0
 10
0.680752
 20
101.977
 30
0.0
 11
0.796505
 21
102.084
 31
0.0
  0
LINE
  8
0
 62
     0
 10
0.796505
 20
102.084
 30
0.0
 11
0.919152
 21
102.181
 31
0.0
  0
LINE
  8
0
 62
     0
 10
0.919152
 20
102.181
 30
0.0
 11
1.05006
 21
102.269
 31
0.0
  0
LINE
  8
0
 62
     0
 10
1.05006
 20
102.269
 30
0.0
 11
1.18787
 21
102.345
 31
0.0
  0
LINE
  8
0
 62
     0
 10
1.18787
 20
102.345
 30
0.0
 11
1.32981
 21
102.41
 31
0.0
  0
LINE
  8
0
 62
     0
 10
1.32981
 20
102.41
 30
0.0
 11
1.47588
 21
102.465
 31
0.0
  0
LINE
  8
0
 62
     0
 10
1.47588
 20
102.465
 30
0.0
 11
1.62884
 21
102.508
 31
0.0
  0
LINE
  8
0
 62
     0
 10
1.62884
 20
102.508
 30
0.0
 11
1.7818
 21
102.538
 31
0.0
  0
LINE
  8
0
 62
     0
 10
1.7818
 20
102.538
 30
0.0
 11
1.9389
 21
102.556
 31
0.0
  0
LINE
  8
0
 62
     0
 10
1.9389
 20
102.556
 30
0.0
 11
2.096
 21
102.563
 31
0.0
  0
LINE
  8
0
 62
     0
 10
2.096
 20
102.563
 30
0.0
 11
332.421
 21
102.563
 31
0.0
  0
LINE
  8
0
 62
     0
 10
4.84106
 20
6.14744
 30
0.0
 11
4.61091
 21
6.03031
 31
0.0
  0
LINE
  8
0
 62
     0
 10
4.61091
 20
6.03031
 30
0.0
 11
4.42764
 21
5.84701
 31
0.0
  0
LINE
  8
0
 62
     0
 10
4.42764
 20
5.84701
 30
0.0
 11
4.31052
 21
5.61689
 31
0.0
  0
LINE
  8
0
 62
     0
 10
4.31052
 20
5.61689
 30
0.0
 11
4.27055
 21
5.36194
 31
0.0
  0
LINE
  8
0
 62
     0
 10
4.27055
 20
5.36194
 30
0.0
 11
4.31052
 21
5.1084
 31
0.0
  0
LINE
  8
0
 62
     0
 10
4.31052
 20
5.1084
 30
0.0
 11
4.42764
 21
4.87825
 31
0.0
  0
LINE
  8
0
 62
     0
 10
4.42764
 20
4.87825
 30
0.0
 11
4.61091
 21
4.69498
 31
0.0
  0
LINE
  8
0
 62
     0
 10
4.61091
 20
4.69498
 30
0.0
 11
4.84106
 21
4.57786
 31
0.0
  0
LINE
  8
0
 62
     0
 10
4.84106
 20
4.57786
 30
0.0
 11
5.09598
 21
4.53651
 31
0.0
  0
LINE
  8
0
 62
     0
 10
5.09598
 20
4.53651
 30
0.0
 11
5.34956
 21
4.57786
 31
0.0
  0
LINE
  8
0
 62
     0
 10
5.34956
 20
4.57786
 30
0.0
 11
5.57967
 21
4.69498
 31
0.0
  0
LINE
  8
0
 62
     0
 10
5.57967
 20
4.69498
 30
0.0
 11
5.76294
 21
4.87825
 31
0.0
  0
LINE
  8
0
 62
     0
 10
5.76294
 20
4.87825
 30
0.0
 11
5.8801
 21
5.1084
 31
0.0
  0
LINE
  8
0
 62
     0
 10
5.8801
 20
5.1084
 30
0.0
 11
5.92007
 21
5.36194
 31
0.0
  0
LINE
  8
0
 62
     0
 10
5.92007
 20
5.36194
 30
0.0
 11
5.8801
 21
5.61689
 31
0.0
  0
LINE
  8
0
 62
     0
 10
5.8801
 20
5.61689
 30
0.0
 11
5.76294
 21
5.84701
 31
0.0
  0
LINE
  8
0
 62
     0
 10
5.76294
 20
5.84701
 30
0.0
 11
5.57967
 21
6.03031
 31
0.0
  0
LINE
  8
0
 62
     0
 10
5.57967
 20
6.03031
 30
0.0
 11
5.34956
 21
6.14744
 31
0.0
  0
LINE
  8
0
 62
     0
 10
5.34956
 20
6.14744
 30
0.0
 11
5.09598
 21
6.1874
 31
0.0
  0
LINE
  8
0
 62
     0
 10
5.09598
 20
6.1874
 30
0.0
 11
4.84106
 21
6.14744
 31
0.0
  0
LINE
  8
0
 62
     0
 10
112.948
 20
6.14744
 30
0.0
 11
112.718
 21
6.03031
 31
0.0
  0
LINE
  8
0
 62
     0
 10
112.718
 20
6.03031
 30
0.0
 11
112.536
 21
5.84701
 31
0.0
  0
LINE
  8
0
 62
     0
 10
112.536
 20
5.84701
 30
0.0
 11
112.419
 21
5.61689
 31
0.0
  0
LINE
  8
0
 62
     0
 10
112.419
 20
5.61689
 30
0.0
 11
112.379
 21
5.36194
 31
0.0
  0
LINE
  8
0
 62
     0
 10
112.379
 20
5.36194
 30
0.0
 11
112.419
 21
5.1084
 31
0.0
  0
LINE
  8
0
 62
     0
 10
112.419
 20
5.1084
 30
0.0
 11
112.536
 21
4.87825
 31
0.0
  0
LINE
  8
0
 62
     0
 10
112.536
 20
4.87825
 30
0.0
 11
112.718
 21
4.69498
 31
0.0
  0
LINE
  8
0
 62
     0
 10
112.718
 20
4.69498
 30
0.0
 11
112.948
 21
4.57786
 31
0.0
  0
LINE
  8
0
 62
     0
 10
112.948
 20
4.57786
 30
0.0
 11
113.203
 21
4.53651
 31
0.0
  0
LINE
  8
0
 62
     0
 10
113.203
 20
4.53651
 30
0.0
 11
113.458
 21
4.57786
 31
0.0
  0
LINE
  8
0
 62
     0
 10
113.458
 20
4.57786
 30
0.0
 11
113.688
 21
4.69498
 31
0.0
  0
LINE
  8
0
 62
     0
 10
113.688
 20
4.69498
 30
0.0
 11
113.871
 21
4.87825
 31
0.0
  0
LINE
  8
0
 62
     0
 10
113.871
 20
4.87825
 30
0.0
 11
113.988
 21
5.1084
 31
0.0
  0
LINE
  8
0
 62
     0
 10
113.988
 20
5.1084
 30
0.0
 11
114.028
 21
5.36194
 31
0.0
  0
LINE
  8
0
 62
     0
 10
114.028
 20
5.36194
 30
0.0
 11
113.988
 21
5.61689
 31
0.0
  0
LINE
  8
0
 62
     0
 10
113.988
 20
5.61689
 30
0.0
 11
113.871
 21
5.84701
 31
0.0
  0
LINE
  8
0
 62
     0
 10
113.871
 20
5.84701
 30
0.0
 11
113.688
 21
6.03031
 31
0.0
  0
LINE
  8
0
 62
     0
 10
113.688
 20
6.03031
 30
0.0
 11
113.458
 21
6.14744
 31
0.0
  0
LINE
  8
0
 62
     0
 10
113.458
 20
6.14744
 30
0.0
 11
113.203
 21
6.1874
 31
0.0
  0
LINE
  8
0
 62
     0
 10
113.203
 20
6.1874
 30
0.0
 11
112.948
 21
6.14744
 31
0.0
  0
LINE
  8
0
 62
     0
 10
221.058
 20
6.14744
 30
0.0
 11
220.828
 21
6.03031
 31
0.0
  0
LINE
  8
0
 62
     0
 10
220.828
 20
6.03031
 30
0.0
 11
220.645
 21
5.84701
 31
0.0
  0
LINE
  8
0
 62
     0
 10
220.645
 20
5.84701
 30
0.0
 11
220.527
 21
5.61689
 31
0.0
  0
LINE
  8
0
 62
     0
 10
220.527
 20
5.61689
 30
0.0
 11
220.488
 21
5.36194
 31
0.0
  0
LINE
  8
0
 62
     0
 10
220.488
 20
5.36194
 30
0.0
 11
220.527
 21
5.1084
 31
0.0
  0
LINE
  8
0
 62
     0
 10
220.527
 20
5.1084
 30
0.0
 11
220.645
 21
4.87825
 31
0.0
  0
LINE
  8
0
 62
     0
 10
220.645
 20
4.87825
 30
0.0
 11
220.828
 21
4.69498
 31
0.0
  0
LINE
  8
0
 62
     0
 10
220.828
 20
4.69498
 30
0.0
 11
221.058
 21
4.57786
 31
0.0
  0
LINE
  8
0
 62
     0
 10
221.058
 20
4.57786
 30
0.0
 11
221.313
 21
4.53651
 31
0.0
  0
LINE
  8
0
 62
     0
 10
221.313
 20
4.53651
 30
0.0
 11
221.568
 21
4.57786
 31
0.0
  0
LINE
  8
0
 62
     0
 10
221.568
 20
4.57786
 30
0.0
 11
221.798
 21
4.69498
 31
0.0
  0
LINE
  8
0
 62
     0
 10
221.798
 20
4.69498
 30
0.0
 11
221.98
 21
4.87825
 31
0.0
  0
LINE
  8
0
 62
     0
 10
221.98
 20
4.87825
 30
0.0
 11
222.097
 21
5.1084
 31
0.0
  0
LINE
  8
0
 62
     0
 10
222.097
 20
5.1084
 30
0.0
 11
222.137
 21
5.36194
 31
0.0
  0
LINE
  8
0
 62
     0
 10
222.137
 20
5.36194
 30
0.0
 11
222.097
 21
5.61689
 31
0.0
  0
LINE
  8
0
 62
     0
 10
222.097
 20
5.61689
 30
0.0
 11
221.98
 21
5.84701
 31
0.0
  0
LINE
  8
0
 62
     0
 10
221.98
 20
5.84701
 30
0.0
 11
221.798
 21
6.03031
 31
0.0
  0
LINE
  8
0
 62
     0
 10
221.798
 20
6.03031
 30
0.0
 11
221.568
 21
6.14744
 31
0.0
  0
LINE
  8
0
 62
     0
 10
221.568
 20
6.14744
 30
0.0
 11
221.313
 21
6.1874
 31
0.0
  0
LINE
  8
0
 62
     0
 10
221.313
 20
6.1874
 30
0.0
 11
221.058
 21
6.14744
 31
0.0
  0
LINE
  8
0
 62
     0
 10
329.166
 20
6.14744
 30
0.0
 11
328.936
 21
6.03031
 31
0.0
  0
LINE
  8
0
 62
     0
 10
328.936
 20
6.03031
 30
0.0
 11
328.753
 21
5.84701
 31
0.0
  0
LINE
  8
0
 62
     0
 10
328.753
 20
5.84701
 30
0.0
 11
328.636
 21
5.61689
 31
0.0
  0
LINE
  8
0
 62
     0
 10
328.636
 20
5.61689
 30
0.0
 11
328.596
 21
5.36194
 31
0.0
  0
LINE
  8
0
 62
     0
 10
328.596
 20
5.36194
 30
0.0
 11
328.636
 21
5.1084
 31
0.0
  0
LINE
  8
0
 62
     0
 10
328.636
 20
5.1084
 30
0.0
 11
328.753
 21
4.87825
 31
0.0
  0
LINE
  8
0
 62
     0
 10
328.753
 20
4.87825
 30
0.0
 11
328.936
 21
4.69498
 31
0.0
  0
LINE
  8
0
 62
     0
 10
328.936
 20
4.69498
 30
0.0
 11
329.166
 21
4.57786
 31
0.0
  0
LINE
  8
0
 62
     0
 10
329.166
 20
4.57786
 30
0.0
 11
329.421
 21
4.53651
 31
0.0
  0
LINE
  8
0
 62
     0
 10
329.421
 20
4.53651
 30
0.0
 11
329.675
 21
4.57786
 31
0.0
  0
LINE
  8
0
 62
     0
 10
329.675
 20
4.57786
 30
0.0
 11
329.905
 21
4.69498
 31
0.0
  0
LINE
  8
0
 62
     0
 10
329.905
 20
4.69498
 30
0.0
 11
330.089
 21
4.87825
 31
0.0
  0
LINE
  8
0
 62
     0
 10
330.089
 20
4.87825
 30
0.0
 11
330.206
 21
5.1084
 31
0.0
  0
LINE
  8
0
 62
     0
 10
330.206
 20
5.1084
 30
0.0
 11
330.247
 21
5.36194
 31
0.0
  0
LINE
  8
0
 62
     0
 10
330.247
 20
5.36194
 30
0.0
 11
330.206
 21
5.61689
 31
0.0
  0
LINE
  8
0
 62
     0
 10
330.206
 20
5.61689
 30
0.0
 11
330.089
 21
5.84701
 31
0.0
  0
LINE
  8
0
 62
     0
 10
330.089
 20
5.84701
 30
0.0
 11
329.905
 21
6.03031
 31
0.0
  0
LINE
  8
0
 62
     0
 10
329.905
 20
6.03031
 30
0.0
 11
329.675
 21
6.14744
 31
0.0
  0
LINE
  8
0
 62
     0
 10
329.675
 20
6.14744
 30
0.0
 11
329.421
 21
6.1874
 31
0.0
  0
LINE
  8
0
 62
     0
 10
329.421
 20
6.1874
 30
0.0
 11
329.166
 21
6.14744
 31
0.0
  0
LINE
  8
0
 62
     0
 10
307.895
 20
29.8883
 30
0.0
 11
307.895
 21
28.8878
 31
0.0
  0
LINE
  8
0
 62
     0
 10
307.895
 20
28.8878
 30
0.0
 11
307.094
 21
28.8878
 31
0.0
  0
LINE
  8
0
 62
     0
 10
307.094
 20
28.8878
 30
0.0
 11
307.094
 21
25.7886
 31
0.0
  0
LINE
  8
0
 62
     0
 10
307.094
 20
25.7886
 30
0.0
 11
307.895
 21
25.7886
 31
0.0
  0
LINE
  8
0
 62
     0
 10
307.895
 20
25.7886
 30
0.0
 11
307.895
 21
19.9885
 31
0.0
  0
LINE
  8
0
 62
     0
 10
307.895
 20
19.9885
 30
0.0
 11
307.094
 21
19.9885
 31
0.0
  0
LINE
  8
0
 62
     0
 10
307.094
 20
19.9885
 30
0.0
 11
307.094
 21
16.8879
 31
0.0
  0
LINE
  8
0
 62
     0
 10
307.094
 20
16.8879
 30
0.0
 11
307.895
 21
16.8879
 31
0.0
  0
LINE
  8
0
 62
     0
 10
307.895
 20
16.8879
 30
0.0
 11
307.895
 21
15.8874
 31
0.0
  0
LINE
  8
0
 62
     0
 10
307.895
 20
15.8874
 30
0.0
 11
321.895
 21
15.8874
 31
0.0
  0
LINE
  8
0
 62
     0
 10
321.895
 20
15.8874
 30
0.0
 11
321.895
 21
16.8879
 31
0.0
  0
LINE
  8
0
 62
     0
 10
321.895
 20
16.8879
 30
0.0
 11
322.694
 21
16.8879
 31
0.0
  0
LINE
  8
0
 62
     0
 10
322.694
 20
16.8879
 30
0.0
 11
322.694
 21
19.9885
 31
0.0
  0
LINE
  8
0
 62
     0
 10
322.694
 20
19.9885
 30
0.0
 11
321.895
 21
19.9885
 31
0.0
  0
LINE
  8
0
 62
     0
 10
321.895
 20
19.9885
 30
0.0
 11
321.895
 21
25.7886
 31
0.0
  0
LINE
  8
0
 62
     0
 10
321.895
 20
25.7886
 30
0.0
 11
322.694
 21
25.7886
 31
0.0
  0
LINE
  8
0
 62
     0
 10
322.694
 20
25.7886
 30
0.0
 11
322.694
 21
28.8878
 31
0.0
  0
LINE
  8
0
 62
     0
 10
322.694
 20
28.8878
 30
0.0
 11
321.895
 21
28.8878
 31
0.0
  0
LINE
  8
0
 62
     0
 10
321.895
 20
28.8878
 30
0.0
 11
321.895
 21
29.8883
 31
0.0
  0
LINE
  8
0
 62
     0
 10
321.895
 20
29.8883
 30
0.0
 11
307.895
 21
29.8883
 31
0.0
  0
LINE
  8
0
 62
     0
 10
288.845
 20
29.8883
 30
0.0
 11
288.845
 21
28.8878
 31
0.0
  0
LINE
  8
0
 62
     0
 10
288.845
 20
28.8878
 30
0.0
 11
288.044
 21
28.8878
 31
0.0
  0
LINE
  8
0
 62
     0
 10
288.044
 20
28.8878
 30
0.0
 11
288.044
 21
25.7886
 31
0.0
  0
LINE
  8
0
 62
     0
 10
288.044
 20
25.7886
 30
0.0
 11
288.845
 21
25.7886
 31
0.0
  0
LINE
  8
0
 62
     0
 10
288.845
 20
25.7886
 30
0.0
 11
288.845
 21
19.9885
 31
0.0
  0
LINE
  8
0
 62
     0
 10
288.845
 20
19.9885
 30
0.0
 11
288.044
 21
19.9885
 31
0.0
  0
LINE
  8
0
 62
     0
 10
288.044
 20
19.9885
 30
0.0
 11
288.044
 21
16.8879
 31
0.0
  0
LINE
  8
0
 62
     0
 10
288.044
 20
16.8879
 30
0.0
 11
288.845
 21
16.8879
 31
0.0
  0
LINE
  8
0
 62
     0
 10
288.845
 20
16.8879
 30
0.0
 11
288.845
 21
15.8874
 31
0.0
  0
LINE
  8
0
 62
     0
 10
288.845
 20
15.8874
 30
0.0
 11
302.845
 21
15.8874
 31
0.0
  0
LINE
  8
0
 62
     0
 10
302.845
 20
15.8874
 30
0.0
 11
302.845
 21
16.8879
 31
0.0
  0
LINE
  8
0
 62
     0
 10
302.845
 20
16.8879
 30
0.0
 11
303.644
 21
16.8879
 31
0.0
  0
LINE
  8
0
 62
     0
 10
303.644
 20
16.8879
 30
0.0
 11
303.644
 21
19.9885
 31
0.0
  0
LINE
  8
0
 62
     0
 10
303.644
 20
19.9885
 30
0.0
 11
302.845
 21
19.9885
 31
0.0
  0
LINE
  8
0
 62
     0
 10
302.845
 20
19.9885
 30
0.0
 11
302.845
 21
25.7886
 31
0.0
  0
LINE
  8
0
 62
     0
 10
302.845
 20
25.7886
 30
0.0
 11
303.644
 21
25.7886
 31
0.0
  0
LINE
  8
0
 62
     0
 10
303.644
 20
25.7886
 30
0.0
 11
303.644
 21
28.8878
 31
0.0
  0
LINE
  8
0
 62
     0
 10
303.644
 20
28.8878
 30
0.0
 11
302.845
 21
28.8878
 31
0.0
  0
LINE
  8
0
 62
     0
 10
302.845
 20
28.8878
 30
0.0
 11
302.845
 21
29.8883
 31
0.0
  0
LINE
  8
0
 62
     0
 10
302.845
 20
29.8883
 30
0.0
 11
288.845
 21
29.8883
 31
0.0
  0
LINE
  8
0
 62
     0
 10
269.795
 20
29.8883
 30
0.0
 11
269.795
 21
28.8878
 31
0.0
  0
LINE
  8
0
 62
     0
 10
269.795
 20
28.8878
 30
0.0
 11
268.994
 21
28.8878
 31
0.0
  0
LINE
  8
0
 62
     0
 10
268.994
 20
28.8878
 30
0.0
 11
268.994
 21
25.7886
 31
0.0
  0
LINE
  8
0
 62
     0
 10
268.994
 20
25.7886
 30
0.0
 11
269.795
 21
25.7886
 31
0.0
  0
LINE
  8
0
 62
     0
 10
269.795
 20
25.7886
 30
0.0
 11
269.795
 21
19.9885
 31
0.0
  0
LINE
  8
0
 62
     0
 10
269.795
 20
19.9885
 30
0.0
 11
268.994
 21
19.9885
 31
0.0
  0
LINE
  8
0
 62
     0
 10
268.994
 20
19.9885
 30
0.0
 11
268.994
 21
16.8879
 31
0.0
  0
LINE
  8
0
 62
     0
 10
268.994
 20
16.8879
 30
0.0
 11
269.795
 21
16.8879
 31
0.0
  0
LINE
  8
0
 62
     0
 10
269.795
 20
16.8879
 30
0.0
 11
269.795
 21
15.8874
 31
0.0
  0
LINE
  8
0
 62
     0
 10
269.795
 20
15.8874
 30
0.0
 11
283.795
 21
15.8874
 31
0.0
  0
LINE
  8
0
 62
     0
 10
283.795
 20
15.8874
 30
0.0
 11
283.795
 21
16.8879
 31
0.0
  0
LINE
  8
0
 62
     0
 10
283.795
 20
16.8879
 30
0.0
 11
284.594
 21
16.8879
 31
0.0
  0
LINE
  8
0
 62
     0
 10
284.594
 20
16.8879
 30
0.0
 11
284.594
 21
19.9885
 31
0.0
  0
LINE
  8
0
 62
     0
 10
284.594
 20
19.9885
 30
0.0
 11
283.795
 21
19.9885
 31
0.0
  0
LINE
  8
0
 62
     0
 10
283.795
 20
19.9885
 30
0.0
 11
283.795
 21
25.7886
 31
0.0
  0
LINE
  8
0
 62
     0
 10
283.795
 20
25.7886
 30
0.0
 11
284.594
 21
25.7886
 31
0.0
  0
LINE
  8
0
 62
     0
 10
284.594
 20
25.7886
 30
0.0
 11
284.594
 21
28.8878
 31
0.0
  0
LINE
  8
0
 62
     0
 10
284.594
 20
28.8878
 30
0.0
 11
283.795
 21
28.8878
 31
0.0
  0
LINE
  8
0
 62
     0
 10
283.795
 20
28.8878
 30
0.0
 11
283.795
 21
29.8883
 31
0.0
  0
LINE
  8
0
 62
     0
 10
283.795
 20
29.8883
 30
0.0
 11
269.795
 21
29.8883
 31
0.0
  0
LINE
  8
0
 62
     0
 10
248.364
 20
29.8883
 30
0.0
 11
248.364
 21
28.8878
 31
0.0
  0
LINE
  8
0
 62
     0
 10
248.364
 20
28.8878
 30
0.0
 11
247.563
 21
28.8878
 31
0.0
  0
LINE
  8
0
 62
     0
 10
247.563
 20
28.8878
 30
0.0
 11
247.563
 21
25.7886
 31
0.0
  0
LINE
  8
0
 62
     0
 10
247.563
 20
25.7886
 30
0.0
 11
248.364
 21
25.7886
 31
0.0
  0
LINE
  8
0
 62
     0
 10
248.364
 20
25.7886
 30
0.0
 11
248.364
 21
19.9885
 31
0.0
  0
LINE
  8
0
 62
     0
 10
248.364
 20
19.9885
 30
0.0
 11
247.563
 21
19.9885
 31
0.0
  0
LINE
  8
0
 62
     0
 10
247.563
 20
19.9885
 30
0.0
 11
247.563
 21
16.8879
 31
0.0
  0
LINE
  8
0
 62
     0
 10
247.563
 20
16.8879
 30
0.0
 11
248.364
 21
16.8879
 31
0.0
  0
LINE
  8
0
 62
     0
 10
248.364
 20
16.8879
 30
0.0
 11
248.364
 21
15.8874
 31
0.0
  0
LINE
  8
0
 62
     0
 10
248.364
 20
15.8874
 30
0.0
 11
262.363
 21
15.8874
 31
0.0
  0
LINE
  8
0
 62
     0
 10
262.363
 20
15.8874
 30
0.0
 11
262.363
 21
16.8879
 31
0.0
  0
LINE
  8
0
 62
     0
 10
262.363
 20
16.8879
 30
0.0
 11
263.164
 21
16.8879
 31
0.0
  0
LINE
  8
0
 62
     0
 10
263.164
 20
16.8879
 30
0.0
 11
263.164
 21
19.9885
 31
0.0
  0
LINE
  8
0
 62
     0
 10
263.164
 20
19.9885
 30
0.0
 11
262.363
 21
19.9885
 31
0.0
  0
LINE
  8
0
 62
     0
 10
262.363
 20
19.9885
 30
0.0
 11
262.363
 21
25.7886
 31
0.0
  0
LINE
  8
0
 62
     0
 10
262.363
 20
25.7886
 30
0.0
 11
263.164
 21
25.7886
 31
0.0
  0
LINE
  8
0
 62
     0
 10
263.164
 20
25.7886
 30
0.0
 11
263.164
 21
28.8878
 31
0.0
  0
LINE
  8
0
 62
     0
 10
263.164
 20
28.8878
 30
0.0
 11
262.363
 21
28.8878
 31
0.0
  0
LINE
  8
0
 62
     0
 10
262.363
 20
28.8878
 30
0.0
 11
262.363
 21
29.8883
 31
0.0
  0
LINE
  8
0
 62
     0
 10
262.363
 20
29.8883
 30
0.0
 11
248.364
 21
29.8883
 31
0.0
  0
LINE
  8
0
 62
     0
 10
219.789
 20
29.8883
 30
0.0
 11
219.789
 21
28.8878
 31
0.0
  0
LINE
  8
0
 62
     0
 10
219.789
 20
28.8878
 30
0.0
 11
218.988
 21
28.8878
 31
0.0
  0
LINE
  8
0
 62
     0
 10
218.988
 20
28.8878
 30
0.0
 11
218.988
 21
25.7886
 31
0.0
  0
LINE
  8
0
 62
     0
 10
218.988
 20
25.7886
 30
0.0
 11
219.789
 21
25.7886
 31
0.0
  0
LINE
  8
0
 62
     0
 10
219.789
 20
25.7886
 30
0.0
 11
219.789
 21
19.9885
 31
0.0
  0
LINE
  8
0
 62
     0
 10
219.789
 20
19.9885
 30
0.0
 11
218.988
 21
19.9885
 31
0.0
  0
LINE
  8
0
 62
     0
 10
218.988
 20
19.9885
 30
0.0
 11
218.988
 21
16.8879
 31
0.0
  0
LINE
  8
0
 62
     0
 10
218.988
 20
16.8879
 30
0.0
 11
219.789
 21
16.8879
 31
0.0
  0
LINE
  8
0
 62
     0
 10
219.789
 20
16.8879
 30
0.0
 11
219.789
 21
15.8874
 31
0.0
  0
LINE
  8
0
 62
     0
 10
219.789
 20
15.8874
 30
0.0
 11
233.788
 21
15.8874
 31
0.0
  0
LINE
  8
0
 62
     0
 10
233.788
 20
15.8874
 30
0.0
 11
233.788
 21
16.8879
 31
0.0
  0
LINE
  8
0
 62
     0
 10
233.788
 20
16.8879
 30
0.0
 11
234.589
 21
16.8879
 31
0.0
  0
LINE
  8
0
 62
     0
 10
234.589
 20
16.8879
 30
0.0
 11
234.589
 21
19.9885
 31
0.0
  0
LINE
  8
0
 62
     0
 10
234.589
 20
19.9885
 30
0.0
 11
233.788
 21
19.9885
 31
0.0
  0
LINE
  8
0
 62
     0
 10
233.788
 20
19.9885
 30
0.0
 11
233.788
 21
25.7886
 31
0.0
  0
LINE
  8
0
 62
     0
 10
233.788
 20
25.7886
 30
0.0
 11
234.589
 21
25.7886
 31
0.0
  0
LINE
  8
0
 62
     0
 10
234.589
 20
25.7886
 30
0.0
 11
234.589
 21
28.8878
 31
0.0
  0
LINE
  8
0
 62
     0
 10
234.589
 20
28.8878
 30
0.0
 11
233.788
 21
28.8878
 31
0.0
  0
LINE
  8
0
 62
     0
 10
233.788
 20
28.8878
 30
0.0
 11
233.788
 21
29.8883
 31
0.0
  0
LINE
  8
0
 62
     0
 10
233.788
 20
29.8883
 30
0.0
 11
219.789
 21
29.8883
 31
0.0
  0
LINE
  8
0
 62
     0
 10
193.595
 20
29.8883
 30
0.0
 11
193.595
 21
28.8878
 31
0.0
  0
LINE
  8
0
 62
     0
 10
193.595
 20
28.8878
 30
0.0
 11
192.794
 21
28.8878
 31
0.0
  0
LINE
  8
0
 62
     0
 10
192.794
 20
28.8878
 30
0.0
 11
192.794
 21
25.7886
 31
0.0
  0
LINE
  8
0
 62
     0
 10
192.794
 20
25.7886
 30
0.0
 11
193.595
 21
25.7886
 31
0.0
  0
LINE
  8
0
 62
     0
 10
193.595
 20
25.7886
 30
0.0
 11
193.595
 21
19.9885
 31
0.0
  0
LINE
  8
0
 62
     0
 10
193.595
 20
19.9885
 30
0.0
 11
192.794
 21
19.9885
 31
0.0
  0
LINE
  8
0
 62
     0
 10
192.794
 20
19.9885
 30
0.0
 11
192.794
 21
16.8879
 31
0.0
  0
LINE
  8
0
 62
     0
 10
192.794
 20
16.8879
 30
0.0
 11
193.595
 21
16.8879
 31
0.0
  0
LINE
  8
0
 62
     0
 10
193.595
 20
16.8879
 30
0.0
 11
193.595
 21
15.8874
 31
0.0
  0
LINE
  8
0
 62
     0
 10
193.595
 20
15.8874
 30
0.0
 11
207.595
 21
15.8874
 31
0.0
  0
LINE
  8
0
 62
     0
 10
207.595
 20
15.8874
 30
0.0
 11
207.595
 21
16.8879
 31
0.0
  0
LINE
  8
0
 62
     0
 10
207.595
 20
16.8879
 30
0.0
 11
208.394
 21
16.8879
 31
0.0
  0
LINE
  8
0
 62
     0
 10
208.394
 20
16.8879
 30
0.0
 11
208.394
 21
19.9885
 31
0.0
  0
LINE
  8
0
 62
     0
 10
208.394
 20
19.9885
 30
0.0
 11
207.595
 21
19.9885
 31
0.0
  0
LINE
  8
0
 62
     0
 10
207.595
 20
19.9885
 30
0.0
 11
207.595
 21
25.7886
 31
0.0
  0
LINE
  8
0
 62
     0
 10
207.595
 20
25.7886
 30
0.0
 11
208.394
 21
25.7886
 31
0.0
  0
LINE
  8
0
 62
     0
 10
208.394
 20
25.7886
 30
0.0
 11
208.394
 21
28.8878
 31
0.0
  0
LINE
  8
0
 62
     0
 10
208.394
 20
28.8878
 30
0.0
 11
207.595
 21
28.8878
 31
0.0
  0
LINE
  8
0
 62
     0
 10
207.595
 20
28.8878
 30
0.0
 11
207.595
 21
29.8883
 31
0.0
  0
LINE
  8
0
 62
     0
 10
207.595
 20
29.8883
 30
0.0
 11
193.595
 21
29.8883
 31
0.0
  0
LINE
  8
0
 62
     0
 10
167.401
 20
29.8883
 30
0.0
 11
167.401
 21
28.8878
 31
0.0
  0
LINE
  8
0
 62
     0
 10
167.401
 20
28.8878
 30
0.0
 11
166.602
 21
28.8878
 31
0.0
  0
LINE
  8
0
 62
     0
 10
166.602
 20
28.8878
 30
0.0
 11
166.602
 21
25.7886
 31
0.0
  0
LINE
  8
0
 62
     0
 10
166.602
 20
25.7886
 30
0.0
 11
167.401
 21
25.7886
 31
0.0
  0
LINE
  8
0
 62
     0
 10
167.401
 20
25.7886
 30
0.0
 11
167.401
 21
19.9885
 31
0.0
  0
LINE
  8
0
 62
     0
 10
167.401
 20
19.9885
 30
0.0
 11
166.602
 21
19.9885
 31
0.0
  0
LINE
  8
0
 62
     0
 10
166.602
 20
19.9885
 30
0.0
 11
166.602
 21
16.8879
 31
0.0
  0
LINE
  8
0
 62
     0
 10
166.602
 20
16.8879
 30
0.0
 11
167.401
 21
16.8879
 31
0.0
  0
LINE
  8
0
 62
     0
 10
167.401
 20
16.8879
 30
0.0
 11
167.401
 21
15.8874
 31
0.0
  0
LINE
  8
0
 62
     0
 10
167.401
 20
15.8874
 30
0.0
 11
181.401
 21
15.8874
 31
0.0
  0
LINE
  8
0
 62
     0
 10
181.401
 20
15.8874
 30
0.0
 11
181.401
 21
16.8879
 31
0.0
  0
LINE
  8
0
 62
     0
 10
181.401
 20
16.8879
 30
0.0
 11
182.202
 21
16.8879
 31
0.0
  0
LINE
  8
0
 62
     0
 10
182.202
 20
16.8879
 30
0.0
 11
182.202
 21
19.9885
 31
0.0
  0
LINE
  8
0
 62
     0
 10
182.202
 20
19.9885
 30
0.0
 11
181.401
 21
19.9885
 31
0.0
  0
LINE
  8
0
 62
     0
 10
181.401
 20
19.9885
 30
0.0
 11
181.401
 21
25.7886
 31
0.0
  0
LINE
  8
0
 62
     0
 10
181.401
 20
25.7886
 30
0.0
 11
182.202
 21
25.7886
 31
0.0
  0
LINE
  8
0
 62
     0
 10
182.202
 20
25.7886
 30
0.0
 11
182.202
 21
28.8878
 31
0.0
  0
LINE
  8
0
 62
     0
 10
182.202
 20
28.8878
 30
0.0
 11
181.401
 21
28.8878
 31
0.0
  0
LINE
  8
0
 62
     0
 10
181.401
 20
28.8878
 30
0.0
 11
181.401
 21
29.8883
 31
0.0
  0
LINE
  8
0
 62
     0
 10
181.401
 20
29.8883
 30
0.0
 11
167.401
 21
29.8883
 31
0.0
  0
LINE
  8
0
 62
     0
 10
138.826
 20
29.8883
 30
0.0
 11
138.826
 21
28.8878
 31
0.0
  0
LINE
  8
0
 62
     0
 10
138.826
 20
28.8878
 30
0.0
 11
138.027
 21
28.8878
 31
0.0
  0
LINE
  8
0
 62
     0
 10
138.027
 20
28.8878
 30
0.0
 11
138.027
 21
25.7886
 31
0.0
  0
LINE
  8
0
 62
     0
 10
138.027
 20
25.7886
 30
0.0
 11
138.826
 21
25.7886
 31
0.0
  0
LINE
  8
0
 62
     0
 10
138.826
 20
25.7886
 30
0.0
 11
138.826
 21
19.9885
 31
0.0
  0
LINE
  8
0
 62
     0
 10
138.826
 20
19.9885
 30
0.0
 11
138.027
 21
19.9885
 31
0.0
  0
LINE
  8
0
 62
     0
 10
138.027
 20
19.9885
 30
0.0
 11
138.027
 21
16.8879
 31
0.0
  0
LINE
  8
0
 62
     0
 10
138.027
 20
16.8879
 30
0.0
 11
138.826
 21
16.8879
 31
0.0
  0
LINE
  8
0
 62
     0
 10
138.826
 20
16.8879
 30
0.0
 11
138.826
 21
15.8874
 31
0.0
  0
LINE
  8
0
 62
     0
 10
138.826
 20
15.8874
 30
0.0
 11
152.826
 21
15.8874
 31
0.0
  0
LINE
  8
0
 62
     0
 10
152.826
 20
15.8874
 30
0.0
 11
152.826
 21
16.8879
 31
0.0
  0
LINE
  8
0
 62
     0
 10
152.826
 20
16.8879
 30
0.0
 11
153.627
 21
16.8879
 31
0.0
  0
LINE
  8
0
 62
     0
 10
153.627
 20
16.8879
 30
0.0
 11
153.627
 21
19.9885
 31
0.0
  0
LINE
  8
0
 62
     0
 10
153.627
 20
19.9885
 30
0.0
 11
152.826
 21
19.9885
 31
0.0
  0
LINE
  8
0
 62
     0
 10
152.826
 20
19.9885
 30
0.0
 11
152.826
 21
25.7886
 31
0.0
  0
LINE
  8
0
 62
     0
 10
152.826
 20
25.7886
 30
0.0
 11
153.627
 21
25.7886
 31
0.0
  0
LINE
  8
0
 62
     0
 10
153.627
 20
25.7886
 30
0.0
 11
153.627
 21
28.8878
 31
0.0
  0
LINE
  8
0
 62
     0
 10
153.627
 20
28.8878
 30
0.0
 11
152.826
 21
28.8878
 31
0.0
  0
LINE
  8
0
 62
     0
 10
152.826
 20
28.8878
 30
0.0
 11
152.826
 21
29.8883
 31
0.0
  0
LINE
  8
0
 62
     0
 10
152.826
 20
29.8883
 30
0.0
 11
138.826
 21
29.8883
 31
0.0
  0
LINE
  8
0
 62
     0
 10
115.014
 20
29.8883
 30
0.0
 11
115.014
 21
28.8878
 31
0.0
  0
LINE
  8
0
 62
     0
 10
115.014
 20
28.8878
 30
0.0
 11
114.213
 21
28.8878
 31
0.0
  0
LINE
  8
0
 62
     0
 10
114.213
 20
28.8878
 30
0.0
 11
114.213
 21
25.7886
 31
0.0
  0
LINE
  8
0
 62
     0
 10
114.213
 20
25.7886
 30
0.0
 11
115.014
 21
25.7886
 31
0.0
  0
LINE
  8
0
 62
     0
 10
115.014
 20
25.7886
 30
0.0
 11
115.014
 21
19.9885
 31
0.0
  0
LINE
  8
0
 62
     0
 10
115.014
 20
19.9885
 30
0.0
 11
114.213
 21
19.9885
 31
0.0
  0
LINE
  8
0
 62
     0
 10
114.213
 20
19.9885
 30
0.0
 11
114.213
 21
16.8879
 31
0.0
  0
LINE
  8
0
 62
     0
 10
114.213
 20
16.8879
 30
0.0
 11
115.014
 21
16.8879
 31
0.0
  0
LINE
  8
0
 62
     0
 10
115.014
 20
16.8879
 30
0.0
 11
115.014
 21
15.8874
 31
0.0
  0
LINE
  8
0
 62
     0
 10
115.014
 20
15.8874
 30
0.0
 11
129.013
 21
15.8874
 31
0.0
  0
LINE
  8
0
 62
     0
 10
129.013
 20
15.8874
 30
0.0
 11
129.013
 21
16.8879
 31
0.0
  0
LINE
  8
0
 62
     0
 10
129.013
 20
16.8879
 30
0.0
 11
129.814
 21
16.8879
 31
0.0
  0
LINE
  8
0
 62
     0
 10
129.814
 20
16.8879
 30
0.0
 11
129.814
 21
19.9885
 31
0.0
  0
LINE
  8
0
 62
     0
 10
129.814
 20
19.9885
 30
0.0
 11
129.013
 21
19.9885
 31
0.0
  0
LINE
  8
0
 62
     0
 10
129.013
 20
19.9885
 30
0.0
 11
129.013
 21
25.7886
 31
0.0
  0
LINE
  8
0
 62
     0
 10
129.013
 20
25.7886
 30
0.0
 11
129.814
 21
25.7886
 31
0.0
  0
LINE
  8
0
 62
     0
 10
129.814
 20
25.7886
 30
0.0
 11
129.814
 21
28.8878
 31
0.0
  0
LINE
  8
0
 62
     0
 10
129.814
 20
28.8878
 30
0.0
 11
129.013
 21
28.8878
 31
0.0
  0
LINE
  8
0
 62
     0
 10
129.013
 20
28.8878
 30
0.0
 11
129.013
 21
29.8883
 31
0.0
  0
LINE
  8
0
 62
     0
 10
129.013
 20
29.8883
 30
0.0
 11
115.014
 21
29.8883
 31
0.0
  0
LINE
  8
0
 62
     0
 10
91.2012
 20
29.8883
 30
0.0
 11
91.2012
 21
28.8878
 31
0.0
  0
LINE
  8
0
 62
     0
 10
91.2012
 20
28.8878
 30
0.0
 11
90.4021
 21
28.8878
 31
0.0
  0
LINE
  8
0
 62
     0
 10
90.4021
 20
28.8878
 30
0.0
 11
90.4021
 21
25.7886
 31
0.0
  0
LINE
  8
0
 62
     0
 10
90.4021
 20
25.7886
 30
0.0
 11
91.2012
 21
25.7886
 31
0.0
  0
LINE
  8
0
 62
     0
 10
91.2012
 20
25.7886
 30
0.0
 11
91.2012
 21
19.9885
 31
0.0
  0
LINE
  8
0
 62
     0
 10
91.2012
 20
19.9885
 30
0.0
 11
90.4021
 21
19.9885
 31
0.0
  0
LINE
  8
0
 62
     0
 10
90.4021
 20
19.9885
 30
0.0
 11
90.4021
 21
16.8879
 31
0.0
  0
LINE
  8
0
 62
     0
 10
90.4021
 20
16.8879
 30
0.0
 11
91.2012
 21
16.8879
 31
0.0
  0
LINE
  8
0
 62
     0
 10
91.2012
 20
16.8879
 30
0.0
 11
91.2012
 21
15.8874
 31
0.0
  0
LINE
  8
0
 62
     0
 10
91.2012
 20
15.8874
 30
0.0
 11
105.201
 21
15.8874
 31
0.0
  0
LINE
  8
0
 62
     0
 10
105.201
 20
15.8874
 30
0.0
 11
105.201
 21
16.8879
 31
0.0
  0
LINE
  8
0
 62
     0
 10
105.201
 20
16.8879
 30
0.0
 11
106.002
 21
16.8879
 31
0.0
  0
LINE
  8
0
 62
     0
 10
106.002
 20
16.8879
 30
0.0
 11
106.002
 21
19.9885
 31
0.0
  0
LINE
  8
0
 62
     0
 10
106.002
 20
19.9885
 30
0.0
 11
105.201
 21
19.9885
 31
0.0
  0
LINE
  8
0
 62
     0
 10
105.201
 20
19.9885
 30
0.0
 11
105.201
 21
25.7886
 31
0.0
  0
LINE
  8
0
 62
     0
 10
105.201
 20
25.7886
 30
0.0
 11
106.002
 21
25.7886
 31
0.0
  0
LINE
  8
0
 62
     0
 10
106.002
 20
25.7886
 30
0.0
 11
106.002
 21
28.8878
 31
0.0
  0
LINE
  8
0
 62
     0
 10
106.002
 20
28.8878
 30
0.0
 11
105.201
 21
28.8878
 31
0.0
  0
LINE
  8
0
 62
     0
 10
105.201
 20
28.8878
 30
0.0
 11
105.201
 21
29.8883
 31
0.0
  0
LINE
  8
0
 62
     0
 10
105.201
 20
29.8883
 30
0.0
 11
91.2012
 21
29.8883
 31
0.0
  0
LINE
  8
0
 62
     0
 10
69.7699
 20
29.8883
 30
0.0
 11
69.7699
 21
28.8878
 31
0.0
  0
LINE
  8
0
 62
     0
 10
69.7699
 20
28.8878
 30
0.0
 11
68.9709
 21
28.8878
 31
0.0
  0
LINE
  8
0
 62
     0
 10
68.9709
 20
28.8878
 30
0.0
 11
68.9709
 21
25.7886
 31
0.0
  0
LINE
  8
0
 62
     0
 10
68.9709
 20
25.7886
 30
0.0
 11
69.7699
 21
25.7886
 31
0.0
  0
LINE
  8
0
 62
     0
 10
69.7699
 20
25.7886
 30
0.0
 11
69.7699
 21
19.9885
 31
0.0
  0
LINE
  8
0
 62
     0
 10
69.7699
 20
19.9885
 30
0.0
 11
68.9709
 21
19.9885
 31
0.0
  0
LINE
  8
0
 62
     0
 10
68.9709
 20
19.9885
 30
0.0
 11
68.9709
 21
16.8879
 31
0.0
  0
LINE
  8
0
 62
     0
 10
68.9709
 20
16.8879
 30
0.0
 11
69.7699
 21
16.8879
 31
0.0
  0
LINE
  8
0
 62
     0
 10
69.7699
 20
16.8879
 30
0.0
 11
69.7699
 21
15.8874
 31
0.0
  0
LINE
  8
0
 62
     0
 10
69.7699
 20
15.8874
 30
0.0
 11
83.771
 21
15.8874
 31
0.0
  0
LINE
  8
0
 62
     0
 10
83.771
 20
15.8874
 30
0.0
 11
83.771
 21
16.8879
 31
0.0
  0
LINE
  8
0
 62
     0
 10
83.771
 20
16.8879
 30
0.0
 11
84.5704
 21
16.8879
 31
0.0
  0
LINE
  8
0
 62
     0
 10
84.5704
 20
16.8879
 30
0.0
 11
84.5704
 21
19.9885
 31
0.0
  0
LINE
  8
0
 62
     0
 10
84.5704
 20
19.9885
 30
0.0
 11
83.771
 21
19.9885
 31
0.0
  0
LINE
  8
0
 62
     0
 10
83.771
 20
19.9885
 30
0.0
 11
83.771
 21
25.7886
 31
0.0
  0
LINE
  8
0
 62
     0
 10
83.771
 20
25.7886
 30
0.0
 11
84.5704
 21
25.7886
 31
0.0
  0
LINE
  8
0
 62
     0
 10
84.5704
 20
25.7886
 30
0.0
 11
84.5704
 21
28.8878
 31
0.0
  0
LINE
  8
0
 62
     0
 10
84.5704
 20
28.8878
 30
0.0
 11
83.771
 21
28.8878
 31
0.0
  0
LINE
  8
0
 62
     0
 10
83.771
 20
28.8878
 30
0.0
 11
83.771
 21
29.8883
 31
0.0
  0
LINE
  8
0
 62
     0
 10
83.771
 20
29.8883
 30
0.0
 11
69.7699
 21
29.8883
 31
0.0
  0
LINE
  8
0
 62
     0
 10
50.7199
 20
29.8883
 30
0.0
 11
50.7199
 21
28.8878
 31
0.0
  0
LINE
  8
0
 62
     0
 10
50.7199
 20
28.8878
 30
0.0
 11
49.9209
 21
28.8878
 31
0.0
  0
LINE
  8
0
 62
     0
 10
49.9209
 20
28.8878
 30
0.0
 11
49.9209
 21
25.7886
 31
0.0
  0
LINE
  8
0
 62
     0
 10
49.9209
 20
25.7886
 30
0.0
 11
50.7199
 21
25.7886
 31
0.0
  0
LINE
  8
0
 62
     0
 10
50.7199
 20
25.7886
 30
0.0
 11
50.7199
 21
19.9885
 31
0.0
  0
LINE
  8
0
 62
     0
 10
50.7199
 20
19.9885
 30
0.0
 11
49.9209
 21
19.9885
 31
0.0
  0
LINE
  8
0
 62
     0
 10
49.9209
 20
19.9885
 30
0.0
 11
49.9209
 21
16.8879
 31
0.0
  0
LINE
  8
0
 62
     0
 10
49.9209
 20
16.8879
 30
0.0
 11
50.7199
 21
16.8879
 31
0.0
  0
LINE
  8
0
 62
     0
 10
50.7199
 20
16.8879
 30
0.0
 11
50.7199
 21
15.8874
 31
0.0
  0
LINE
  8
0
 62
     0
 10
50.7199
 20
15.8874
 30
0.0
 11
64.721
 21
15.8874
 31
0.0
  0
LINE
  8
0
 62
     0
 10
64.721
 20
15.8874
 30
0.0
 11
64.721
 21
16.8879
 31
0.0
  0
LINE
  8
0
 62
     0
 10
64.721
 20
16.8879
 30
0.0
 11
65.5204
 21
16.8879
 31
0.0
  0
LINE
  8
0
 62
     0
 10
65.5204
 20
16.8879
 30
0.0
 11
65.5204
 21
19.9885
 31
0.0
  0
LINE
  8
0
 62
     0
 10
65.5204
 20
19.9885
 30
0.0
 11
64.721
 21
19.9885
 31
0.0
  0
LINE
  8
0
 62
     0
 10
64.721
 20
19.9885
 30
0.0
 11
64.721
 21
25.7886
 31
0.0
  0
LINE
  8
0
 62
     0
 10
64.721
 20
25.7886
 30
0.0
 11
65.5204
 21
25.7886
 31
0.0
  0
LINE
  8
0
 62
     0
 10
65.5204
 20
25.7886
 30
0.0
 11
65.5204
 21
28.8878
 31
0.0
  0
LINE
  8
0
 62
     0
 10
65.5204
 20
28.8878
 30
0.0
 11
64.721
 21
28.8878
 31
0.0
  0
LINE
  8
0
 62
     0
 10
64.721
 20
28.8878
 30
0.0
 11
64.721
 21
29.8883
 31
0.0
  0
LINE
  8
0
 62
     0
 10
64.721
 20
29.8883
 30
0.0
 11
50.7199
 21
29.8883
 31
0.0
  0
LINE
  8
0
 62
     0
 10
31.6701
 20
29.8883
 30
0.0
 11
31.6701
 21
28.8878
 31
0.0
  0
LINE
  8
0
 62
     0
 10
31.6701
 20
28.8878
 30
0.0
 11
30.8708
 21
28.8878
 31
0.0
  0
LINE
  8
0
 62
     0
 10
30.8708
 20
28.8878
 30
0.0
 11
30.8708
 21
25.7886
 31
0.0
  0
LINE
  8
0
 62
     0
 10
30.8708
 20
25.7886
 30
0.0
 11
31.6701
 21
25.7886
 31
0.0
  0
LINE
  8
0
 62
     0
 10
31.6701
 20
25.7886
 30
0.0
 11
31.6701
 21
19.9885
 31
0.0
  0
LINE
  8
0
 62
     0
 10
31.6701
 20
19.9885
 30
0.0
 11
30.8708
 21
19.9885
 31
0.0
  0
LINE
  8
0
 62
     0
 10
30.8708
 20
19.9885
 30
0.0
 11
30.8708
 21
16.8879
 31
0.0
  0
LINE
  8
0
 62
     0
 10
30.8708
 20
16.8879
 30
0.0
 11
31.6701
 21
16.8879
 31
0.0
  0
LINE
  8
0
 62
     0
 10
31.6701
 20
16.8879
 30
0.0
 11
31.6701
 21
15.8874
 31
0.0
  0
LINE
  8
0
 62
     0
 10
31.6701
 20
15.8874
 30
0.0
 11
45.671
 21
15.8874
 31
0.0
  0
LINE
  8
0
 62
     0
 10
45.671
 20
15.8874
 30
0.0
 11
45.671
 21
16.8879
 31
0.0
  0
LINE
  8
0
 62
     0
 10
45.671
 20
16.8879
 30
0.0
 11
46.4704
 21
16.8879
 31
0.0
  0
LINE
  8
0
 62
     0
 10
46.4704
 20
16.8879
 30
0.0
 11
46.4704
 21
19.9885
 31
0.0
  0
LINE
  8
0
 62
     0
 10
46.4704
 20
19.9885
 30
0.0
 11
45.671
 21
19.9885
 31
0.0
  0
LINE
  8
0
 62
     0
 10
45.671
 20
19.9885
 30
0.0
 11
45.671
 21
25.7886
 31
0.0
  0
LINE
  8
0
 62
     0
 10
45.671
 20
25.7886
 30
0.0
 11
46.4704
 21
25.7886
 31
0.0
  0
LINE
  8
0
 62
     0
 10
46.4704
 20
25.7886
 30
0.0
 11
46.4704
 21
28.8878
 31
0.0
  0
LINE
  8
0
 62
     0
 10
46.4704
 20
28.8878
 30
0.0
 11
45.671
 21
28.8878
 31
0.0
  0
LINE
  8
0
 62
     0
 10
45.671
 20
28.8878
 30
0.0
 11
45.671
 21
29.8883
 31
0.0
  0
LINE
  8
0
 62
     0
 10
45.671
 20
29.8883
 30
0.0
 11
31.6701
 21
29.8883
 31
0.0
  0
LINE
  8
0
 62
     0
 10
12.6201
 20
29.8883
 30
0.0
 11
12.6201
 21
28.8878
 31
0.0
  0
LINE
  8
0
 62
     0
 10
12.6201
 20
28.8878
 30
0.0
 11
11.8194
 21
28.8878
 31
0.0
  0
LINE
  8
0
 62
     0
 10
11.8194
 20
28.8878
 30
0.0
 11
11.8194
 21
25.7886
 31
0.0
  0
LINE
  8
0
 62
     0
 10
11.8194
 20
25.7886
 30
0.0
 11
12.6201
 21
25.7886
 31
0.0
  0
LINE
  8
0
 62
     0
 10
12.6201
 20
25.7886
 30
0.0
 11
12.6201
 21
19.9885
 31
0.0
  0
LINE
  8
0
 62
     0
 10
12.6201
 20
19.9885
 30
0.0
 11
11.8194
 21
19.9885
 31
0.0
  0
LINE
  8
0
 62
     0
 10
11.8194
 20
19.9885
 30
0.0
 11
11.8194
 21
16.8879
 31
0.0
  0
LINE
  8
0
 62
     0
 10
11.8194
 20
16.8879
 30
0.0
 11
12.6201
 21
16.8879
 31
0.0
  0
LINE
  8
0
 62
     0
 10
12.6201
 20
16.8879
 30
0.0
 11
12.6201
 21
15.8874
 31
0.0
  0
LINE
  8
0
 62
     0
 10
12.6201
 20
15.8874
 30
0.0
 11
26.6209
 21
15.8874
 31
0.0
  0
LINE
  8
0
 62
     0
 10
26.6209
 20
15.8874
 30
0.0
 11
26.6209
 21
16.8879
 31
0.0
  0
LINE
  8
0
 62
     0
 10
26.6209
 20
16.8879
 30
0.0
 11
27.4188
 21
16.8879
 31
0.0
  0
LINE
  8
0
 62
     0
 10
27.4188
 20
16.8879
 30
0.0
 11
27.4188
 21
19.9885
 31
0.0
  0
LINE
  8
0
 62
     0
 10
27.4188
 20
19.9885
 30
0.0
 11
26.6209
 21
19.9885
 31
0.0
  0
LINE
  8
0
 62
     0
 10
26.6209
 20
19.9885
 30
0.0
 11
26.6209
 21
25.7886
 31
0.0
  0
LINE
  8
0
 62
     0
 10
26.6209
 20
25.7886
 30
0.0
 11
27.4188
 21
25.7886
 31
0.0
  0
LINE
  8
0
 62
     0
 10
27.4188
 20
25.7886
 30
0.0
 11
27.4188
 21
28.8878
 31
0.0
  0
LINE
  8
0
 62
     0
 10
27.4188
 20
28.8878
 30
0.0
 11
26.6209
 21
28.8878
 31
0.0
  0
LINE
  8
0
 62
     0
 10
26.6209
 20
28.8878
 30
0.0
 11
26.6209
 21
29.8883
 31
0.0
  0
LINE
  8
0
 62
     0
 10
26.6209
 20
29.8883
 30
0.0
 11
12.6201
 21
29.8883
 31
0.0
  0
LINE
  8
0
 62
     0
 10
307.895
 20
48.9384
 30
0.0
 11
307.895
 21
47.9379
 31
0.0
  0
LINE
  8
0
 62
     0
 10
307.895
 20
47.9379
 30
0.0
 11
307.096
 21
47.9379
 31
0.0
  0
LINE
  8
0
 62
     0
 10
307.096
 20
47.9379
 30
0.0
 11
307.096
 21
44.8374
 31
0.0
  0
LINE
  8
0
 62
     0
 10
307.096
 20
44.8374
 30
0.0
 11
307.895
 21
44.8374
 31
0.0
  0
LINE
  8
0
 62
     0
 10
307.895
 20
44.8374
 30
0.0
 11
307.895
 21
39.0384
 31
0.0
  0
LINE
  8
0
 62
     0
 10
307.895
 20
39.0384
 30
0.0
 11
307.096
 21
39.0384
 31
0.0
  0
LINE
  8
0
 62
     0
 10
307.096
 20
39.0384
 30
0.0
 11
307.096
 21
35.9378
 31
0.0
  0
LINE
  8
0
 62
     0
 10
307.096
 20
35.9378
 30
0.0
 11
307.895
 21
35.9378
 31
0.0
  0
LINE
  8
0
 62
     0
 10
307.895
 20
35.9378
 30
0.0
 11
307.895
 21
34.9374
 31
0.0
  0
LINE
  8
0
 62
     0
 10
307.895
 20
34.9374
 30
0.0
 11
321.896
 21
34.9374
 31
0.0
  0
LINE
  8
0
 62
     0
 10
321.896
 20
34.9374
 30
0.0
 11
321.896
 21
35.9378
 31
0.0
  0
LINE
  8
0
 62
     0
 10
321.896
 20
35.9378
 30
0.0
 11
322.695
 21
35.9378
 31
0.0
  0
LINE
  8
0
 62
     0
 10
322.695
 20
35.9378
 30
0.0
 11
322.695
 21
39.0384
 31
0.0
  0
LINE
  8
0
 62
     0
 10
322.695
 20
39.0384
 30
0.0
 11
321.896
 21
39.0384
 31
0.0
  0
LINE
  8
0
 62
     0
 10
321.896
 20
39.0384
 30
0.0
 11
321.896
 21
44.8374
 31
0.0
  0
LINE
  8
0
 62
     0
 10
321.896
 20
44.8374
 30
0.0
 11
322.695
 21
44.8374
 31
0.0
  0
LINE
  8
0
 62
     0
 10
322.695
 20
44.8374
 30
0.0
 11
322.695
 21
47.9379
 31
0.0
  0
LINE
  8
0
 62
     0
 10
322.695
 20
47.9379
 30
0.0
 11
321.896
 21
47.9379
 31
0.0
  0
LINE
  8
0
 62
     0
 10
321.896
 20
47.9379
 30
0.0
 11
321.896
 21
48.9384
 31
0.0
  0
LINE
  8
0
 62
     0
 10
321.896
 20
48.9384
 30
0.0
 11
307.895
 21
48.9384
 31
0.0
  0
LINE
  8
0
 62
     0
 10
288.845
 20
48.9384
 30
0.0
 11
288.845
 21
47.9379
 31
0.0
  0
LINE
  8
0
 62
     0
 10
288.845
 20
47.9379
 30
0.0
 11
288.046
 21
47.9379
 31
0.0
  0
LINE
  8
0
 62
     0
 10
288.046
 20
47.9379
 30
0.0
 11
288.046
 21
44.8374
 31
0.0
  0
LINE
  8
0
 62
     0
 10
288.046
 20
44.8374
 30
0.0
 11
288.845
 21
44.8374
 31
0.0
  0
LINE
  8
0
 62
     0
 10
288.845
 20
44.8374
 30
0.0
 11
288.845
 21
39.0384
 31
0.0
  0
LINE
  8
0
 62
     0
 10
288.845
 20
39.0384
 30
0.0
 11
288.046
 21
39.0384
 31
0.0
  0
LINE
  8
0
 62
     0
 10
288.046
 20
39.0384
 30
0.0
 11
288.046
 21
35.9378
 31
0.0
  0
LINE
  8
0
 62
     0
 10
288.046
 20
35.9378
 30
0.0
 11
288.845
 21
35.9378
 31
0.0
  0
LINE
  8
0
 62
     0
 10
288.845
 20
35.9378
 30
0.0
 11
288.845
 21
34.9374
 31
0.0
  0
LINE
  8
0
 62
     0
 10
288.845
 20
34.9374
 30
0.0
 11
302.846
 21
34.9374
 31
0.0
  0
LINE
  8
0
 62
     0
 10
302.846
 20
34.9374
 30
0.0
 11
302.846
 21
35.9378
 31
0.0
  0
LINE
  8
0
 62
     0
 10
302.846
 20
35.9378
 30
0.0
 11
303.645
 21
35.9378
 31
0.0
  0
LINE
  8
0
 62
     0
 10
303.645
 20
35.9378
 30
0.0
 11
303.645
 21
39.0384
 31
0.0
  0
LINE
  8
0
 62
     0
 10
303.645
 20
39.0384
 30
0.0
 11
302.846
 21
39.0384
 31
0.0
  0
LINE
  8
0
 62
     0
 10
302.846
 20
39.0384
 30
0.0
 11
302.846
 21
44.8374
 31
0.0
  0
LINE
  8
0
 62
     0
 10
302.846
 20
44.8374
 30
0.0
 11
303.645
 21
44.8374
 31
0.0
  0
LINE
  8
0
 62
     0
 10
303.645
 20
44.8374
 30
0.0
 11
303.645
 21
47.9379
 31
0.0
  0
LINE
  8
0
 62
     0
 10
303.645
 20
47.9379
 30
0.0
 11
302.846
 21
47.9379
 31
0.0
  0
LINE
  8
0
 62
     0
 10
302.846
 20
47.9379
 30
0.0
 11
302.846
 21
48.9384
 31
0.0
  0
LINE
  8
0
 62
     0
 10
302.846
 20
48.9384
 30
0.0
 11
288.845
 21
48.9384
 31
0.0
  0
LINE
  8
0
 62
     0
 10
269.795
 20
48.9384
 30
0.0
 11
269.795
 21
47.9379
 31
0.0
  0
LINE
  8
0
 62
     0
 10
269.795
 20
47.9379
 30
0.0
 11
268.996
 21
47.9379
 31
0.0
  0
LINE
  8
0
 62
     0
 10
268.996
 20
47.9379
 30
0.0
 11
268.996
 21
44.8374
 31
0.0
  0
LINE
  8
0
 62
     0
 10
268.996
 20
44.8374
 30
0.0
 11
269.795
 21
44.8374
 31
0.0
  0
LINE
  8
0
 62
     0
 10
269.795
 20
44.8374
 30
0.0
 11
269.795
 21
39.0384
 31
0.0
  0
LINE
  8
0
 62
     0
 10
269.795
 20
39.0384
 30
0.0
 11
268.996
 21
39.0384
 31
0.0
  0
LINE
  8
0
 62
     0
 10
268.996
 20
39.0384
 30
0.0
 11
268.996
 21
35.9378
 31
0.0
  0
LINE
  8
0
 62
     0
 10
268.996
 20
35.9378
 30
0.0
 11
269.795
 21
35.9378
 31
0.0
  0
LINE
  8
0
 62
     0
 10
269.795
 20
35.9378
 30
0.0
 11
269.795
 21
34.9374
 31
0.0
  0
LINE
  8
0
 62
     0
 10
269.795
 20
34.9374
 30
0.0
 11
283.796
 21
34.9374
 31
0.0
  0
LINE
  8
0
 62
     0
 10
283.796
 20
34.9374
 30
0.0
 11
283.796
 21
35.9378
 31
0.0
  0
LINE
  8
0
 62
     0
 10
283.796
 20
35.9378
 30
0.0
 11
284.595
 21
35.9378
 31
0.0
  0
LINE
  8
0
 62
     0
 10
284.595
 20
35.9378
 30
0.0
 11
284.595
 21
39.0384
 31
0.0
  0
LINE
  8
0
 62
     0
 10
284.595
 20
39.0384
 30
0.0
 11
283.796
 21
39.0384
 31
0.0
  0
LINE
  8
0
 62
     0
 10
283.796
 20
39.0384
 30
0.0
 11
283.796
 21
44.8374
 31
0.0
  0
LINE
  8
0
 62
     0
 10
283.796
 20
44.8374
 30
0.0
 11
284.595
 21
44.8374
 31
0.0
  0
LINE
  8
0
 62
     0
 10
284.595
 20
44.8374
 30
0.0
 11
284.595
 21
47.9379
 31
0.0
  0
LINE
  8
0
 62
     0
 10
284.595
 20
47.9379
 30
0.0
 11
283.796
 21
47.9379
 31
0.0
  0
LINE
  8
0
 62
     0
 10
283.796
 20
47.9379
 30
0.0
 11
283.796
 21
48.9384
 31
0.0
  0
LINE
  8
0
 62
     0
 10
283.796
 20
48.9384
 30
0.0
 11
269.795
 21
48.9384
 31
0.0
  0
LINE
  8
0
 62
     0
 10
250.745
 20
48.9384
 30
0.0
 11
250.745
 21
47.9379
 31
0.0
  0
LINE
  8
0
 62
     0
 10
250.745
 20
47.9379
 30
0.0
 11
249.946
 21
47.9379
 31
0.0
  0
LINE
  8
0
 62
     0
 10
249.946
 20
47.9379
 30
0.0
 11
249.946
 21
44.8374
 31
0.0
  0
LINE
  8
0
 62
     0
 10
249.946
 20
44.8374
 30
0.0
 11
250.745
 21
44.8374
 31
0.0
  0
LINE
  8
0
 62
     0
 10
250.745
 20
44.8374
 30
0.0
 11
250.745
 21
39.0384
 31
0.0
  0
LINE
  8
0
 62
     0
 10
250.745
 20
39.0384
 30
0.0
 11
249.946
 21
39.0384
 31
0.0
  0
LINE
  8
0
 62
     0
 10
249.946
 20
39.0384
 30
0.0
 11
249.946
 21
35.9378
 31
0.0
  0
LINE
  8
0
 62
     0
 10
249.946
 20
35.9378
 30
0.0
 11
250.745
 21
35.9378
 31
0.0
  0
LINE
  8
0
 62
     0
 10
250.745
 20
35.9378
 30
0.0
 11
250.745
 21
34.9374
 31
0.0
  0
LINE
  8
0
 62
     0
 10
250.745
 20
34.9374
 30
0.0
 11
264.746
 21
34.9374
 31
0.0
  0
LINE
  8
0
 62
     0
 10
264.746
 20
34.9374
 30
0.0
 11
264.746
 21
35.9378
 31
0.0
  0
LINE
  8
0
 62
     0
 10
264.746
 20
35.9378
 30
0.0
 11
265.545
 21
35.9378
 31
0.0
  0
LINE
  8
0
 62
     0
 10
265.545
 20
35.9378
 30
0.0
 11
265.545
 21
39.0384
 31
0.0
  0
LINE
  8
0
 62
     0
 10
265.545
 20
39.0384
 30
0.0
 11
264.746
 21
39.0384
 31
0.0
  0
LINE
  8
0
 62
     0
 10
264.746
 20
39.0384
 30
0.0
 11
264.746
 21
44.8374
 31
0.0
  0
LINE
  8
0
 62
     0
 10
264.746
 20
44.8374
 30
0.0
 11
265.545
 21
44.8374
 31
0.0
  0
LINE
  8
0
 62
     0
 10
265.545
 20
44.8374
 30
0.0
 11
265.545
 21
47.9379
 31
0.0
  0
LINE
  8
0
 62
     0
 10
265.545
 20
47.9379
 30
0.0
 11
264.746
 21
47.9379
 31
0.0
  0
LINE
  8
0
 62
     0
 10
264.746
 20
47.9379
 30
0.0
 11
264.746
 21
48.9384
 31
0.0
  0
LINE
  8
0
 62
     0
 10
264.746
 20
48.9384
 30
0.0
 11
250.745
 21
48.9384
 31
0.0
  0
LINE
  8
0
 62
     0
 10
231.695
 20
48.9384
 30
0.0
 11
231.695
 21
47.9379
 31
0.0
  0
LINE
  8
0
 62
     0
 10
231.695
 20
47.9379
 30
0.0
 11
230.896
 21
47.9379
 31
0.0
  0
LINE
  8
0
 62
     0
 10
230.896
 20
47.9379
 30
0.0
 11
230.896
 21
44.8374
 31
0.0
  0
LINE
  8
0
 62
     0
 10
230.896
 20
44.8374
 30
0.0
 11
231.695
 21
44.8374
 31
0.0
  0
LINE
  8
0
 62
     0
 10
231.695
 20
44.8374
 30
0.0
 11
231.695
 21
39.0384
 31
0.0
  0
LINE
  8
0
 62
     0
 10
231.695
 20
39.0384
 30
0.0
 11
230.896
 21
39.0384
 31
0.0
  0
LINE
  8
0
 62
     0
 10
230.896
 20
39.0384
 30
0.0
 11
230.896
 21
35.9378
 31
0.0
  0
LINE
  8
0
 62
     0
 10
230.896
 20
35.9378
 30
0.0
 11
231.695
 21
35.9378
 31
0.0
  0
LINE
  8
0
 62
     0
 10
231.695
 20
35.9378
 30
0.0
 11
231.695
 21
34.9374
 31
0.0
  0
LINE
  8
0
 62
     0
 10
231.695
 20
34.9374
 30
0.0
 11
245.696
 21
34.9374
 31
0.0
  0
LINE
  8
0
 62
     0
 10
245.696
 20
34.9374
 30
0.0
 11
245.696
 21
35.9378
 31
0.0
  0
LINE
  8
0
 62
     0
 10
245.696
 20
35.9378
 30
0.0
 11
246.495
 21
35.9378
 31
0.0
  0
LINE
  8
0
 62
     0
 10
246.495
 20
35.9378
 30
0.0
 11
246.495
 21
39.0384
 31
0.0
  0
LINE
  8
0
 62
     0
 10
246.495
 20
39.0384
 30
0.0
 11
245.696
 21
39.0384
 31
0.0
  0
LINE
  8
0
 62
     0
 10
245.696
 20
39.0384
 30
0.0
 11
245.696
 21
44.8374
 31
0.0
  0
LINE
  8
0
 62
     0
 10
245.696
 20
44.8374
 30
0.0
 11
246.495
 21
44.8374
 31
0.0
  0
LINE
  8
0
 62
     0
 10
246.495
 20
44.8374
 30
0.0
 11
246.495
 21
47.9379
 31
0.0
  0
LINE
  8
0
 62
     0
 10
246.495
 20
47.9379
 30
0.0
 11
245.696
 21
47.9379
 31
0.0
  0
LINE
  8
0
 62
     0
 10
245.696
 20
47.9379
 30
0.0
 11
245.696
 21
48.9384
 31
0.0
  0
LINE
  8
0
 62
     0
 10
245.696
 20
48.9384
 30
0.0
 11
231.695
 21
48.9384
 31
0.0
  0
LINE
  8
0
 62
     0
 10
212.645
 20
48.9384
 30
0.0
 11
212.645
 21
47.9379
 31
0.0
  0
LINE
  8
0
 62
     0
 10
212.645
 20
47.9379
 30
0.0
 11
211.846
 21
47.9379
 31
0.0
  0
LINE
  8
0
 62
     0
 10
211.846
 20
47.9379
 30
0.0
 11
211.846
 21
44.8374
 31
0.0
  0
LINE
  8
0
 62
     0
 10
211.846
 20
44.8374
 30
0.0
 11
212.645
 21
44.8374
 31
0.0
  0
LINE
  8
0
 62
     0
 10
212.645
 20
44.8374
 30
0.0
 11
212.645
 21
39.0384
 31
0.0
  0
LINE
  8
0
 62
     0
 10
212.645
 20
39.0384
 30
0.0
 11
211.846
 21
39.0384
 31
0.0
  0
LINE
  8
0
 62
     0
 10
211.846
 20
39.0384
 30
0.0
 11
211.846
 21
35.9378
 31
0.0
  0
LINE
  8
0
 62
     0
 10
211.846
 20
35.9378
 30
0.0
 11
212.645
 21
35.9378
 31
0.0
  0
LINE
  8
0
 62
     0
 10
212.645
 20
35.9378
 30
0.0
 11
212.645
 21
34.9374
 31
0.0
  0
LINE
  8
0
 62
     0
 10
212.645
 20
34.9374
 30
0.0
 11
226.646
 21
34.9374
 31
0.0
  0
LINE
  8
0
 62
     0
 10
226.646
 20
34.9374
 30
0.0
 11
226.646
 21
35.9378
 31
0.0
  0
LINE
  8
0
 62
     0
 10
226.646
 20
35.9378
 30
0.0
 11
227.445
 21
35.9378
 31
0.0
  0
LINE
  8
0
 62
     0
 10
227.445
 20
35.9378
 30
0.0
 11
227.445
 21
39.0384
 31
0.0
  0
LINE
  8
0
 62
     0
 10
227.445
 20
39.0384
 30
0.0
 11
226.646
 21
39.0384
 31
0.0
  0
LINE
  8
0
 62
     0
 10
226.646
 20
39.0384
 30
0.0
 11
226.646
 21
44.8374
 31
0.0
  0
LINE
  8
0
 62
     0
 10
226.646
 20
44.8374
 30
0.0
 11
227.445
 21
44.8374
 31
0.0
  0
LINE
  8
0
 62
     0
 10
227.445
 20
44.8374
 30
0.0
 11
227.445
 21
47.9379
 31
0.0
  0
LINE
  8
0
 62
     0
 10
227.445
 20
47.9379
 30
0.0
 11
226.646
 21
47.9379
 31
0.0
  0
LINE
  8
0
 62
     0
 10
226.646
 20
47.9379
 30
0.0
 11
226.646
 21
48.9384
 31
0.0
  0
LINE
  8
0
 62
     0
 10
226.646
 20
48.9384
 30
0.0
 11
212.645
 21
48.9384
 31
0.0
  0
LINE
  8
0
 62
     0
 10
193.595
 20
48.9384
 30
0.0
 11
193.595
 21
47.9379
 31
0.0
  0
LINE
  8
0
 62
     0
 10
193.595
 20
47.9379
 30
0.0
 11
192.796
 21
47.9379
 31
0.0
  0
LINE
  8
0
 62
     0
 10
192.796
 20
47.9379
 30
0.0
 11
192.796
 21
44.8374
 31
0.0
  0
LINE
  8
0
 62
     0
 10
192.796
 20
44.8374
 30
0.0
 11
193.595
 21
44.8374
 31
0.0
  0
LINE
  8
0
 62
     0
 10
193.595
 20
44.8374
 30
0.0
 11
193.595
 21
39.0384
 31
0.0
  0
LINE
  8
0
 62
     0
 10
193.595
 20
39.0384
 30
0.0
 11
192.796
 21
39.0384
 31
0.0
  0
LINE
  8
0
 62
     0
 10
192.796
 20
39.0384
 30
0.0
 11
192.796
 21
35.9378
 31
0.0
  0
LINE
  8
0
 62
     0
 10
192.796
 20
35.9378
 30
0.0
 11
193.595
 21
35.9378
 31
0.0
  0
LINE
  8
0
 62
     0
 10
193.595
 20
35.9378
 30
0.0
 11
193.595
 21
34.9374
 31
0.0
  0
LINE
  8
0
 62
     0
 10
193.595
 20
34.9374
 30
0.0
 11
207.596
 21
34.9374
 31
0.0
  0
LINE
  8
0
 62
     0
 10
207.596
 20
34.9374
 30
0.0
 11
207.596
 21
35.9378
 31
0.0
  0
LINE
  8
0
 62
     0
 10
207.596
 20
35.9378
 30
0.0
 11
208.395
 21
35.9378
 31
0.0
  0
LINE
  8
0
 62
     0
 10
208.395
 20
35.9378
 30
0.0
 11
208.395
 21
39.0384
 31
0.0
  0
LINE
  8
0
 62
     0
 10
208.395
 20
39.0384
 30
0.0
 11
207.596
 21
39.0384
 31
0.0
  0
LINE
  8
0
 62
     0
 10
207.596
 20
39.0384
 30
0.0
 11
207.596
 21
44.8374
 31
0.0
  0
LINE
  8
0
 62
     0
 10
207.596
 20
44.8374
 30
0.0
 11
208.395
 21
44.8374
 31
0.0
  0
LINE
  8
0
 62
     0
 10
208.395
 20
44.8374
 30
0.0
 11
208.395
 21
47.9379
 31
0.0
  0
LINE
  8
0
 62
     0
 10
208.395
 20
47.9379
 30
0.0
 11
207.596
 21
47.9379
 31
0.0
  0
LINE
  8
0
 62
     0
 10
207.596
 20
47.9379
 30
0.0
 11
207.596
 21
48.9384
 31
0.0
  0
LINE
  8
0
 62
     0
 10
207.596
 20
48.9384
 30
0.0
 11
193.595
 21
48.9384
 31
0.0
  0
LINE
  8
0
 62
     0
 10
174.545
 20
48.9384
 30
0.0
 11
174.545
 21
47.9379
 31
0.0
  0
LINE
  8
0
 62
     0
 10
174.545
 20
47.9379
 30
0.0
 11
173.746
 21
47.9379
 31
0.0
  0
LINE
  8
0
 62
     0
 10
173.746
 20
47.9379
 30
0.0
 11
173.746
 21
44.8374
 31
0.0
  0
LINE
  8
0
 62
     0
 10
173.746
 20
44.8374
 30
0.0
 11
174.545
 21
44.8374
 31
0.0
  0
LINE
  8
0
 62
     0
 10
174.545
 20
44.8374
 30
0.0
 11
174.545
 21
39.0384
 31
0.0
  0
LINE
  8
0
 62
     0
 10
174.545
 20
39.0384
 30
0.0
 11
173.746
 21
39.0384
 31
0.0
  0
LINE
  8
0
 62
     0
 10
173.746
 20
39.0384
 30
0.0
 11
173.746
 21
35.9378
 31
0.0
  0
LINE
  8
0
 62
     0
 10
173.746
 20
35.9378
 30
0.0
 11
174.545
 21
35.9378
 31
0.0
  0
LINE
  8
0
 62
     0
 10
174.545
 20
35.9378
 30
0.0
 11
174.545
 21
34.9374
 31
0.0
  0
LINE
  8
0
 62
     0
 10
174.545
 20
34.9374
 30
0.0
 11
188.546
 21
34.9374
 31
0.0
  0
LINE
  8
0
 62
     0
 10
188.546
 20
34.9374
 30
0.0
 11
188.546
 21
35.9378
 31
0.0
  0
LINE
  8
0
 62
     0
 10
188.546
 20
35.9378
 30
0.0
 11
189.345
 21
35.9378
 31
0.0
  0
LINE
  8
0
 62
     0
 10
189.345
 20
35.9378
 30
0.0
 11
189.345
 21
39.0384
 31
0.0
  0
LINE
  8
0
 62
     0
 10
189.345
 20
39.0384
 30
0.0
 11
188.546
 21
39.0384
 31
0.0
  0
LINE
  8
0
 62
     0
 10
188.546
 20
39.0384
 30
0.0
 11
188.546
 21
44.8374
 31
0.0
  0
LINE
  8
0
 62
     0
 10
188.546
 20
44.8374
 30
0.0
 11
189.345
 21
44.8374
 31
0.0
  0
LINE
  8
0
 62
     0
 10
189.345
 20
44.8374
 30
0.0
 11
189.345
 21
47.9379
 31
0.0
  0
LINE
  8
0
 62
     0
 10
189.345
 20
47.9379
 30
0.0
 11
188.546
 21
47.9379
 31
0.0
  0
LINE
  8
0
 62
     0
 10
188.546
 20
47.9379
 30
0.0
 11
188.546
 21
48.9384
 31
0.0
  0
LINE
  8
0
 62
     0
 10
188.546
 20
48.9384
 30
0.0
 11
174.545
 21
48.9384
 31
0.0
  0
LINE
  8
0
 62
     0
 10
155.495
 20
48.9384
 30
0.0
 11
155.495
 21
47.9379
 31
0.0
  0
LINE
  8
0
 62
     0
 10
155.495
 20
47.9379
 30
0.0
 11
154.696
 21
47.9379
 31
0.0
  0
LINE
  8
0
 62
     0
 10
154.696
 20
47.9379
 30
0.0
 11
154.696
 21
44.8374
 31
0.0
  0
LINE
  8
0
 62
     0
 10
154.696
 20
44.8374
 30
0.0
 11
155.495
 21
44.8374
 31
0.0
  0
LINE
  8
0
 62
     0
 10
155.495
 20
44.8374
 30
0.0
 11
155.495
 21
39.0384
 31
0.0
  0
LINE
  8
0
 62
     0
 10
155.495
 20
39.0384
 30
0.0
 11
154.696
 21
39.0384
 31
0.0
  0
LINE
  8
0
 62
     0
 10
154.696
 20
39.0384
 30
0.0
 11
154.696
 21
35.9378
 31
0.0
  0
LINE
  8
0
 62
     0
 10
154.696
 20
35.9378
 30
0.0
 11
155.495
 21
35.9378
 31
0.0
  0
LINE
  8
0
 62
     0
 10
155.495
 20
35.9378
 30
0.0
 11
155.495
 21
34.9374
 31
0.0
  0
LINE
  8
0
 62
     0
 10
155.495
 20
34.9374
 30
0.0
 11
169.496
 21
34.9374
 31
0.0
  0
LINE
  8
0
 62
     0
 10
169.496
 20
34.9374
 30
0.0
 11
169.496
 21
35.9378
 31
0.0
  0
LINE
  8
0
 62
     0
 10
169.496
 20
35.9378
 30
0.0
 11
170.295
 21
35.9378
 31
0.0
  0
LINE
  8
0
 62
     0
 10
170.295
 20
35.9378
 30
0.0
 11
170.295
 21
39.0384
 31
0.0
  0
LINE
  8
0
 62
     0
 10
170.295
 20
39.0384
 30
0.0
 11
169.496
 21
39.0384
 31
0.0
  0
LINE
  8
0
 62
     0
 10
169.496
 20
39.0384
 30
0.0
 11
169.496
 21
44.8374
 31
0.0
  0
LINE
  8
0
 62
     0
 10
169.496
 20
44.8374
 30
0.0
 11
170.295
 21
44.8374
 31
0.0
  0
LINE
  8
0
 62
     0
 10
170.295
 20
44.8374
 30
0.0
 11
170.295
 21
47.9379
 31
0.0
  0
LINE
  8
0
 62
     0
 10
170.295
 20
47.9379
 30
0.0
 11
169.496
 21
47.9379
 31
0.0
  0
LINE
  8
0
 62
     0
 10
169.496
 20
47.9379
 30
0.0
 11
169.496
 21
48.9384
 31
0.0
  0
LINE
  8
0
 62
     0
 10
169.496
 20
48.9384
 30
0.0
 11
155.495
 21
48.9384
 31
0.0
  0
LINE
  8
0
 62
     0
 10
136.445
 20
48.9384
 30
0.0
 11
136.445
 21
47.9379
 31
0.0
  0
LINE
  8
0
 62
     0
 10
136.445
 20
47.9379
 30
0.0
 11
135.646
 21
47.9379
 31
0.0
  0
LINE
  8
0
 62
     0
 10
135.646
 20
47.9379
 30
0.0
 11
135.646
 21
44.8374
 31
0.0
  0
LINE
  8
0
 62
     0
 10
135.646
 20
44.8374
 30
0.0
 11
136.445
 21
44.8374
 31
0.0
  0
LINE
  8
0
 62
     0
 10
136.445
 20
44.8374
 30
0.0
 11
136.445
 21
39.0384
 31
0.0
  0
LINE
  8
0
 62
     0
 10
136.445
 20
39.0384
 30
0.0
 11
135.646
 21
39.0384
 31
0.0
  0
LINE
  8
0
 62
     0
 10
135.646
 20
39.0384
 30
0.0
 11
135.646
 21
35.9378
 31
0.0
  0
LINE
  8
0
 62
     0
 10
135.646
 20
35.9378
 30
0.0
 11
136.445
 21
35.9378
 31
0.0
  0
LINE
  8
0
 62
     0
 10
136.445
 20
35.9378
 30
0.0
 11
136.445
 21
34.9374
 31
0.0
  0
LINE
  8
0
 62
     0
 10
136.445
 20
34.9374
 30
0.0
 11
150.446
 21
34.9374
 31
0.0
  0
LINE
  8
0
 62
     0
 10
150.446
 20
34.9374
 30
0.0
 11
150.446
 21
35.9378
 31
0.0
  0
LINE
  8
0
 62
     0
 10
150.446
 20
35.9378
 30
0.0
 11
151.245
 21
35.9378
 31
0.0
  0
LINE
  8
0
 62
     0
 10
151.245
 20
35.9378
 30
0.0
 11
151.245
 21
39.0384
 31
0.0
  0
LINE
  8
0
 62
     0
 10
151.245
 20
39.0384
 30
0.0
 11
150.446
 21
39.0384
 31
0.0
  0
LINE
  8
0
 62
     0
 10
150.446
 20
39.0384
 30
0.0
 11
150.446
 21
44.8374
 31
0.0
  0
LINE
  8
0
 62
     0
 10
150.446
 20
44.8374
 30
0.0
 11
151.245
 21
44.8374
 31
0.0
  0
LINE
  8
0
 62
     0
 10
151.245
 20
44.8374
 30
0.0
 11
151.245
 21
47.9379
 31
0.0
  0
LINE
  8
0
 62
     0
 10
151.245
 20
47.9379
 30
0.0
 11
150.446
 21
47.9379
 31
0.0
  0
LINE
  8
0
 62
     0
 10
150.446
 20
47.9379
 30
0.0
 11
150.446
 21
48.9384
 31
0.0
  0
LINE
  8
0
 62
     0
 10
150.446
 20
48.9384
 30
0.0
 11
136.445
 21
48.9384
 31
0.0
  0
LINE
  8
0
 62
     0
 10
117.395
 20
48.9384
 30
0.0
 11
117.395
 21
47.9379
 31
0.0
  0
LINE
  8
0
 62
     0
 10
117.395
 20
47.9379
 30
0.0
 11
116.596
 21
47.9379
 31
0.0
  0
LINE
  8
0
 62
     0
 10
116.596
 20
47.9379
 30
0.0
 11
116.596
 21
44.8374
 31
0.0
  0
LINE
  8
0
 62
     0
 10
116.596
 20
44.8374
 30
0.0
 11
117.395
 21
44.8374
 31
0.0
  0
LINE
  8
0
 62
     0
 10
117.395
 20
44.8374
 30
0.0
 11
117.395
 21
39.0384
 31
0.0
  0
LINE
  8
0
 62
     0
 10
117.395
 20
39.0384
 30
0.0
 11
116.596
 21
39.0384
 31
0.0
  0
LINE
  8
0
 62
     0
 10
116.596
 20
39.0384
 30
0.0
 11
116.596
 21
35.9378
 31
0.0
  0
LINE
  8
0
 62
     0
 10
116.596
 20
35.9378
 30
0.0
 11
117.395
 21
35.9378
 31
0.0
  0
LINE
  8
0
 62
     0
 10
117.395
 20
35.9378
 30
0.0
 11
117.395
 21
34.9374
 31
0.0
  0
LINE
  8
0
 62
     0
 10
117.395
 20
34.9374
 30
0.0
 11
131.396
 21
34.9374
 31
0.0
  0
LINE
  8
0
 62
     0
 10
131.396
 20
34.9374
 30
0.0
 11
131.396
 21
35.9378
 31
0.0
  0
LINE
  8
0
 62
     0
 10
131.396
 20
35.9378
 30
0.0
 11
132.195
 21
35.9378
 31
0.0
  0
LINE
  8
0
 62
     0
 10
132.195
 20
35.9378
 30
0.0
 11
132.195
 21
39.0384
 31
0.0
  0
LINE
  8
0
 62
     0
 10
132.195
 20
39.0384
 30
0.0
 11
131.396
 21
39.0384
 31
0.0
  0
LINE
  8
0
 62
     0
 10
131.396
 20
39.0384
 30
0.0
 11
131.396
 21
44.8374
 31
0.0
  0
LINE
  8
0
 62
     0
 10
131.396
 20
44.8374
 30
0.0
 11
132.195
 21
44.8374
 31
0.0
  0
LINE
  8
0
 62
     0
 10
132.195
 20
44.8374
 30
0.0
 11
132.195
 21
47.9379
 31
0.0
  0
LINE
  8
0
 62
     0
 10
132.195
 20
47.9379
 30
0.0
 11
131.396
 21
47.9379
 31
0.0
  0
LINE
  8
0
 62
     0
 10
131.396
 20
47.9379
 30
0.0
 11
131.396
 21
48.9384
 31
0.0
  0
LINE
  8
0
 62
     0
 10
131.396
 20
48.9384
 30
0.0
 11
117.395
 21
48.9384
 31
0.0
  0
LINE
  8
0
 62
     0
 10
93.5824
 20
48.9384
 30
0.0
 11
93.5824
 21
47.9379
 31
0.0
  0
LINE
  8
0
 62
     0
 10
93.5824
 20
47.9379
 30
0.0
 11
92.782
 21
47.9379
 31
0.0
  0
LINE
  8
0
 62
     0
 10
92.782
 20
47.9379
 30
0.0
 11
92.782
 21
44.8374
 31
0.0
  0
LINE
  8
0
 62
     0
 10
92.782
 20
44.8374
 30
0.0
 11
93.5824
 21
44.8374
 31
0.0
  0
LINE
  8
0
 62
     0
 10
93.5824
 20
44.8374
 30
0.0
 11
93.5824
 21
39.0384
 31
0.0
  0
LINE
  8
0
 62
     0
 10
93.5824
 20
39.0384
 30
0.0
 11
92.782
 21
39.0384
 31
0.0
  0
LINE
  8
0
 62
     0
 10
92.782
 20
39.0384
 30
0.0
 11
92.782
 21
35.9378
 31
0.0
  0
LINE
  8
0
 62
     0
 10
92.782
 20
35.9378
 30
0.0
 11
93.5824
 21
35.9378
 31
0.0
  0
LINE
  8
0
 62
     0
 10
93.5824
 20
35.9378
 30
0.0
 11
93.5824
 21
34.9374
 31
0.0
  0
LINE
  8
0
 62
     0
 10
93.5824
 20
34.9374
 30
0.0
 11
107.582
 21
34.9374
 31
0.0
  0
LINE
  8
0
 62
     0
 10
107.582
 20
34.9374
 30
0.0
 11
107.582
 21
35.9378
 31
0.0
  0
LINE
  8
0
 62
     0
 10
107.582
 20
35.9378
 30
0.0
 11
108.383
 21
35.9378
 31
0.0
  0
LINE
  8
0
 62
     0
 10
108.383
 20
35.9378
 30
0.0
 11
108.383
 21
39.0384
 31
0.0
  0
LINE
  8
0
 62
     0
 10
108.383
 20
39.0384
 30
0.0
 11
107.582
 21
39.0384
 31
0.0
  0
LINE
  8
0
 62
     0
 10
107.582
 20
39.0384
 30
0.0
 11
107.582
 21
44.8374
 31
0.0
  0
LINE
  8
0
 62
     0
 10
107.582
 20
44.8374
 30
0.0
 11
108.383
 21
44.8374
 31
0.0
  0
LINE
  8
0
 62
     0
 10
108.383
 20
44.8374
 30
0.0
 11
108.383
 21
47.9379
 31
0.0
  0
LINE
  8
0
 62
     0
 10
108.383
 20
47.9379
 30
0.0
 11
107.582
 21
47.9379
 31
0.0
  0
LINE
  8
0
 62
     0
 10
107.582
 20
47.9379
 30
0.0
 11
107.582
 21
48.9384
 31
0.0
  0
LINE
  8
0
 62
     0
 10
107.582
 20
48.9384
 30
0.0
 11
93.5824
 21
48.9384
 31
0.0
  0
LINE
  8
0
 62
     0
 10
69.7699
 20
48.9384
 30
0.0
 11
69.7699
 21
47.9379
 31
0.0
  0
LINE
  8
0
 62
     0
 10
69.7699
 20
47.9379
 30
0.0
 11
68.9709
 21
47.9379
 31
0.0
  0
LINE
  8
0
 62
     0
 10
68.9709
 20
47.9379
 30
0.0
 11
68.9709
 21
44.8374
 31
0.0
  0
LINE
  8
0
 62
     0
 10
68.9709
 20
44.8374
 30
0.0
 11
69.7699
 21
44.8374
 31
0.0
  0
LINE
  8
0
 62
     0
 10
69.7699
 20
44.8374
 30
0.0
 11
69.7699
 21
39.0384
 31
0.0
  0
LINE
  8
0
 62
     0
 10
69.7699
 20
39.0384
 30
0.0
 11
68.9709
 21
39.0384
 31
0.0
  0
LINE
  8
0
 62
     0
 10
68.9709
 20
39.0384
 30
0.0
 11
68.9709
 21
35.9378
 31
0.0
  0
LINE
  8
0
 62
     0
 10
68.9709
 20
35.9378
 30
0.0
 11
69.7699
 21
35.9378
 31
0.0
  0
LINE
  8
0
 62
     0
 10
69.7699
 20
35.9378
 30
0.0
 11
69.7699
 21
34.9374
 31
0.0
  0
LINE
  8
0
 62
     0
 10
69.7699
 20
34.9374
 30
0.0
 11
83.771
 21
34.9374
 31
0.0
  0
LINE
  8
0
 62
     0
 10
83.771
 20
34.9374
 30
0.0
 11
83.771
 21
35.9378
 31
0.0
  0
LINE
  8
0
 62
     0
 10
83.771
 20
35.9378
 30
0.0
 11
84.5704
 21
35.9378
 31
0.0
  0
LINE
  8
0
 62
     0
 10
84.5704
 20
35.9378
 30
0.0
 11
84.5704
 21
39.0384
 31
0.0
  0
LINE
  8
0
 62
     0
 10
84.5704
 20
39.0384
 30
0.0
 11
83.771
 21
39.0384
 31
0.0
  0
LINE
  8
0
 62
     0
 10
83.771
 20
39.0384
 30
0.0
 11
83.771
 21
44.8374
 31
0.0
  0
LINE
  8
0
 62
     0
 10
83.771
 20
44.8374
 30
0.0
 11
84.5704
 21
44.8374
 31
0.0
  0
LINE
  8
0
 62
     0
 10
84.5704
 20
44.8374
 30
0.0
 11
84.5704
 21
47.9379
 31
0.0
  0
LINE
  8
0
 62
     0
 10
84.5704
 20
47.9379
 30
0.0
 11
83.771
 21
47.9379
 31
0.0
  0
LINE
  8
0
 62
     0
 10
83.771
 20
47.9379
 30
0.0
 11
83.771
 21
48.9384
 31
0.0
  0
LINE
  8
0
 62
     0
 10
83.771
 20
48.9384
 30
0.0
 11
69.7699
 21
48.9384
 31
0.0
  0
LINE
  8
0
 62
     0
 10
50.7199
 20
48.9384
 30
0.0
 11
50.7199
 21
47.9379
 31
0.0
  0
LINE
  8
0
 62
     0
 10
50.7199
 20
47.9379
 30
0.0
 11
49.9209
 21
47.9379
 31
0.0
  0
LINE
  8
0
 62
     0
 10
49.9209
 20
47.9379
 30
0.0
 11
49.9209
 21
44.8374
 31
0.0
  0
LINE
  8
0
 62
     0
 10
49.9209
 20
44.8374
 30
0.0
 11
50.7199
 21
44.8374
 31
0.0
  0
LINE
  8
0
 62
     0
 10
50.7199
 20
44.8374
 30
0.0
 11
50.7199
 21
39.0384
 31
0.0
  0
LINE
  8
0
 62
     0
 10
50.7199
 20
39.0384
 30
0.0
 11
49.9209
 21
39.0384
 31
0.0
  0
LINE
  8
0
 62
     0
 10
49.9209
 20
39.0384
 30
0.0
 11
49.9209
 21
35.9378
 31
0.0
  0
LINE
  8
0
 62
     0
 10
49.9209
 20
35.9378
 30
0.0
 11
50.7199
 21
35.9378
 31
0.0
  0
LINE
  8
0
 62
     0
 10
50.7199
 20
35.9378
 30
0.0
 11
50.7199
 21
34.9374
 31
0.0
  0
LINE
  8
0
 62
     0
 10
50.7199
 20
34.9374
 30
0.0
 11
64.721
 21
34.9374
 31
0.0
  0
LINE
  8
0
 62
     0
 10
64.721
 20
34.9374
 30
0.0
 11
64.721
 21
35.9378
 31
0.0
  0
LINE
  8
0
 62
     0
 10
64.721
 20
35.9378
 30
0.0
 11
65.5204
 21
35.9378
 31
0.0
  0
LINE
  8
0
 62
     0
 10
65.5204
 20
35.9378
 30
0.0
 11
65.5204
 21
39.0384
 31
0.0
  0
LINE
  8
0
 62
     0
 10
65.5204
 20
39.0384
 30
0.0
 11
64.721
 21
39.0384
 31
0.0
  0
LINE
  8
0
 62
     0
 10
64.721
 20
39.0384
 30
0.0
 11
64.721
 21
44.8374
 31
0.0
  0
LINE
  8
0
 62
     0
 10
64.721
 20
44.8374
 30
0.0
 11
65.5204
 21
44.8374
 31
0.0
  0
LINE
  8
0
 62
     0
 10
65.5204
 20
44.8374
 30
0.0
 11
65.5204
 21
47.9379
 31
0.0
  0
LINE
  8
0
 62
     0
 10
65.5204
 20
47.9379
 30
0.0
 11
64.721
 21
47.9379
 31
0.0
  0
LINE
  8
0
 62
     0
 10
64.721
 20
47.9379
 30
0.0
 11
64.721
 21
48.9384
 31
0.0
  0
LINE
  8
0
 62
     0
 10
64.721
 20
48.9384
 30
0.0
 11
50.7199
 21
48.9384
 31
0.0
  0
LINE
  8
0
 62
     0
 10
31.6701
 20
48.9384
 30
0.0
 11
31.6701
 21
47.9379
 31
0.0
  0
LINE
  8
0
 62
     0
 10
31.6701
 20
47.9379
 30
0.0
 11
30.8708
 21
47.9379
 31
0.0
  0
LINE
  8
0
 62
     0
 10
30.8708
 20
47.9379
 30
0.0
 11
30.8708
 21
44.8374
 31
0.0
  0
LINE
  8
0
 62
     0
 10
30.8708
 20
44.8374
 30
0.0
 11
31.6701
 21
44.8374
 31
0.0
  0
LINE
  8
0
 62
     0
 10
31.6701
 20
44.8374
 30
0.0
 11
31.6701
 21
39.0384
 31
0.0
  0
LINE
  8
0
 62
     0
 10
31.6701
 20
39.0384
 30
0.0
 11
30.8708
 21
39.0384
 31
0.0
  0
LINE
  8
0
 62
     0
 10
30.8708
 20
39.0384
 30
0.0
 11
30.8708
 21
35.9378
 31
0.0
  0
LINE
  8
0
 62
     0
 10
30.8708
 20
35.9378
 30
0.0
 11
31.6701
 21
35.9378
 31
0.0
  0
LINE
  8
0
 62
     0
 10
31.6701
 20
35.9378
 30
0.0
 11
31.6701
 21
34.9374
 31
0.0
  0
LINE
  8
0
 62
     0
 10
31.6701
 20
34.9374
 30
0.0
 11
45.671
 21
34.9374
 31
0.0
  0
LINE
  8
0
 62
     0
 10
45.671
 20
34.9374
 30
0.0
 11
45.671
 21
35.9378
 31
0.0
  0
LINE
  8
0
 62
     0
 10
45.671
 20
35.9378
 30
0.0
 11
46.4704
 21
35.9378
 31
0.0
  0
LINE
  8
0
 62
     0
 10
46.4704
 20
35.9378
 30
0.0
 11
46.4704
 21
39.0384
 31
0.0
  0
LINE
  8
0
 62
     0
 10
46.4704
 20
39.0384
 30
0.0
 11
45.671
 21
39.0384
 31
0.0
  0
LINE
  8
0
 62
     0
 10
45.671
 20
39.0384
 30
0.0
 11
45.671
 21
44.8374
 31
0.0
  0
LINE
  8
0
 62
     0
 10
45.671
 20
44.8374
 30
0.0
 11
46.4704
 21
44.8374
 31
0.0
  0
LINE
  8
0
 62
     0
 10
46.4704
 20
44.8374
 30
0.0
 11
46.4704
 21
47.9379
 31
0.0
  0
LINE
  8
0
 62
     0
 10
46.4704
 20
47.9379
 30
0.0
 11
45.671
 21
47.9379
 31
0.0
  0
LINE
  8
0
 62
     0
 10
45.671
 20
47.9379
 30
0.0
 11
45.671
 21
48.9384
 31
0.0
  0
LINE
  8
0
 62
     0
 10
45.671
 20
48.9384
 30
0.0
 11
31.6701
 21
48.9384
 31
0.0
  0
LINE
  8
0
 62
     0
 10
12.6201
 20
48.9384
 30
0.0
 11
12.6201
 21
47.9379
 31
0.0
  0
LINE
  8
0
 62
     0
 10
12.6201
 20
47.9379
 30
0.0
 11
11.8194
 21
47.9379
 31
0.0
  0
LINE
  8
0
 62
     0
 10
11.8194
 20
47.9379
 30
0.0
 11
11.8194
 21
44.8374
 31
0.0
  0
LINE
  8
0
 62
     0
 10
11.8194
 20
44.8374
 30
0.0
 11
12.6201
 21
44.8374
 31
0.0
  0
LINE
  8
0
 62
     0
 10
12.6201
 20
44.8374
 30
0.0
 11
12.6201
 21
39.0384
 31
0.0
  0
LINE
  8
0
 62
     0
 10
12.6201
 20
39.0384
 30
0.0
 11
11.8194
 21
39.0384
 31
0.0
  0
LINE
  8
0
 62
     0
 10
11.8194
 20
39.0384
 30
0.0
 11
11.8194
 21
35.9378
 31
0.0
  0
LINE
  8
0
 62
     0
 10
11.8194
 20
35.9378
 30
0.0
 11
12.6201
 21
35.9378
 31
0.0
  0
LINE
  8
0
 62
     0
 10
12.6201
 20
35.9378
 30
0.0
 11
12.6201
 21
34.9374
 31
0.0
  0
LINE
  8
0
 62
     0
 10
12.6201
 20
34.9374
 30
0.0
 11
26.6209
 21
34.9374
 31
0.0
  0
LINE
  8
0
 62
     0
 10
26.6209
 20
34.9374
 30
0.0
 11
26.6209
 21
35.9378
 31
0.0
  0
LINE
  8
0
 62
     0
 10
26.6209
 20
35.9378
 30
0.0
 11
27.4188
 21
35.9378
 31
0.0
  0
LINE
  8
0
 62
     0
 10
27.4188
 20
35.9378
 30
0.0
 11
27.4188
 21
39.0384
 31
0.0
  0
LINE
  8
0
 62
     0
 10
27.4188
 20
39.0384
 30
0.0
 11
26.6209
 21
39.0384
 31
0.0
  0
LINE
  8
0
 62
     0
 10
26.6209
 20
39.0384
 30
0.0
 11
26.6209
 21
44.8374
 31
0.0
  0
LINE
  8
0
 62
     0
 10
26.6209
 20
44.8374
 30
0.0
 11
27.4188
 21
44.8374
 31
0.0
  0
LINE
  8
0
 62
     0
 10
27.4188
 20
44.8374
 30
0.0
 11
27.4188
 21
47.9379
 31
0.0
  0
LINE
  8
0
 62
     0
 10
27.4188
 20
47.9379
 30
0.0
 11
26.6209
 21
47.9379
 31
0.0
  0
LINE
  8
0
 62
     0
 10
26.6209
 20
47.9379
 30
0.0
 11
26.6209
 21
48.9384
 31
0.0
  0
LINE
  8
0
 62
     0
 10
26.6209
 20
48.9384
 30
0.0
 11
12.6201
 21
48.9384
 31
0.0
  0
LINE
  8
0
 62
     0
 10
305.514
 20
67.9884
 30
0.0
 11
305.514
 21
66.9879
 31
0.0
  0
LINE
  8
0
 62
     0
 10
305.514
 20
66.9879
 30
0.0
 11
304.713
 21
66.9879
 31
0.0
  0
LINE
  8
0
 62
     0
 10
304.713
 20
66.9879
 30
0.0
 11
304.713
 21
63.8874
 31
0.0
  0
LINE
  8
0
 62
     0
 10
304.713
 20
63.8874
 30
0.0
 11
305.514
 21
63.8874
 31
0.0
  0
LINE
  8
0
 62
     0
 10
305.514
 20
63.8874
 30
0.0
 11
305.514
 21
58.0884
 31
0.0
  0
LINE
  8
0
 62
     0
 10
305.514
 20
58.0884
 30
0.0
 11
304.713
 21
58.0884
 31
0.0
  0
LINE
  8
0
 62
     0
 10
304.713
 20
58.0884
 30
0.0
 11
304.713
 21
54.9878
 31
0.0
  0
LINE
  8
0
 62
     0
 10
304.713
 20
54.9878
 30
0.0
 11
305.514
 21
54.9878
 31
0.0
  0
LINE
  8
0
 62
     0
 10
305.514
 20
54.9878
 30
0.0
 11
305.514
 21
53.9873
 31
0.0
  0
LINE
  8
0
 62
     0
 10
305.514
 20
53.9873
 30
0.0
 11
319.513
 21
53.9873
 31
0.0
  0
LINE
  8
0
 62
     0
 10
319.513
 20
53.9873
 30
0.0
 11
319.513
 21
54.9878
 31
0.0
  0
LINE
  8
0
 62
     0
 10
319.513
 20
54.9878
 30
0.0
 11
320.314
 21
54.9878
 31
0.0
  0
LINE
  8
0
 62
     0
 10
320.314
 20
54.9878
 30
0.0
 11
320.314
 21
58.0884
 31
0.0
  0
LINE
  8
0
 62
     0
 10
320.314
 20
58.0884
 30
0.0
 11
319.513
 21
58.0884
 31
0.0
  0
LINE
  8
0
 62
     0
 10
319.513
 20
58.0884
 30
0.0
 11
319.513
 21
63.8874
 31
0.0
  0
LINE
  8
0
 62
     0
 10
319.513
 20
63.8874
 30
0.0
 11
320.314
 21
63.8874
 31
0.0
  0
LINE
  8
0
 62
     0
 10
320.314
 20
63.8874
 30
0.0
 11
320.314
 21
66.9879
 31
0.0
  0
LINE
  8
0
 62
     0
 10
320.314
 20
66.9879
 30
0.0
 11
319.513
 21
66.9879
 31
0.0
  0
LINE
  8
0
 62
     0
 10
319.513
 20
66.9879
 30
0.0
 11
319.513
 21
67.9884
 31
0.0
  0
LINE
  8
0
 62
     0
 10
319.513
 20
67.9884
 30
0.0
 11
305.514
 21
67.9884
 31
0.0
  0
LINE
  8
0
 62
     0
 10
284.082
 20
67.9884
 30
0.0
 11
284.082
 21
66.9879
 31
0.0
  0
LINE
  8
0
 62
     0
 10
284.082
 20
66.9879
 30
0.0
 11
283.282
 21
66.9879
 31
0.0
  0
LINE
  8
0
 62
     0
 10
283.282
 20
66.9879
 30
0.0
 11
283.282
 21
63.8874
 31
0.0
  0
LINE
  8
0
 62
     0
 10
283.282
 20
63.8874
 30
0.0
 11
284.082
 21
63.8874
 31
0.0
  0
LINE
  8
0
 62
     0
 10
284.082
 20
63.8874
 30
0.0
 11
284.082
 21
58.0884
 31
0.0
  0
LINE
  8
0
 62
     0
 10
284.082
 20
58.0884
 30
0.0
 11
283.282
 21
58.0884
 31
0.0
  0
LINE
  8
0
 62
     0
 10
283.282
 20
58.0884
 30
0.0
 11
283.282
 21
54.9878
 31
0.0
  0
LINE
  8
0
 62
     0
 10
283.282
 20
54.9878
 30
0.0
 11
284.082
 21
54.9878
 31
0.0
  0
LINE
  8
0
 62
     0
 10
284.082
 20
54.9878
 30
0.0
 11
284.082
 21
53.9873
 31
0.0
  0
LINE
  8
0
 62
     0
 10
284.082
 20
53.9873
 30
0.0
 11
298.082
 21
53.9873
 31
0.0
  0
LINE
  8
0
 62
     0
 10
298.082
 20
53.9873
 30
0.0
 11
298.082
 21
54.9878
 31
0.0
  0
LINE
  8
0
 62
     0
 10
298.082
 20
54.9878
 30
0.0
 11
298.883
 21
54.9878
 31
0.0
  0
LINE
  8
0
 62
     0
 10
298.883
 20
54.9878
 30
0.0
 11
298.883
 21
58.0884
 31
0.0
  0
LINE
  8
0
 62
     0
 10
298.883
 20
58.0884
 30
0.0
 11
298.082
 21
58.0884
 31
0.0
  0
LINE
  8
0
 62
     0
 10
298.082
 20
58.0884
 30
0.0
 11
298.082
 21
63.8874
 31
0.0
  0
LINE
  8
0
 62
     0
 10
298.082
 20
63.8874
 30
0.0
 11
298.883
 21
63.8874
 31
0.0
  0
LINE
  8
0
 62
     0
 10
298.883
 20
63.8874
 30
0.0
 11
298.883
 21
66.9879
 31
0.0
  0
LINE
  8
0
 62
     0
 10
298.883
 20
66.9879
 30
0.0
 11
298.082
 21
66.9879
 31
0.0
  0
LINE
  8
0
 62
     0
 10
298.082
 20
66.9879
 30
0.0
 11
298.082
 21
67.9884
 31
0.0
  0
LINE
  8
0
 62
     0
 10
298.082
 20
67.9884
 30
0.0
 11
284.082
 21
67.9884
 31
0.0
  0
LINE
  8
0
 62
     0
 10
265.032
 20
67.9884
 30
0.0
 11
265.032
 21
66.9879
 31
0.0
  0
LINE
  8
0
 62
     0
 10
265.032
 20
66.9879
 30
0.0
 11
264.232
 21
66.9879
 31
0.0
  0
LINE
  8
0
 62
     0
 10
264.232
 20
66.9879
 30
0.0
 11
264.232
 21
63.8874
 31
0.0
  0
LINE
  8
0
 62
     0
 10
264.232
 20
63.8874
 30
0.0
 11
265.032
 21
63.8874
 31
0.0
  0
LINE
  8
0
 62
     0
 10
265.032
 20
63.8874
 30
0.0
 11
265.032
 21
58.0884
 31
0.0
  0
LINE
  8
0
 62
     0
 10
265.032
 20
58.0884
 30
0.0
 11
264.232
 21
58.0884
 31
0.0
  0
LINE
  8
0
 62
     0
 10
264.232
 20
58.0884
 30
0.0
 11
264.232
 21
54.9878
 31
0.0
  0
LINE
  8
0
 62
     0
 10
264.232
 20
54.9878
 30
0.0
 11
265.032
 21
54.9878
 31
0.0
  0
LINE
  8
0
 62
     0
 10
265.032
 20
54.9878
 30
0.0
 11
265.032
 21
53.9873
 31
0.0
  0
LINE
  8
0
 62
     0
 10
265.032
 20
53.9873
 30
0.0
 11
279.032
 21
53.9873
 31
0.0
  0
LINE
  8
0
 62
     0
 10
279.032
 20
53.9873
 30
0.0
 11
279.032
 21
54.9878
 31
0.0
  0
LINE
  8
0
 62
     0
 10
279.032
 20
54.9878
 30
0.0
 11
279.833
 21
54.9878
 31
0.0
  0
LINE
  8
0
 62
     0
 10
279.833
 20
54.9878
 30
0.0
 11
279.833
 21
58.0884
 31
0.0
  0
LINE
  8
0
 62
     0
 10
279.833
 20
58.0884
 30
0.0
 11
279.032
 21
58.0884
 31
0.0
  0
LINE
  8
0
 62
     0
 10
279.032
 20
58.0884
 30
0.0
 11
279.032
 21
63.8874
 31
0.0
  0
LINE
  8
0
 62
     0
 10
279.032
 20
63.8874
 30
0.0
 11
279.833
 21
63.8874
 31
0.0
  0
LINE
  8
0
 62
     0
 10
279.833
 20
63.8874
 30
0.0
 11
279.833
 21
66.9879
 31
0.0
  0
LINE
  8
0
 62
     0
 10
279.833
 20
66.9879
 30
0.0
 11
279.032
 21
66.9879
 31
0.0
  0
LINE
  8
0
 62
     0
 10
279.032
 20
66.9879
 30
0.0
 11
279.032
 21
67.9884
 31
0.0
  0
LINE
  8
0
 62
     0
 10
279.032
 20
67.9884
 30
0.0
 11
265.032
 21
67.9884
 31
0.0
  0
LINE
  8
0
 62
     0
 10
245.982
 20
67.9884
 30
0.0
 11
245.982
 21
66.9879
 31
0.0
  0
LINE
  8
0
 62
     0
 10
245.982
 20
66.9879
 30
0.0
 11
245.182
 21
66.9879
 31
0.0
  0
LINE
  8
0
 62
     0
 10
245.182
 20
66.9879
 30
0.0
 11
245.182
 21
63.8874
 31
0.0
  0
LINE
  8
0
 62
     0
 10
245.182
 20
63.8874
 30
0.0
 11
245.982
 21
63.8874
 31
0.0
  0
LINE
  8
0
 62
     0
 10
245.982
 20
63.8874
 30
0.0
 11
245.982
 21
58.0884
 31
0.0
  0
LINE
  8
0
 62
     0
 10
245.982
 20
58.0884
 30
0.0
 11
245.182
 21
58.0884
 31
0.0
  0
LINE
  8
0
 62
     0
 10
245.182
 20
58.0884
 30
0.0
 11
245.182
 21
54.9878
 31
0.0
  0
LINE
  8
0
 62
     0
 10
245.182
 20
54.9878
 30
0.0
 11
245.982
 21
54.9878
 31
0.0
  0
LINE
  8
0
 62
     0
 10
245.982
 20
54.9878
 30
0.0
 11
245.982
 21
53.9873
 31
0.0
  0
LINE
  8
0
 62
     0
 10
245.982
 20
53.9873
 30
0.0
 11
259.982
 21
53.9873
 31
0.0
  0
LINE
  8
0
 62
     0
 10
259.982
 20
53.9873
 30
0.0
 11
259.982
 21
54.9878
 31
0.0
  0
LINE
  8
0
 62
     0
 10
259.982
 20
54.9878
 30
0.0
 11
260.783
 21
54.9878
 31
0.0
  0
LINE
  8
0
 62
     0
 10
260.783
 20
54.9878
 30
0.0
 11
260.783
 21
58.0884
 31
0.0
  0
LINE
  8
0
 62
     0
 10
260.783
 20
58.0884
 30
0.0
 11
259.982
 21
58.0884
 31
0.0
  0
LINE
  8
0
 62
     0
 10
259.982
 20
58.0884
 30
0.0
 11
259.982
 21
63.8874
 31
0.0
  0
LINE
  8
0
 62
     0
 10
259.982
 20
63.8874
 30
0.0
 11
260.783
 21
63.8874
 31
0.0
  0
LINE
  8
0
 62
     0
 10
260.783
 20
63.8874
 30
0.0
 11
260.783
 21
66.9879
 31
0.0
  0
LINE
  8
0
 62
     0
 10
260.783
 20
66.9879
 30
0.0
 11
259.982
 21
66.9879
 31
0.0
  0
LINE
  8
0
 62
     0
 10
259.982
 20
66.9879
 30
0.0
 11
259.982
 21
67.9884
 31
0.0
  0
LINE
  8
0
 62
     0
 10
259.982
 20
67.9884
 30
0.0
 11
245.982
 21
67.9884
 31
0.0
  0
LINE
  8
0
 62
     0
 10
226.932
 20
67.9884
 30
0.0
 11
226.932
 21
66.9879
 31
0.0
  0
LINE
  8
0
 62
     0
 10
226.932
 20
66.9879
 30
0.0
 11
226.132
 21
66.9879
 31
0.0
  0
LINE
  8
0
 62
     0
 10
226.132
 20
66.9879
 30
0.0
 11
226.132
 21
63.8874
 31
0.0
  0
LINE
  8
0
 62
     0
 10
226.132
 20
63.8874
 30
0.0
 11
226.932
 21
63.8874
 31
0.0
  0
LINE
  8
0
 62
     0
 10
226.932
 20
63.8874
 30
0.0
 11
226.932
 21
58.0884
 31
0.0
  0
LINE
  8
0
 62
     0
 10
226.932
 20
58.0884
 30
0.0
 11
226.132
 21
58.0884
 31
0.0
  0
LINE
  8
0
 62
     0
 10
226.132
 20
58.0884
 30
0.0
 11
226.132
 21
54.9878
 31
0.0
  0
LINE
  8
0
 62
     0
 10
226.132
 20
54.9878
 30
0.0
 11
226.932
 21
54.9878
 31
0.0
  0
LINE
  8
0
 62
     0
 10
226.932
 20
54.9878
 30
0.0
 11
226.932
 21
53.9873
 31
0.0
  0
LINE
  8
0
 62
     0
 10
226.932
 20
53.9873
 30
0.0
 11
240.932
 21
53.9873
 31
0.0
  0
LINE
  8
0
 62
     0
 10
240.932
 20
53.9873
 30
0.0
 11
240.932
 21
54.9878
 31
0.0
  0
LINE
  8
0
 62
     0
 10
240.932
 20
54.9878
 30
0.0
 11
241.733
 21
54.9878
 31
0.0
  0
LINE
  8
0
 62
     0
 10
241.733
 20
54.9878
 30
0.0
 11
241.733
 21
58.0884
 31
0.0
  0
LINE
  8
0
 62
     0
 10
241.733
 20
58.0884
 30
0.0
 11
240.932
 21
58.0884
 31
0.0
  0
LINE
  8
0
 62
     0
 10
240.932
 20
58.0884
 30
0.0
 11
240.932
 21
63.8874
 31
0.0
  0
LINE
  8
0
 62
     0
 10
240.932
 20
63.8874
 30
0.0
 11
241.733
 21
63.8874
 31
0.0
  0
LINE
  8
0
 62
     0
 10
241.733
 20
63.8874
 30
0.0
 11
241.733
 21
66.9879
 31
0.0
  0
LINE
  8
0
 62
     0
 10
241.733
 20
66.9879
 30
0.0
 11
240.932
 21
66.9879
 31
0.0
  0
LINE
  8
0
 62
     0
 10
240.932
 20
66.9879
 30
0.0
 11
240.932
 21
67.9884
 31
0.0
  0
LINE
  8
0
 62
     0
 10
240.932
 20
67.9884
 30
0.0
 11
226.932
 21
67.9884
 31
0.0
  0
LINE
  8
0
 62
     0
 10
207.882
 20
67.9884
 30
0.0
 11
207.882
 21
66.9879
 31
0.0
  0
LINE
  8
0
 62
     0
 10
207.882
 20
66.9879
 30
0.0
 11
207.082
 21
66.9879
 31
0.0
  0
LINE
  8
0
 62
     0
 10
207.082
 20
66.9879
 30
0.0
 11
207.082
 21
63.8874
 31
0.0
  0
LINE
  8
0
 62
     0
 10
207.082
 20
63.8874
 30
0.0
 11
207.882
 21
63.8874
 31
0.0
  0
LINE
  8
0
 62
     0
 10
207.882
 20
63.8874
 30
0.0
 11
207.882
 21
58.0884
 31
0.0
  0
LINE
  8
0
 62
     0
 10
207.882
 20
58.0884
 30
0.0
 11
207.082
 21
58.0884
 31
0.0
  0
LINE
  8
0
 62
     0
 10
207.082
 20
58.0884
 30
0.0
 11
207.082
 21
54.9878
 31
0.0
  0
LINE
  8
0
 62
     0
 10
207.082
 20
54.9878
 30
0.0
 11
207.882
 21
54.9878
 31
0.0
  0
LINE
  8
0
 62
     0
 10
207.882
 20
54.9878
 30
0.0
 11
207.882
 21
53.9873
 31
0.0
  0
LINE
  8
0
 62
     0
 10
207.882
 20
53.9873
 30
0.0
 11
221.882
 21
53.9873
 31
0.0
  0
LINE
  8
0
 62
     0
 10
221.882
 20
53.9873
 30
0.0
 11
221.882
 21
54.9878
 31
0.0
  0
LINE
  8
0
 62
     0
 10
221.882
 20
54.9878
 30
0.0
 11
222.683
 21
54.9878
 31
0.0
  0
LINE
  8
0
 62
     0
 10
222.683
 20
54.9878
 30
0.0
 11
222.683
 21
58.0884
 31
0.0
  0
LINE
  8
0
 62
     0
 10
222.683
 20
58.0884
 30
0.0
 11
221.882
 21
58.0884
 31
0.0
  0
LINE
  8
0
 62
     0
 10
221.882
 20
58.0884
 30
0.0
 11
221.882
 21
63.8874
 31
0.0
  0
LINE
  8
0
 62
     0
 10
221.882
 20
63.8874
 30
0.0
 11
222.683
 21
63.8874
 31
0.0
  0
LINE
  8
0
 62
     0
 10
222.683
 20
63.8874
 30
0.0
 11
222.683
 21
66.9879
 31
0.0
  0
LINE
  8
0
 62
     0
 10
222.683
 20
66.9879
 30
0.0
 11
221.882
 21
66.9879
 31
0.0
  0
LINE
  8
0
 62
     0
 10
221.882
 20
66.9879
 30
0.0
 11
221.882
 21
67.9884
 31
0.0
  0
LINE
  8
0
 62
     0
 10
221.882
 20
67.9884
 30
0.0
 11
207.882
 21
67.9884
 31
0.0
  0
LINE
  8
0
 62
     0
 10
188.832
 20
67.9884
 30
0.0
 11
188.832
 21
66.9879
 31
0.0
  0
LINE
  8
0
 62
     0
 10
188.832
 20
66.9879
 30
0.0
 11
188.032
 21
66.9879
 31
0.0
  0
LINE
  8
0
 62
     0
 10
188.032
 20
66.9879
 30
0.0
 11
188.032
 21
63.8874
 31
0.0
  0
LINE
  8
0
 62
     0
 10
188.032
 20
63.8874
 30
0.0
 11
188.832
 21
63.8874
 31
0.0
  0
LINE
  8
0
 62
     0
 10
188.832
 20
63.8874
 30
0.0
 11
188.832
 21
58.0884
 31
0.0
  0
LINE
  8
0
 62
     0
 10
188.832
 20
58.0884
 30
0.0
 11
188.032
 21
58.0884
 31
0.0
  0
LINE
  8
0
 62
     0
 10
188.032
 20
58.0884
 30
0.0
 11
188.032
 21
54.9878
 31
0.0
  0
LINE
  8
0
 62
     0
 10
188.032
 20
54.9878
 30
0.0
 11
188.832
 21
54.9878
 31
0.0
  0
LINE
  8
0
 62
     0
 10
188.832
 20
54.9878
 30
0.0
 11
188.832
 21
53.9873
 31
0.0
  0
LINE
  8
0
 62
     0
 10
188.832
 20
53.9873
 30
0.0
 11
202.832
 21
53.9873
 31
0.0
  0
LINE
  8
0
 62
     0
 10
202.832
 20
53.9873
 30
0.0
 11
202.832
 21
54.9878
 31
0.0
  0
LINE
  8
0
 62
     0
 10
202.832
 20
54.9878
 30
0.0
 11
203.633
 21
54.9878
 31
0.0
  0
LINE
  8
0
 62
     0
 10
203.633
 20
54.9878
 30
0.0
 11
203.633
 21
58.0884
 31
0.0
  0
LINE
  8
0
 62
     0
 10
203.633
 20
58.0884
 30
0.0
 11
202.832
 21
58.0884
 31
0.0
  0
LINE
  8
0
 62
     0
 10
202.832
 20
58.0884
 30
0.0
 11
202.832
 21
63.8874
 31
0.0
  0
LINE
  8
0
 62
     0
 10
202.832
 20
63.8874
 30
0.0
 11
203.633
 21
63.8874
 31
0.0
  0
LINE
  8
0
 62
     0
 10
203.633
 20
63.8874
 30
0.0
 11
203.633
 21
66.9879
 31
0.0
  0
LINE
  8
0
 62
     0
 10
203.633
 20
66.9879
 30
0.0
 11
202.832
 21
66.9879
 31
0.0
  0
LINE
  8
0
 62
     0
 10
202.832
 20
66.9879
 30
0.0
 11
202.832
 21
67.9884
 31
0.0
  0
LINE
  8
0
 62
     0
 10
202.832
 20
67.9884
 30
0.0
 11
188.832
 21
67.9884
 31
0.0
  0
LINE
  8
0
 62
     0
 10
169.782
 20
67.9884
 30
0.0
 11
169.782
 21
66.9879
 31
0.0
  0
LINE
  8
0
 62
     0
 10
169.782
 20
66.9879
 30
0.0
 11
168.982
 21
66.9879
 31
0.0
  0
LINE
  8
0
 62
     0
 10
168.982
 20
66.9879
 30
0.0
 11
168.982
 21
63.8874
 31
0.0
  0
LINE
  8
0
 62
     0
 10
168.982
 20
63.8874
 30
0.0
 11
169.782
 21
63.8874
 31
0.0
  0
LINE
  8
0
 62
     0
 10
169.782
 20
63.8874
 30
0.0
 11
169.782
 21
58.0884
 31
0.0
  0
LINE
  8
0
 62
     0
 10
169.782
 20
58.0884
 30
0.0
 11
168.982
 21
58.0884
 31
0.0
  0
LINE
  8
0
 62
     0
 10
168.982
 20
58.0884
 30
0.0
 11
168.982
 21
54.9878
 31
0.0
  0
LINE
  8
0
 62
     0
 10
168.982
 20
54.9878
 30
0.0
 11
169.782
 21
54.9878
 31
0.0
  0
LINE
  8
0
 62
     0
 10
169.782
 20
54.9878
 30
0.0
 11
169.782
 21
53.9873
 31
0.0
  0
LINE
  8
0
 62
     0
 10
169.782
 20
53.9873
 30
0.0
 11
183.782
 21
53.9873
 31
0.0
  0
LINE
  8
0
 62
     0
 10
183.782
 20
53.9873
 30
0.0
 11
183.782
 21
54.9878
 31
0.0
  0
LINE
  8
0
 62
     0
 10
183.782
 20
54.9878
 30
0.0
 11
184.583
 21
54.9878
 31
0.0
  0
LINE
  8
0
 62
     0
 10
184.583
 20
54.9878
 30
0.0
 11
184.583
 21
58.0884
 31
0.0
  0
LINE
  8
0
 62
     0
 10
184.583
 20
58.0884
 30
0.0
 11
183.782
 21
58.0884
 31
0.0
  0
LINE
  8
0
 62
     0
 10
183.782
 20
58.0884
 30
0.0
 11
183.782
 21
63.8874
 31
0.0
  0
LINE
  8
0
 62
     0
 10
183.782
 20
63.8874
 30
0.0
 11
184.583
 21
63.8874
 31
0.0
  0
LINE
  8
0
 62
     0
 10
184.583
 20
63.8874
 30
0.0
 11
184.583
 21
66.9879
 31
0.0
  0
LINE
  8
0
 62
     0
 10
184.583
 20
66.9879
 30
0.0
 11
183.782
 21
66.9879
 31
0.0
  0
LINE
  8
0
 62
     0
 10
183.782
 20
66.9879
 30
0.0
 11
183.782
 21
67.9884
 31
0.0
  0
LINE
  8
0
 62
     0
 10
183.782
 20
67.9884
 30
0.0
 11
169.782
 21
67.9884
 31
0.0
  0
LINE
  8
0
 62
     0
 10
150.732
 20
67.9884
 30
0.0
 11
150.732
 21
66.9879
 31
0.0
  0
LINE
  8
0
 62
     0
 10
150.732
 20
66.9879
 30
0.0
 11
149.932
 21
66.9879
 31
0.0
  0
LINE
  8
0
 62
     0
 10
149.932
 20
66.9879
 30
0.0
 11
149.932
 21
63.8874
 31
0.0
  0
LINE
  8
0
 62
     0
 10
149.932
 20
63.8874
 30
0.0
 11
150.732
 21
63.8874
 31
0.0
  0
LINE
  8
0
 62
     0
 10
150.732
 20
63.8874
 30
0.0
 11
150.732
 21
58.0884
 31
0.0
  0
LINE
  8
0
 62
     0
 10
150.732
 20
58.0884
 30
0.0
 11
149.932
 21
58.0884
 31
0.0
  0
LINE
  8
0
 62
     0
 10
149.932
 20
58.0884
 30
0.0
 11
149.932
 21
54.9878
 31
0.0
  0
LINE
  8
0
 62
     0
 10
149.932
 20
54.9878
 30
0.0
 11
150.732
 21
54.9878
 31
0.0
  0
LINE
  8
0
 62
     0
 10
150.732
 20
54.9878
 30
0.0
 11
150.732
 21
53.9873
 31
0.0
  0
LINE
  8
0
 62
     0
 10
150.732
 20
53.9873
 30
0.0
 11
164.732
 21
53.9873
 31
0.0
  0
LINE
  8
0
 62
     0
 10
164.732
 20
53.9873
 30
0.0
 11
164.732
 21
54.9878
 31
0.0
  0
LINE
  8
0
 62
     0
 10
164.732
 20
54.9878
 30
0.0
 11
165.533
 21
54.9878
 31
0.0
  0
LINE
  8
0
 62
     0
 10
165.533
 20
54.9878
 30
0.0
 11
165.533
 21
58.0884
 31
0.0
  0
LINE
  8
0
 62
     0
 10
165.533
 20
58.0884
 30
0.0
 11
164.732
 21
58.0884
 31
0.0
  0
LINE
  8
0
 62
     0
 10
164.732
 20
58.0884
 30
0.0
 11
164.732
 21
63.8874
 31
0.0
  0
LINE
  8
0
 62
     0
 10
164.732
 20
63.8874
 30
0.0
 11
165.533
 21
63.8874
 31
0.0
  0
LINE
  8
0
 62
     0
 10
165.533
 20
63.8874
 30
0.0
 11
165.533
 21
66.9879
 31
0.0
  0
LINE
  8
0
 62
     0
 10
165.533
 20
66.9879
 30
0.0
 11
164.732
 21
66.9879
 31
0.0
  0
LINE
  8
0
 62
     0
 10
164.732
 20
66.9879
 30
0.0
 11
164.732
 21
67.9884
 31
0.0
  0
LINE
  8
0
 62
     0
 10
164.732
 20
67.9884
 30
0.0
 11
150.732
 21
67.9884
 31
0.0
  0
LINE
  8
0
 62
     0
 10
131.682
 20
67.9884
 30
0.0
 11
131.682
 21
66.9879
 31
0.0
  0
LINE
  8
0
 62
     0
 10
131.682
 20
66.9879
 30
0.0
 11
130.882
 21
66.9879
 31
0.0
  0
LINE
  8
0
 62
     0
 10
130.882
 20
66.9879
 30
0.0
 11
130.882
 21
63.8874
 31
0.0
  0
LINE
  8
0
 62
     0
 10
130.882
 20
63.8874
 30
0.0
 11
131.682
 21
63.8874
 31
0.0
  0
LINE
  8
0
 62
     0
 10
131.682
 20
63.8874
 30
0.0
 11
131.682
 21
58.0884
 31
0.0
  0
LINE
  8
0
 62
     0
 10
131.682
 20
58.0884
 30
0.0
 11
130.882
 21
58.0884
 31
0.0
  0
LINE
  8
0
 62
     0
 10
130.882
 20
58.0884
 30
0.0
 11
130.882
 21
54.9878
 31
0.0
  0
LINE
  8
0
 62
     0
 10
130.882
 20
54.9878
 30
0.0
 11
131.682
 21
54.9878
 31
0.0
  0
LINE
  8
0
 62
     0
 10
131.682
 20
54.9878
 30
0.0
 11
131.682
 21
53.9873
 31
0.0
  0
LINE
  8
0
 62
     0
 10
131.682
 20
53.9873
 30
0.0
 11
145.682
 21
53.9873
 31
0.0
  0
LINE
  8
0
 62
     0
 10
145.682
 20
53.9873
 30
0.0
 11
145.682
 21
54.9878
 31
0.0
  0
LINE
  8
0
 62
     0
 10
145.682
 20
54.9878
 30
0.0
 11
146.483
 21
54.9878
 31
0.0
  0
LINE
  8
0
 62
     0
 10
146.483
 20
54.9878
 30
0.0
 11
146.483
 21
58.0884
 31
0.0
  0
LINE
  8
0
 62
     0
 10
146.483
 20
58.0884
 30
0.0
 11
145.682
 21
58.0884
 31
0.0
  0
LINE
  8
0
 62
     0
 10
145.682
 20
58.0884
 30
0.0
 11
145.682
 21
63.8874
 31
0.0
  0
LINE
  8
0
 62
     0
 10
145.682
 20
63.8874
 30
0.0
 11
146.483
 21
63.8874
 31
0.0
  0
LINE
  8
0
 62
     0
 10
146.483
 20
63.8874
 30
0.0
 11
146.483
 21
66.9879
 31
0.0
  0
LINE
  8
0
 62
     0
 10
146.483
 20
66.9879
 30
0.0
 11
145.682
 21
66.9879
 31
0.0
  0
LINE
  8
0
 62
     0
 10
145.682
 20
66.9879
 30
0.0
 11
145.682
 21
67.9884
 31
0.0
  0
LINE
  8
0
 62
     0
 10
145.682
 20
67.9884
 30
0.0
 11
131.682
 21
67.9884
 31
0.0
  0
LINE
  8
0
 62
     0
 10
112.632
 20
67.9884
 30
0.0
 11
112.632
 21
66.9879
 31
0.0
  0
LINE
  8
0
 62
     0
 10
112.632
 20
66.9879
 30
0.0
 11
111.832
 21
66.9879
 31
0.0
  0
LINE
  8
0
 62
     0
 10
111.832
 20
66.9879
 30
0.0
 11
111.832
 21
63.8874
 31
0.0
  0
LINE
  8
0
 62
     0
 10
111.832
 20
63.8874
 30
0.0
 11
112.632
 21
63.8874
 31
0.0
  0
LINE
  8
0
 62
     0
 10
112.632
 20
63.8874
 30
0.0
 11
112.632
 21
58.0884
 31
0.0
  0
LINE
  8
0
 62
     0
 10
112.632
 20
58.0884
 30
0.0
 11
111.832
 21
58.0884
 31
0.0
  0
LINE
  8
0
 62
     0
 10
111.832
 20
58.0884
 30
0.0
 11
111.832
 21
54.9878
 31
0.0
  0
LINE
  8
0
 62
     0
 10
111.832
 20
54.9878
 30
0.0
 11
112.632
 21
54.9878
 31
0.0
  0
LINE
  8
0
 62
     0
 10
112.632
 20
54.9878
 30
0.0
 11
112.632
 21
53.9873
 31
0.0
  0
LINE
  8
0
 62
     0
 10
112.632
 20
53.9873
 30
0.0
 11
126.632
 21
53.9873
 31
0.0
  0
LINE
  8
0
 62
     0
 10
126.632
 20
53.9873
 30
0.0
 11
126.632
 21
54.9878
 31
0.0
  0
LINE
  8
0
 62
     0
 10
126.632
 20
54.9878
 30
0.0
 11
127.433
 21
54.9878
 31
0.0
  0
LINE
  8
0
 62
     0
 10
127.433
 20
54.9878
 30
0.0
 11
127.433
 21
58.0884
 31
0.0
  0
LINE
  8
0
 62
     0
 10
127.433
 20
58.0884
 30
0.0
 11
126.632
 21
58.0884
 31
0.0
  0
LINE
  8
0
 62
     0
 10
126.632
 20
58.0884
 30
0.0
 11
126.632
 21
63.8874
 31
0.0
  0
LINE
  8
0
 62
     0
 10
126.632
 20
63.8874
 30
0.0
 11
127.433
 21
63.8874
 31
0.0
  0
LINE
  8
0
 62
     0
 10
127.433
 20
63.8874
 30
0.0
 11
127.433
 21
66.9879
 31
0.0
  0
LINE
  8
0
 62
     0
 10
127.433
 20
66.9879
 30
0.0
 11
126.632
 21
66.9879
 31
0.0
  0
LINE
  8
0
 62
     0
 10
126.632
 20
66.9879
 30
0.0
 11
126.632
 21
67.9884
 31
0.0
  0
LINE
  8
0
 62
     0
 10
126.632
 20
67.9884
 30
0.0
 11
112.632
 21
67.9884
 31
0.0
  0
LINE
  8
0
 62
     0
 10
91.2012
 20
67.9884
 30
0.0
 11
91.2012
 21
66.9879
 31
0.0
  0
LINE
  8
0
 62
     0
 10
91.2012
 20
66.9879
 30
0.0
 11
90.4021
 21
66.9879
 31
0.0
  0
LINE
  8
0
 62
     0
 10
90.4021
 20
66.9879
 30
0.0
 11
90.4021
 21
63.8874
 31
0.0
  0
LINE
  8
0
 62
     0
 10
90.4021
 20
63.8874
 30
0.0
 11
91.2012
 21
63.8874
 31
0.0
  0
LINE
  8
0
 62
     0
 10
91.2012
 20
63.8874
 30
0.0
 11
91.2012
 21
58.0884
 31
0.0
  0
LINE
  8
0
 62
     0
 10
91.2012
 20
58.0884
 30
0.0
 11
90.4021
 21
58.0884
 31
0.0
  0
LINE
  8
0
 62
     0
 10
90.4021
 20
58.0884
 30
0.0
 11
90.4021
 21
54.9878
 31
0.0
  0
LINE
  8
0
 62
     0
 10
90.4021
 20
54.9878
 30
0.0
 11
91.2012
 21
54.9878
 31
0.0
  0
LINE
  8
0
 62
     0
 10
91.2012
 20
54.9878
 30
0.0
 11
91.2012
 21
53.9873
 31
0.0
  0
LINE
  8
0
 62
     0
 10
91.2012
 20
53.9873
 30
0.0
 11
105.201
 21
53.9873
 31
0.0
  0
LINE
  8
0
 62
     0
 10
105.201
 20
53.9873
 30
0.0
 11
105.201
 21
54.9878
 31
0.0
  0
LINE
  8
0
 62
     0
 10
105.201
 20
54.9878
 30
0.0
 11
106.002
 21
54.9878
 31
0.0
  0
LINE
  8
0
 62
     0
 10
106.002
 20
54.9878
 30
0.0
 11
106.002
 21
58.0884
 31
0.0
  0
LINE
  8
0
 62
     0
 10
106.002
 20
58.0884
 30
0.0
 11
105.201
 21
58.0884
 31
0.0
  0
LINE
  8
0
 62
     0
 10
105.201
 20
58.0884
 30
0.0
 11
105.201
 21
63.8874
 31
0.0
  0
LINE
  8
0
 62
     0
 10
105.201
 20
63.8874
 30
0.0
 11
106.002
 21
63.8874
 31
0.0
  0
LINE
  8
0
 62
     0
 10
106.002
 20
63.8874
 30
0.0
 11
106.002
 21
66.9879
 31
0.0
  0
LINE
  8
0
 62
     0
 10
106.002
 20
66.9879
 30
0.0
 11
105.201
 21
66.9879
 31
0.0
  0
LINE
  8
0
 62
     0
 10
105.201
 20
66.9879
 30
0.0
 11
105.201
 21
67.9884
 31
0.0
  0
LINE
  8
0
 62
     0
 10
105.201
 20
67.9884
 30
0.0
 11
91.2012
 21
67.9884
 31
0.0
  0
LINE
  8
0
 62
     0
 10
69.7699
 20
67.9884
 30
0.0
 11
69.7699
 21
66.9879
 31
0.0
  0
LINE
  8
0
 62
     0
 10
69.7699
 20
66.9879
 30
0.0
 11
68.9709
 21
66.9879
 31
0.0
  0
LINE
  8
0
 62
     0
 10
68.9709
 20
66.9879
 30
0.0
 11
68.9709
 21
63.8874
 31
0.0
  0
LINE
  8
0
 62
     0
 10
68.9709
 20
63.8874
 30
0.0
 11
69.7699
 21
63.8874
 31
0.0
  0
LINE
  8
0
 62
     0
 10
69.7699
 20
63.8874
 30
0.0
 11
69.7699
 21
58.0884
 31
0.0
  0
LINE
  8
0
 62
     0
 10
69.7699
 20
58.0884
 30
0.0
 11
68.9709
 21
58.0884
 31
0.0
  0
LINE
  8
0
 62
     0
 10
68.9709
 20
58.0884
 30
0.0
 11
68.9709
 21
54.9878
 31
0.0
  0
LINE
  8
0
 62
     0
 10
68.9709
 20
54.9878
 30
0.0
 11
69.7699
 21
54.9878
 31
0.0
  0
LINE
  8
0
 62
     0
 10
69.7699
 20
54.9878
 30
0.0
 11
69.7699
 21
53.9873
 31
0.0
  0
LINE
  8
0
 62
     0
 10
69.7699
 20
53.9873
 30
0.0
 11
83.771
 21
53.9873
 31
0.0
  0
LINE
  8
0
 62
     0
 10
83.771
 20
53.9873
 30
0.0
 11
83.771
 21
54.9878
 31
0.0
  0
LINE
  8
0
 62
     0
 10
83.771
 20
54.9878
 30
0.0
 11
84.5704
 21
54.9878
 31
0.0
  0
LINE
  8
0
 62
     0
 10
84.5704
 20
54.9878
 30
0.0
 11
84.5704
 21
58.0884
 31
0.0
  0
LINE
  8
0
 62
     0
 10
84.5704
 20
58.0884
 30
0.0
 11
83.771
 21
58.0884
 31
0.0
  0
LINE
  8
0
 62
     0
 10
83.771
 20
58.0884
 30
0.0
 11
83.771
 21
63.8874
 31
0.0
  0
LINE
  8
0
 62
     0
 10
83.771
 20
63.8874
 30
0.0
 11
84.5704
 21
63.8874
 31
0.0
  0
LINE
  8
0
 62
     0
 10
84.5704
 20
63.8874
 30
0.0
 11
84.5704
 21
66.9879
 31
0.0
  0
LINE
  8
0
 62
     0
 10
84.5704
 20
66.9879
 30
0.0
 11
83.771
 21
66.9879
 31
0.0
  0
LINE
  8
0
 62
     0
 10
83.771
 20
66.9879
 30
0.0
 11
83.771
 21
67.9884
 31
0.0
  0
LINE
  8
0
 62
     0
 10
83.771
 20
67.9884
 30
0.0
 11
69.7699
 21
67.9884
 31
0.0
  0
LINE
  8
0
 62
     0
 10
50.7199
 20
67.9884
 30
0.0
 11
50.7199
 21
66.9879
 31
0.0
  0
LINE
  8
0
 62
     0
 10
50.7199
 20
66.9879
 30
0.0
 11
49.9209
 21
66.9879
 31
0.0
  0
LINE
  8
0
 62
     0
 10
49.9209
 20
66.9879
 30
0.0
 11
49.9209
 21
63.8874
 31
0.0
  0
LINE
  8
0
 62
     0
 10
49.9209
 20
63.8874
 30
0.0
 11
50.7199
 21
63.8874
 31
0.0
  0
LINE
  8
0
 62
     0
 10
50.7199
 20
63.8874
 30
0.0
 11
50.7199
 21
58.0884
 31
0.0
  0
LINE
  8
0
 62
     0
 10
50.7199
 20
58.0884
 30
0.0
 11
49.9209
 21
58.0884
 31
0.0
  0
LINE
  8
0
 62
     0
 10
49.9209
 20
58.0884
 30
0.0
 11
49.9209
 21
54.9878
 31
0.0
  0
LINE
  8
0
 62
     0
 10
49.9209
 20
54.9878
 30
0.0
 11
50.7199
 21
54.9878
 31
0.0
  0
LINE
  8
0
 62
     0
 10
50.7199
 20
54.9878
 30
0.0
 11
50.7199
 21
53.9873
 31
0.0
  0
LINE
  8
0
 62
     0
 10
50.7199
 20
53.9873
 30
0.0
 11
64.721
 21
53.9873
 31
0.0
  0
LINE
  8
0
 62
     0
 10
64.721
 20
53.9873
 30
0.0
 11
64.721
 21
54.9878
 31
0.0
  0
LINE
  8
0
 62
     0
 10
64.721
 20
54.9878
 30
0.0
 11
65.5204
 21
54.9878
 31
0.0
  0
LINE
  8
0
 62
     0
 10
65.5204
 20
54.9878
 30
0.0
 11
65.5204
 21
58.0884
 31
0.0
  0
LINE
  8
0
 62
     0
 10
65.5204
 20
58.0884
 30
0.0
 11
64.721
 21
58.0884
 31
0.0
  0
LINE
  8
0
 62
     0
 10
64.721
 20
58.0884
 30
0.0
 11
64.721
 21
63.8874
 31
0.0
  0
LINE
  8
0
 62
     0
 10
64.721
 20
63.8874
 30
0.0
 11
65.5204
 21
63.8874
 31
0.0
  0
LINE
  8
0
 62
     0
 10
65.5204
 20
63.8874
 30
0.0
 11
65.5204
 21
66.9879
 31
0.0
  0
LINE
  8
0
 62
     0
 10
65.5204
 20
66.9879
 30
0.0
 11
64.721
 21
66.9879
 31
0.0
  0
LINE
  8
0
 62
     0
 10
64.721
 20
66.9879
 30
0.0
 11
64.721
 21
67.9884
 31
0.0
  0
LINE
  8
0
 62
     0
 10
64.721
 20
67.9884
 30
0.0
 11
50.7199
 21
67.9884
 31
0.0
  0
LINE
  8
0
 62
     0
 10
31.6701
 20
67.9884
 30
0.0
 11
31.6701
 21
66.9879
 31
0.0
  0
LINE
  8
0
 62
     0
 10
31.6701
 20
66.9879
 30
0.0
 11
30.8708
 21
66.9879
 31
0.0
  0
LINE
  8
0
 62
     0
 10
30.8708
 20
66.9879
 30
0.0
 11
30.8708
 21
63.8874
 31
0.0
  0
LINE
  8
0
 62
     0
 10
30.8708
 20
63.8874
 30
0.0
 11
31.6701
 21
63.8874
 31
0.0
  0
LINE
  8
0
 62
     0
 10
31.6701
 20
63.8874
 30
0.0
 11
31.6701
 21
58.0884
 31
0.0
  0
LINE
  8
0
 62
     0
 10
31.6701
 20
58.0884
 30
0.0
 11
30.8708
 21
58.0884
 31
0.0
  0
LINE
  8
0
 62
     0
 10
30.8708
 20
58.0884
 30
0.0
 11
30.8708
 21
54.9878
 31
0.0
  0
LINE
  8
0
 62
     0
 10
30.8708
 20
54.9878
 30
0.0
 11
31.6701
 21
54.9878
 31
0.0
  0
LINE
  8
0
 62
     0
 10
31.6701
 20
54.9878
 30
0.0
 11
31.6701
 21
53.9873
 31
0.0
  0
LINE
  8
0
 62
     0
 10
31.6701
 20
53.9873
 30
0.0
 11
45.671
 21
53.9873
 31
0.0
  0
LINE
  8
0
 62
     0
 10
45.671
 20
53.9873
 30
0.0
 11
45.671
 21
54.9878
 31
0.0
  0
LINE
  8
0
 62
     0
 10
45.671
 20
54.9878
 30
0.0
 11
46.4704
 21
54.9878
 31
0.0
  0
LINE
  8
0
 62
     0
 10
46.4704
 20
54.9878
 30
0.0
 11
46.4704
 21
58.0884
 31
0.0
  0
LINE
  8
0
 62
     0
 10
46.4704
 20
58.0884
 30
0.0
 11
45.671
 21
58.0884
 31
0.0
  0
LINE
  8
0
 62
     0
 10
45.671
 20
58.0884
 30
0.0
 11
45.671
 21
63.8874
 31
0.0
  0
LINE
  8
0
 62
     0
 10
45.671
 20
63.8874
 30
0.0
 11
46.4704
 21
63.8874
 31
0.0
  0
LINE
  8
0
 62
     0
 10
46.4704
 20
63.8874
 30
0.0
 11
46.4704
 21
66.9879
 31
0.0
  0
LINE
  8
0
 62
     0
 10
46.4704
 20
66.9879
 30
0.0
 11
45.671
 21
66.9879
 31
0.0
  0
LINE
  8
0
 62
     0
 10
45.671
 20
66.9879
 30
0.0
 11
45.671
 21
67.9884
 31
0.0
  0
LINE
  8
0
 62
     0
 10
45.671
 20
67.9884
 30
0.0
 11
31.6701
 21
67.9884
 31
0.0
  0
LINE
  8
0
 62
     0
 10
12.6201
 20
67.9884
 30
0.0
 11
12.6201
 21
66.9879
 31
0.0
  0
LINE
  8
0
 62
     0
 10
12.6201
 20
66.9879
 30
0.0
 11
11.8194
 21
66.9879
 31
0.0
  0
LINE
  8
0
 62
     0
 10
11.8194
 20
66.9879
 30
0.0
 11
11.8194
 21
63.8874
 31
0.0
  0
LINE
  8
0
 62
     0
 10
11.8194
 20
63.8874
 30
0.0
 11
12.6201
 21
63.8874
 31
0.0
  0
LINE
  8
0
 62
     0
 10
12.6201
 20
63.8874
 30
0.0
 11
12.6201
 21
58.0884
 31
0.0
  0
LINE
  8
0
 62
     0
 10
12.6201
 20
58.0884
 30
0.0
 11
11.8194
 21
58.0884
 31
0.0
  0
LINE
  8
0
 62
     0
 10
11.8194
 20
58.0884
 30
0.0
 11
11.8194
 21
54.9878
 31
0.0
  0
LINE
  8
0
 62
     0
 10
11.8194
 20
54.9878
 30
0.0
 11
12.6201
 21
54.9878
 31
0.0
  0
LINE
  8
0
 62
     0
 10
12.6201
 20
54.9878
 30
0.0
 11
12.6201
 21
53.9873
 31
0.0
  0
LINE
  8
0
 62
     0
 10
12.6201
 20
53.9873
 30
0.0
 11
26.6209
 21
53.9873
 31
0.0
  0
LINE
  8
0
 62
     0
 10
26.6209
 20
53.9873
 30
0.0
 11
26.6209
 21
54.9878
 31
0.0
  0
LINE
  8
0
 62
     0
 10
26.6209
 20
54.9878
 30
0.0
 11
27.4188
 21
54.9878
 31
0.0
  0
LINE
  8
0
 62
     0
 10
27.4188
 20
54.9878
 30
0.0
 11
27.4188
 21
58.0884
 31
0.0
  0
LINE
  8
0
 62
     0
 10
27.4188
 20
58.0884
 30
0.0
 11
26.6209
 21
58.0884
 31
0.0
  0
LINE
  8
0
 62
     0
 10
26.6209
 20
58.0884
 30
0.0
 11
26.6209
 21
63.8874
 31
0.0
  0
LINE
  8
0
 62
     0
 10
26.6209
 20
63.8874
 30
0.0
 11
27.4188
 21
63.8874
 31
0.0
  0
LINE
  8
0
 62
     0
 10
27.4188
 20
63.8874
 30
0.0
 11
27.4188
 21
66.9879
 31
0.0
  0
LINE
  8
0
 62
     0
 10
27.4188
 20
66.9879
 30
0.0
 11
26.6209
 21
66.9879
 31
0.0
  0
LINE
  8
0
 62
     0
 10
26.6209
 20
66.9879
 30
0.0
 11
26.6209
 21
67.9884
 31
0.0
  0
LINE
  8
0
 62
     0
 10
26.6209
 20
67.9884
 30
0.0
 11
12.6201
 21
67.9884
 31
0.0
  0
LINE
  8
0
 62
     0
 10
303.132
 20
87.0384
 30
0.0
 11
303.132
 21
86.0379
 31
0.0
  0
LINE
  8
0
 62
     0
 10
303.132
 20
86.0379
 30
0.0
 11
302.332
 21
86.0379
 31
0.0
  0
LINE
  8
0
 62
     0
 10
302.332
 20
86.0379
 30
0.0
 11
302.332
 21
82.9374
 31
0.0
  0
LINE
  8
0
 62
     0
 10
302.332
 20
82.9374
 30
0.0
 11
303.132
 21
82.9374
 31
0.0
  0
LINE
  8
0
 62
     0
 10
303.132
 20
82.9374
 30
0.0
 11
303.132
 21
77.1384
 31
0.0
  0
LINE
  8
0
 62
     0
 10
303.132
 20
77.1384
 30
0.0
 11
302.332
 21
77.1384
 31
0.0
  0
LINE
  8
0
 62
     0
 10
302.332
 20
77.1384
 30
0.0
 11
302.332
 21
74.0378
 31
0.0
  0
LINE
  8
0
 62
     0
 10
302.332
 20
74.0378
 30
0.0
 11
303.132
 21
74.0378
 31
0.0
  0
LINE
  8
0
 62
     0
 10
303.132
 20
74.0378
 30
0.0
 11
303.132
 21
73.0373
 31
0.0
  0
LINE
  8
0
 62
     0
 10
303.132
 20
73.0373
 30
0.0
 11
317.132
 21
73.0373
 31
0.0
  0
LINE
  8
0
 62
     0
 10
317.132
 20
73.0373
 30
0.0
 11
317.132
 21
74.0378
 31
0.0
  0
LINE
  8
0
 62
     0
 10
317.132
 20
74.0378
 30
0.0
 11
317.933
 21
74.0378
 31
0.0
  0
LINE
  8
0
 62
     0
 10
317.933
 20
74.0378
 30
0.0
 11
317.933
 21
77.1384
 31
0.0
  0
LINE
  8
0
 62
     0
 10
317.933
 20
77.1384
 30
0.0
 11
317.132
 21
77.1384
 31
0.0
  0
LINE
  8
0
 62
     0
 10
317.132
 20
77.1384
 30
0.0
 11
317.132
 21
82.9374
 31
0.0
  0
LINE
  8
0
 62
     0
 10
317.132
 20
82.9374
 30
0.0
 11
317.933
 21
82.9374
 31
0.0
  0
LINE
  8
0
 62
     0
 10
317.933
 20
82.9374
 30
0.0
 11
317.933
 21
86.0379
 31
0.0
  0
LINE
  8
0
 62
     0
 10
317.933
 20
86.0379
 30
0.0
 11
317.132
 21
86.0379
 31
0.0
  0
LINE
  8
0
 62
     0
 10
317.132
 20
86.0379
 30
0.0
 11
317.132
 21
87.0384
 31
0.0
  0
LINE
  8
0
 62
     0
 10
317.132
 20
87.0384
 30
0.0
 11
303.132
 21
87.0384
 31
0.0
  0
LINE
  8
0
 62
     0
 10
279.32
 20
87.0384
 30
0.0
 11
279.32
 21
86.0379
 31
0.0
  0
LINE
  8
0
 62
     0
 10
279.32
 20
86.0379
 30
0.0
 11
278.521
 21
86.0379
 31
0.0
  0
LINE
  8
0
 62
     0
 10
278.521
 20
86.0379
 30
0.0
 11
278.521
 21
82.9374
 31
0.0
  0
LINE
  8
0
 62
     0
 10
278.521
 20
82.9374
 30
0.0
 11
279.32
 21
82.9374
 31
0.0
  0
LINE
  8
0
 62
     0
 10
279.32
 20
82.9374
 30
0.0
 11
279.32
 21
77.1384
 31
0.0
  0
LINE
  8
0
 62
     0
 10
279.32
 20
77.1384
 30
0.0
 11
278.521
 21
77.1384
 31
0.0
  0
LINE
  8
0
 62
     0
 10
278.521
 20
77.1384
 30
0.0
 11
278.521
 21
74.0378
 31
0.0
  0
LINE
  8
0
 62
     0
 10
278.521
 20
74.0378
 30
0.0
 11
279.32
 21
74.0378
 31
0.0
  0
LINE
  8
0
 62
     0
 10
279.32
 20
74.0378
 30
0.0
 11
279.32
 21
73.0373
 31
0.0
  0
LINE
  8
0
 62
     0
 10
279.32
 20
73.0373
 30
0.0
 11
293.321
 21
73.0373
 31
0.0
  0
LINE
  8
0
 62
     0
 10
293.321
 20
73.0373
 30
0.0
 11
293.321
 21
74.0378
 31
0.0
  0
LINE
  8
0
 62
     0
 10
293.321
 20
74.0378
 30
0.0
 11
294.12
 21
74.0378
 31
0.0
  0
LINE
  8
0
 62
     0
 10
294.12
 20
74.0378
 30
0.0
 11
294.12
 21
77.1384
 31
0.0
  0
LINE
  8
0
 62
     0
 10
294.12
 20
77.1384
 30
0.0
 11
293.321
 21
77.1384
 31
0.0
  0
LINE
  8
0
 62
     0
 10
293.321
 20
77.1384
 30
0.0
 11
293.321
 21
82.9374
 31
0.0
  0
LINE
  8
0
 62
     0
 10
293.321
 20
82.9374
 30
0.0
 11
294.12
 21
82.9374
 31
0.0
  0
LINE
  8
0
 62
     0
 10
294.12
 20
82.9374
 30
0.0
 11
294.12
 21
86.0379
 31
0.0
  0
LINE
  8
0
 62
     0
 10
294.12
 20
86.0379
 30
0.0
 11
293.321
 21
86.0379
 31
0.0
  0
LINE
  8
0
 62
     0
 10
293.321
 20
86.0379
 30
0.0
 11
293.321
 21
87.0384
 31
0.0
  0
LINE
  8
0
 62
     0
 10
293.321
 20
87.0384
 30
0.0
 11
279.32
 21
87.0384
 31
0.0
  0
LINE
  8
0
 62
     0
 10
260.27
 20
87.0384
 30
0.0
 11
260.27
 21
86.0379
 31
0.0
  0
LINE
  8
0
 62
     0
 10
260.27
 20
86.0379
 30
0.0
 11
259.471
 21
86.0379
 31
0.0
  0
LINE
  8
0
 62
     0
 10
259.471
 20
86.0379
 30
0.0
 11
259.471
 21
82.9374
 31
0.0
  0
LINE
  8
0
 62
     0
 10
259.471
 20
82.9374
 30
0.0
 11
260.27
 21
82.9374
 31
0.0
  0
LINE
  8
0
 62
     0
 10
260.27
 20
82.9374
 30
0.0
 11
260.27
 21
77.1384
 31
0.0
  0
LINE
  8
0
 62
     0
 10
260.27
 20
77.1384
 30
0.0
 11
259.471
 21
77.1384
 31
0.0
  0
LINE
  8
0
 62
     0
 10
259.471
 20
77.1384
 30
0.0
 11
259.471
 21
74.0378
 31
0.0
  0
LINE
  8
0
 62
     0
 10
259.471
 20
74.0378
 30
0.0
 11
260.27
 21
74.0378
 31
0.0
  0
LINE
  8
0
 62
     0
 10
260.27
 20
74.0378
 30
0.0
 11
260.27
 21
73.0373
 31
0.0
  0
LINE
  8
0
 62
     0
 10
260.27
 20
73.0373
 30
0.0
 11
274.271
 21
73.0373
 31
0.0
  0
LINE
  8
0
 62
     0
 10
274.271
 20
73.0373
 30
0.0
 11
274.271
 21
74.0378
 31
0.0
  0
LINE
  8
0
 62
     0
 10
274.271
 20
74.0378
 30
0.0
 11
275.07
 21
74.0378
 31
0.0
  0
LINE
  8
0
 62
     0
 10
275.07
 20
74.0378
 30
0.0
 11
275.07
 21
77.1384
 31
0.0
  0
LINE
  8
0
 62
     0
 10
275.07
 20
77.1384
 30
0.0
 11
274.271
 21
77.1384
 31
0.0
  0
LINE
  8
0
 62
     0
 10
274.271
 20
77.1384
 30
0.0
 11
274.271
 21
82.9374
 31
0.0
  0
LINE
  8
0
 62
     0
 10
274.271
 20
82.9374
 30
0.0
 11
275.07
 21
82.9374
 31
0.0
  0
LINE
  8
0
 62
     0
 10
275.07
 20
82.9374
 30
0.0
 11
275.07
 21
86.0379
 31
0.0
  0
LINE
  8
0
 62
     0
 10
275.07
 20
86.0379
 30
0.0
 11
274.271
 21
86.0379
 31
0.0
  0
LINE
  8
0
 62
     0
 10
274.271
 20
86.0379
 30
0.0
 11
274.271
 21
87.0384
 31
0.0
  0
LINE
  8
0
 62
     0
 10
274.271
 20
87.0384
 30
0.0
 11
260.27
 21
87.0384
 31
0.0
  0
LINE
  8
0
 62
     0
 10
241.22
 20
87.0384
 30
0.0
 11
241.22
 21
86.0379
 31
0.0
  0
LINE
  8
0
 62
     0
 10
241.22
 20
86.0379
 30
0.0
 11
240.421
 21
86.0379
 31
0.0
  0
LINE
  8
0
 62
     0
 10
240.421
 20
86.0379
 30
0.0
 11
240.421
 21
82.9374
 31
0.0
  0
LINE
  8
0
 62
     0
 10
240.421
 20
82.9374
 30
0.0
 11
241.22
 21
82.9374
 31
0.0
  0
LINE
  8
0
 62
     0
 10
241.22
 20
82.9374
 30
0.0
 11
241.22
 21
77.1384
 31
0.0
  0
LINE
  8
0
 62
     0
 10
241.22
 20
77.1384
 30
0.0
 11
240.421
 21
77.1384
 31
0.0
  0
LINE
  8
0
 62
     0
 10
240.421
 20
77.1384
 30
0.0
 11
240.421
 21
74.0378
 31
0.0
  0
LINE
  8
0
 62
     0
 10
240.421
 20
74.0378
 30
0.0
 11
241.22
 21
74.0378
 31
0.0
  0
LINE
  8
0
 62
     0
 10
241.22
 20
74.0378
 30
0.0
 11
241.22
 21
73.0373
 31
0.0
  0
LINE
  8
0
 62
     0
 10
241.22
 20
73.0373
 30
0.0
 11
255.221
 21
73.0373
 31
0.0
  0
LINE
  8
0
 62
     0
 10
255.221
 20
73.0373
 30
0.0
 11
255.221
 21
74.0378
 31
0.0
  0
LINE
  8
0
 62
     0
 10
255.221
 20
74.0378
 30
0.0
 11
256.02
 21
74.0378
 31
0.0
  0
LINE
  8
0
 62
     0
 10
256.02
 20
74.0378
 30
0.0
 11
256.02
 21
77.1384
 31
0.0
  0
LINE
  8
0
 62
     0
 10
256.02
 20
77.1384
 30
0.0
 11
255.221
 21
77.1384
 31
0.0
  0
LINE
  8
0
 62
     0
 10
255.221
 20
77.1384
 30
0.0
 11
255.221
 21
82.9374
 31
0.0
  0
LINE
  8
0
 62
     0
 10
255.221
 20
82.9374
 30
0.0
 11
256.02
 21
82.9374
 31
0.0
  0
LINE
  8
0
 62
     0
 10
256.02
 20
82.9374
 30
0.0
 11
256.02
 21
86.0379
 31
0.0
  0
LINE
  8
0
 62
     0
 10
256.02
 20
86.0379
 30
0.0
 11
255.221
 21
86.0379
 31
0.0
  0
LINE
  8
0
 62
     0
 10
255.221
 20
86.0379
 30
0.0
 11
255.221
 21
87.0384
 31
0.0
  0
LINE
  8
0
 62
     0
 10
255.221
 20
87.0384
 30
0.0
 11
241.22
 21
87.0384
 31
0.0
  0
LINE
  8
0
 62
     0
 10
222.17
 20
87.0384
 30
0.0
 11
222.17
 21
86.0379
 31
0.0
  0
LINE
  8
0
 62
     0
 10
222.17
 20
86.0379
 30
0.0
 11
221.371
 21
86.0379
 31
0.0
  0
LINE
  8
0
 62
     0
 10
221.371
 20
86.0379
 30
0.0
 11
221.371
 21
82.9374
 31
0.0
  0
LINE
  8
0
 62
     0
 10
221.371
 20
82.9374
 30
0.0
 11
222.17
 21
82.9374
 31
0.0
  0
LINE
  8
0
 62
     0
 10
222.17
 20
82.9374
 30
0.0
 11
222.17
 21
77.1384
 31
0.0
  0
LINE
  8
0
 62
     0
 10
222.17
 20
77.1384
 30
0.0
 11
221.371
 21
77.1384
 31
0.0
  0
LINE
  8
0
 62
     0
 10
221.371
 20
77.1384
 30
0.0
 11
221.371
 21
74.0378
 31
0.0
  0
LINE
  8
0
 62
     0
 10
221.371
 20
74.0378
 30
0.0
 11
222.17
 21
74.0378
 31
0.0
  0
LINE
  8
0
 62
     0
 10
222.17
 20
74.0378
 30
0.0
 11
222.17
 21
73.0373
 31
0.0
  0
LINE
  8
0
 62
     0
 10
222.17
 20
73.0373
 30
0.0
 11
236.171
 21
73.0373
 31
0.0
  0
LINE
  8
0
 62
     0
 10
236.171
 20
73.0373
 30
0.0
 11
236.171
 21
74.0378
 31
0.0
  0
LINE
  8
0
 62
     0
 10
236.171
 20
74.0378
 30
0.0
 11
236.97
 21
74.0378
 31
0.0
  0
LINE
  8
0
 62
     0
 10
236.97
 20
74.0378
 30
0.0
 11
236.97
 21
77.1384
 31
0.0
  0
LINE
  8
0
 62
     0
 10
236.97
 20
77.1384
 30
0.0
 11
236.171
 21
77.1384
 31
0.0
  0
LINE
  8
0
 62
     0
 10
236.171
 20
77.1384
 30
0.0
 11
236.171
 21
82.9374
 31
0.0
  0
LINE
  8
0
 62
     0
 10
236.171
 20
82.9374
 30
0.0
 11
236.97
 21
82.9374
 31
0.0
  0
LINE
  8
0
 62
     0
 10
236.97
 20
82.9374
 30
0.0
 11
236.97
 21
86.0379
 31
0.0
  0
LINE
  8
0
 62
     0
 10
236.97
 20
86.0379
 30
0.0
 11
236.171
 21
86.0379
 31
0.0
  0
LINE
  8
0
 62
     0
 10
236.171
 20
86.0379
 30
0.0
 11
236.171
 21
87.0384
 31
0.0
  0
LINE
  8
0
 62
     0
 10
236.171
 20
87.0384
 30
0.0
 11
222.17
 21
87.0384
 31
0.0
  0
LINE
  8
0
 62
     0
 10
203.12
 20
87.0384
 30
0.0
 11
203.12
 21
86.0379
 31
0.0
  0
LINE
  8
0
 62
     0
 10
203.12
 20
86.0379
 30
0.0
 11
202.321
 21
86.0379
 31
0.0
  0
LINE
  8
0
 62
     0
 10
202.321
 20
86.0379
 30
0.0
 11
202.321
 21
82.9374
 31
0.0
  0
LINE
  8
0
 62
     0
 10
202.321
 20
82.9374
 30
0.0
 11
203.12
 21
82.9374
 31
0.0
  0
LINE
  8
0
 62
     0
 10
203.12
 20
82.9374
 30
0.0
 11
203.12
 21
77.1384
 31
0.0
  0
LINE
  8
0
 62
     0
 10
203.12
 20
77.1384
 30
0.0
 11
202.321
 21
77.1384
 31
0.0
  0
LINE
  8
0
 62
     0
 10
202.321
 20
77.1384
 30
0.0
 11
202.321
 21
74.0378
 31
0.0
  0
LINE
  8
0
 62
     0
 10
202.321
 20
74.0378
 30
0.0
 11
203.12
 21
74.0378
 31
0.0
  0
LINE
  8
0
 62
     0
 10
203.12
 20
74.0378
 30
0.0
 11
203.12
 21
73.0373
 31
0.0
  0
LINE
  8
0
 62
     0
 10
203.12
 20
73.0373
 30
0.0
 11
217.121
 21
73.0373
 31
0.0
  0
LINE
  8
0
 62
     0
 10
217.121
 20
73.0373
 30
0.0
 11
217.121
 21
74.0378
 31
0.0
  0
LINE
  8
0
 62
     0
 10
217.121
 20
74.0378
 30
0.0
 11
217.92
 21
74.0378
 31
0.0
  0
LINE
  8
0
 62
     0
 10
217.92
 20
74.0378
 30
0.0
 11
217.92
 21
77.1384
 31
0.0
  0
LINE
  8
0
 62
     0
 10
217.92
 20
77.1384
 30
0.0
 11
217.121
 21
77.1384
 31
0.0
  0
LINE
  8
0
 62
     0
 10
217.121
 20
77.1384
 30
0.0
 11
217.121
 21
82.9374
 31
0.0
  0
LINE
  8
0
 62
     0
 10
217.121
 20
82.9374
 30
0.0
 11
217.92
 21
82.9374
 31
0.0
  0
LINE
  8
0
 62
     0
 10
217.92
 20
82.9374
 30
0.0
 11
217.92
 21
86.0379
 31
0.0
  0
LINE
  8
0
 62
     0
 10
217.92
 20
86.0379
 30
0.0
 11
217.121
 21
86.0379
 31
0.0
  0
LINE
  8
0
 62
     0
 10
217.121
 20
86.0379
 30
0.0
 11
217.121
 21
87.0384
 31
0.0
  0
LINE
  8
0
 62
     0
 10
217.121
 20
87.0384
 30
0.0
 11
203.12
 21
87.0384
 31
0.0
  0
LINE
  8
0
 62
     0
 10
184.07
 20
87.0384
 30
0.0
 11
184.07
 21
86.0379
 31
0.0
  0
LINE
  8
0
 62
     0
 10
184.07
 20
86.0379
 30
0.0
 11
183.271
 21
86.0379
 31
0.0
  0
LINE
  8
0
 62
     0
 10
183.271
 20
86.0379
 30
0.0
 11
183.271
 21
82.9374
 31
0.0
  0
LINE
  8
0
 62
     0
 10
183.271
 20
82.9374
 30
0.0
 11
184.07
 21
82.9374
 31
0.0
  0
LINE
  8
0
 62
     0
 10
184.07
 20
82.9374
 30
0.0
 11
184.07
 21
77.1384
 31
0.0
  0
LINE
  8
0
 62
     0
 10
184.07
 20
77.1384
 30
0.0
 11
183.271
 21
77.1384
 31
0.0
  0
LINE
  8
0
 62
     0
 10
183.271
 20
77.1384
 30
0.0
 11
183.271
 21
74.0378
 31
0.0
  0
LINE
  8
0
 62
     0
 10
183.271
 20
74.0378
 30
0.0
 11
184.07
 21
74.0378
 31
0.0
  0
LINE
  8
0
 62
     0
 10
184.07
 20
74.0378
 30
0.0
 11
184.07
 21
73.0373
 31
0.0
  0
LINE
  8
0
 62
     0
 10
184.07
 20
73.0373
 30
0.0
 11
198.071
 21
73.0373
 31
0.0
  0
LINE
  8
0
 62
     0
 10
198.071
 20
73.0373
 30
0.0
 11
198.071
 21
74.0378
 31
0.0
  0
LINE
  8
0
 62
     0
 10
198.071
 20
74.0378
 30
0.0
 11
198.87
 21
74.0378
 31
0.0
  0
LINE
  8
0
 62
     0
 10
198.87
 20
74.0378
 30
0.0
 11
198.87
 21
77.1384
 31
0.0
  0
LINE
  8
0
 62
     0
 10
198.87
 20
77.1384
 30
0.0
 11
198.071
 21
77.1384
 31
0.0
  0
LINE
  8
0
 62
     0
 10
198.071
 20
77.1384
 30
0.0
 11
198.071
 21
82.9374
 31
0.0
  0
LINE
  8
0
 62
     0
 10
198.071
 20
82.9374
 30
0.0
 11
198.87
 21
82.9374
 31
0.0
  0
LINE
  8
0
 62
     0
 10
198.87
 20
82.9374
 30
0.0
 11
198.87
 21
86.0379
 31
0.0
  0
LINE
  8
0
 62
     0
 10
198.87
 20
86.0379
 30
0.0
 11
198.071
 21
86.0379
 31
0.0
  0
LINE
  8
0
 62
     0
 10
198.071
 20
86.0379
 30
0.0
 11
198.071
 21
87.0384
 31
0.0
  0
LINE
  8
0
 62
     0
 10
198.071
 20
87.0384
 30
0.0
 11
184.07
 21
87.0384
 31
0.0
  0
LINE
  8
0
 62
     0
 10
165.02
 20
87.0384
 30
0.0
 11
165.02
 21
86.0379
 31
0.0
  0
LINE
  8
0
 62
     0
 10
165.02
 20
86.0379
 30
0.0
 11
164.221
 21
86.0379
 31
0.0
  0
LINE
  8
0
 62
     0
 10
164.221
 20
86.0379
 30
0.0
 11
164.221
 21
82.9374
 31
0.0
  0
LINE
  8
0
 62
     0
 10
164.221
 20
82.9374
 30
0.0
 11
165.02
 21
82.9374
 31
0.0
  0
LINE
  8
0
 62
     0
 10
165.02
 20
82.9374
 30
0.0
 11
165.02
 21
77.1384
 31
0.0
  0
LINE
  8
0
 62
     0
 10
165.02
 20
77.1384
 30
0.0
 11
164.221
 21
77.1384
 31
0.0
  0
LINE
  8
0
 62
     0
 10
164.221
 20
77.1384
 30
0.0
 11
164.221
 21
74.0378
 31
0.0
  0
LINE
  8
0
 62
     0
 10
164.221
 20
74.0378
 30
0.0
 11
165.02
 21
74.0378
 31
0.0
  0
LINE
  8
0
 62
     0
 10
165.02
 20
74.0378
 30
0.0
 11
165.02
 21
73.0373
 31
0.0
  0
LINE
  8
0
 62
     0
 10
165.02
 20
73.0373
 30
0.0
 11
179.021
 21
73.0373
 31
0.0
  0
LINE
  8
0
 62
     0
 10
179.021
 20
73.0373
 30
0.0
 11
179.021
 21
74.0378
 31
0.0
  0
LINE
  8
0
 62
     0
 10
179.021
 20
74.0378
 30
0.0
 11
179.82
 21
74.0378
 31
0.0
  0
LINE
  8
0
 62
     0
 10
179.82
 20
74.0378
 30
0.0
 11
179.82
 21
77.1384
 31
0.0
  0
LINE
  8
0
 62
     0
 10
179.82
 20
77.1384
 30
0.0
 11
179.021
 21
77.1384
 31
0.0
  0
LINE
  8
0
 62
     0
 10
179.021
 20
77.1384
 30
0.0
 11
179.021
 21
82.9374
 31
0.0
  0
LINE
  8
0
 62
     0
 10
179.021
 20
82.9374
 30
0.0
 11
179.82
 21
82.9374
 31
0.0
  0
LINE
  8
0
 62
     0
 10
179.82
 20
82.9374
 30
0.0
 11
179.82
 21
86.0379
 31
0.0
  0
LINE
  8
0
 62
     0
 10
179.82
 20
86.0379
 30
0.0
 11
179.021
 21
86.0379
 31
0.0
  0
LINE
  8
0
 62
     0
 10
179.021
 20
86.0379
 30
0.0
 11
179.021
 21
87.0384
 31
0.0
  0
LINE
  8
0
 62
     0
 10
179.021
 20
87.0384
 30
0.0
 11
165.02
 21
87.0384
 31
0.0
  0
LINE
  8
0
 62
     0
 10
145.97
 20
87.0384
 30
0.0
 11
145.97
 21
86.0379
 31
0.0
  0
LINE
  8
0
 62
     0
 10
145.97
 20
86.0379
 30
0.0
 11
145.171
 21
86.0379
 31
0.0
  0
LINE
  8
0
 62
     0
 10
145.171
 20
86.0379
 30
0.0
 11
145.171
 21
82.9374
 31
0.0
  0
LINE
  8
0
 62
     0
 10
145.171
 20
82.9374
 30
0.0
 11
145.97
 21
82.9374
 31
0.0
  0
LINE
  8
0
 62
     0
 10
145.97
 20
82.9374
 30
0.0
 11
145.97
 21
77.1384
 31
0.0
  0
LINE
  8
0
 62
     0
 10
145.97
 20
77.1384
 30
0.0
 11
145.171
 21
77.1384
 31
0.0
  0
LINE
  8
0
 62
     0
 10
145.171
 20
77.1384
 30
0.0
 11
145.171
 21
74.0378
 31
0.0
  0
LINE
  8
0
 62
     0
 10
145.171
 20
74.0378
 30
0.0
 11
145.97
 21
74.0378
 31
0.0
  0
LINE
  8
0
 62
     0
 10
145.97
 20
74.0378
 30
0.0
 11
145.97
 21
73.0373
 31
0.0
  0
LINE
  8
0
 62
     0
 10
145.97
 20
73.0373
 30
0.0
 11
159.971
 21
73.0373
 31
0.0
  0
LINE
  8
0
 62
     0
 10
159.971
 20
73.0373
 30
0.0
 11
159.971
 21
74.0378
 31
0.0
  0
LINE
  8
0
 62
     0
 10
159.971
 20
74.0378
 30
0.0
 11
160.77
 21
74.0378
 31
0.0
  0
LINE
  8
0
 62
     0
 10
160.77
 20
74.0378
 30
0.0
 11
160.77
 21
77.1384
 31
0.0
  0
LINE
  8
0
 62
     0
 10
160.77
 20
77.1384
 30
0.0
 11
159.971
 21
77.1384
 31
0.0
  0
LINE
  8
0
 62
     0
 10
159.971
 20
77.1384
 30
0.0
 11
159.971
 21
82.9374
 31
0.0
  0
LINE
  8
0
 62
     0
 10
159.971
 20
82.9374
 30
0.0
 11
160.77
 21
82.9374
 31
0.0
  0
LINE
  8
0
 62
     0
 10
160.77
 20
82.9374
 30
0.0
 11
160.77
 21
86.0379
 31
0.0
  0
LINE
  8
0
 62
     0
 10
160.77
 20
86.0379
 30
0.0
 11
159.971
 21
86.0379
 31
0.0
  0
LINE
  8
0
 62
     0
 10
159.971
 20
86.0379
 30
0.0
 11
159.971
 21
87.0384
 31
0.0
  0
LINE
  8
0
 62
     0
 10
159.971
 20
87.0384
 30
0.0
 11
145.97
 21
87.0384
 31
0.0
  0
LINE
  8
0
 62
     0
 10
126.92
 20
87.0384
 30
0.0
 11
126.92
 21
86.0379
 31
0.0
  0
LINE
  8
0
 62
     0
 10
126.92
 20
86.0379
 30
0.0
 11
126.119
 21
86.0379
 31
0.0
  0
LINE
  8
0
 62
     0
 10
126.119
 20
86.0379
 30
0.0
 11
126.119
 21
82.9374
 31
0.0
  0
LINE
  8
0
 62
     0
 10
126.119
 20
82.9374
 30
0.0
 11
126.92
 21
82.9374
 31
0.0
  0
LINE
  8
0
 62
     0
 10
126.92
 20
82.9374
 30
0.0
 11
126.92
 21
77.1384
 31
0.0
  0
LINE
  8
0
 62
     0
 10
126.92
 20
77.1384
 30
0.0
 11
126.119
 21
77.1384
 31
0.0
  0
LINE
  8
0
 62
     0
 10
126.119
 20
77.1384
 30
0.0
 11
126.119
 21
74.0378
 31
0.0
  0
LINE
  8
0
 62
     0
 10
126.119
 20
74.0378
 30
0.0
 11
126.92
 21
74.0378
 31
0.0
  0
LINE
  8
0
 62
     0
 10
126.92
 20
74.0378
 30
0.0
 11
126.92
 21
73.0373
 31
0.0
  0
LINE
  8
0
 62
     0
 10
126.92
 20
73.0373
 30
0.0
 11
140.921
 21
73.0373
 31
0.0
  0
LINE
  8
0
 62
     0
 10
140.921
 20
73.0373
 30
0.0
 11
140.921
 21
74.0378
 31
0.0
  0
LINE
  8
0
 62
     0
 10
140.921
 20
74.0378
 30
0.0
 11
141.72
 21
74.0378
 31
0.0
  0
LINE
  8
0
 62
     0
 10
141.72
 20
74.0378
 30
0.0
 11
141.72
 21
77.1384
 31
0.0
  0
LINE
  8
0
 62
     0
 10
141.72
 20
77.1384
 30
0.0
 11
140.921
 21
77.1384
 31
0.0
  0
LINE
  8
0
 62
     0
 10
140.921
 20
77.1384
 30
0.0
 11
140.921
 21
82.9374
 31
0.0
  0
LINE
  8
0
 62
     0
 10
140.921
 20
82.9374
 30
0.0
 11
141.72
 21
82.9374
 31
0.0
  0
LINE
  8
0
 62
     0
 10
141.72
 20
82.9374
 30
0.0
 11
141.72
 21
86.0379
 31
0.0
  0
LINE
  8
0
 62
     0
 10
141.72
 20
86.0379
 30
0.0
 11
140.921
 21
86.0379
 31
0.0
  0
LINE
  8
0
 62
     0
 10
140.921
 20
86.0379
 30
0.0
 11
140.921
 21
87.0384
 31
0.0
  0
LINE
  8
0
 62
     0
 10
140.921
 20
87.0384
 30
0.0
 11
126.92
 21
87.0384
 31
0.0
  0
LINE
  8
0
 62
     0
 10
107.87
 20
87.0384
 30
0.0
 11
107.87
 21
86.0379
 31
0.0
  0
LINE
  8
0
 62
     0
 10
107.87
 20
86.0379
 30
0.0
 11
107.071
 21
86.0379
 31
0.0
  0
LINE
  8
0
 62
     0
 10
107.071
 20
86.0379
 30
0.0
 11
107.071
 21
82.9374
 31
0.0
  0
LINE
  8
0
 62
     0
 10
107.071
 20
82.9374
 30
0.0
 11
107.87
 21
82.9374
 31
0.0
  0
LINE
  8
0
 62
     0
 10
107.87
 20
82.9374
 30
0.0
 11
107.87
 21
77.1384
 31
0.0
  0
LINE
  8
0
 62
     0
 10
107.87
 20
77.1384
 30
0.0
 11
107.071
 21
77.1384
 31
0.0
  0
LINE
  8
0
 62
     0
 10
107.071
 20
77.1384
 30
0.0
 11
107.071
 21
74.0378
 31
0.0
  0
LINE
  8
0
 62
     0
 10
107.071
 20
74.0378
 30
0.0
 11
107.87
 21
74.0378
 31
0.0
  0
LINE
  8
0
 62
     0
 10
107.87
 20
74.0378
 30
0.0
 11
107.87
 21
73.0373
 31
0.0
  0
LINE
  8
0
 62
     0
 10
107.87
 20
73.0373
 30
0.0
 11
121.87
 21
73.0373
 31
0.0
  0
LINE
  8
0
 62
     0
 10
121.87
 20
73.0373
 30
0.0
 11
121.87
 21
74.0378
 31
0.0
  0
LINE
  8
0
 62
     0
 10
121.87
 20
74.0378
 30
0.0
 11
122.669
 21
74.0378
 31
0.0
  0
LINE
  8
0
 62
     0
 10
122.669
 20
74.0378
 30
0.0
 11
122.669
 21
77.1384
 31
0.0
  0
LINE
  8
0
 62
     0
 10
122.669
 20
77.1384
 30
0.0
 11
121.87
 21
77.1384
 31
0.0
  0
LINE
  8
0
 62
     0
 10
121.87
 20
77.1384
 30
0.0
 11
121.87
 21
82.9374
 31
0.0
  0
LINE
  8
0
 62
     0
 10
121.87
 20
82.9374
 30
0.0
 11
122.669
 21
82.9374
 31
0.0
  0
LINE
  8
0
 62
     0
 10
122.669
 20
82.9374
 30
0.0
 11
122.669
 21
86.0379
 31
0.0
  0
LINE
  8
0
 62
     0
 10
122.669
 20
86.0379
 30
0.0
 11
121.87
 21
86.0379
 31
0.0
  0
LINE
  8
0
 62
     0
 10
121.87
 20
86.0379
 30
0.0
 11
121.87
 21
87.0384
 31
0.0
  0
LINE
  8
0
 62
     0
 10
121.87
 20
87.0384
 30
0.0
 11
107.87
 21
87.0384
 31
0.0
  0
LINE
  8
0
 62
     0
 10
88.8199
 20
87.0384
 30
0.0
 11
88.8199
 21
86.0379
 31
0.0
  0
LINE
  8
0
 62
     0
 10
88.8199
 20
86.0379
 30
0.0
 11
88.0209
 21
86.0379
 31
0.0
  0
LINE
  8
0
 62
     0
 10
88.0209
 20
86.0379
 30
0.0
 11
88.0209
 21
82.9374
 31
0.0
  0
LINE
  8
0
 62
     0
 10
88.0209
 20
82.9374
 30
0.0
 11
88.8199
 21
82.9374
 31
0.0
  0
LINE
  8
0
 62
     0
 10
88.8199
 20
82.9374
 30
0.0
 11
88.8199
 21
77.1384
 31
0.0
  0
LINE
  8
0
 62
     0
 10
88.8199
 20
77.1384
 30
0.0
 11
88.0209
 21
77.1384
 31
0.0
  0
LINE
  8
0
 62
     0
 10
88.0209
 20
77.1384
 30
0.0
 11
88.0209
 21
74.0378
 31
0.0
  0
LINE
  8
0
 62
     0
 10
88.0209
 20
74.0378
 30
0.0
 11
88.8199
 21
74.0378
 31
0.0
  0
LINE
  8
0
 62
     0
 10
88.8199
 20
74.0378
 30
0.0
 11
88.8199
 21
73.0373
 31
0.0
  0
LINE
  8
0
 62
     0
 10
88.8199
 20
73.0373
 30
0.0
 11
102.821
 21
73.0373
 31
0.0
  0
LINE
  8
0
 62
     0
 10
102.821
 20
73.0373
 30
0.0
 11
102.821
 21
74.0378
 31
0.0
  0
LINE
  8
0
 62
     0
 10
102.821
 20
74.0378
 30
0.0
 11
103.619
 21
74.0378
 31
0.0
  0
LINE
  8
0
 62
     0
 10
103.619
 20
74.0378
 30
0.0
 11
103.619
 21
77.1384
 31
0.0
  0
LINE
  8
0
 62
     0
 10
103.619
 20
77.1384
 30
0.0
 11
102.821
 21
77.1384
 31
0.0
  0
LINE
  8
0
 62
     0
 10
102.821
 20
77.1384
 30
0.0
 11
102.821
 21
82.9374
 31
0.0
  0
LINE
  8
0
 62
     0
 10
102.821
 20
82.9374
 30
0.0
 11
103.619
 21
82.9374
 31
0.0
  0
LINE
  8
0
 62
     0
 10
103.619
 20
82.9374
 30
0.0
 11
103.619
 21
86.0379
 31
0.0
  0
LINE
  8
0
 62
     0
 10
103.619
 20
86.0379
 30
0.0
 11
102.821
 21
86.0379
 31
0.0
  0
LINE
  8
0
 62
     0
 10
102.821
 20
86.0379
 30
0.0
 11
102.821
 21
87.0384
 31
0.0
  0
LINE
  8
0
 62
     0
 10
102.821
 20
87.0384
 30
0.0
 11
88.8199
 21
87.0384
 31
0.0
  0
LINE
  8
0
 62
     0
 10
69.7699
 20
87.0384
 30
0.0
 11
69.7699
 21
86.0379
 31
0.0
  0
LINE
  8
0
 62
     0
 10
69.7699
 20
86.0379
 30
0.0
 11
68.9709
 21
86.0379
 31
0.0
  0
LINE
  8
0
 62
     0
 10
68.9709
 20
86.0379
 30
0.0
 11
68.9709
 21
82.9374
 31
0.0
  0
LINE
  8
0
 62
     0
 10
68.9709
 20
82.9374
 30
0.0
 11
69.7699
 21
82.9374
 31
0.0
  0
LINE
  8
0
 62
     0
 10
69.7699
 20
82.9374
 30
0.0
 11
69.7699
 21
77.1384
 31
0.0
  0
LINE
  8
0
 62
     0
 10
69.7699
 20
77.1384
 30
0.0
 11
68.9709
 21
77.1384
 31
0.0
  0
LINE
  8
0
 62
     0
 10
68.9709
 20
77.1384
 30
0.0
 11
68.9709
 21
74.0378
 31
0.0
  0
LINE
  8
0
 62
     0
 10
68.9709
 20
74.0378
 30
0.0
 11
69.7699
 21
74.0378
 31
0.0
  0
LINE
  8
0
 62
     0
 10
69.7699
 20
74.0378
 30
0.0
 11
69.7699
 21
73.0373
 31
0.0
  0
LINE
  8
0
 62
     0
 10
69.7699
 20
73.0373
 30
0.0
 11
83.771
 21
73.0373
 31
0.0
  0
LINE
  8
0
 62
     0
 10
83.771
 20
73.0373
 30
0.0
 11
83.771
 21
74.0378
 31
0.0
  0
LINE
  8
0
 62
     0
 10
83.771
 20
74.0378
 30
0.0
 11
84.5704
 21
74.0378
 31
0.0
  0
LINE
  8
0
 62
     0
 10
84.5704
 20
74.0378
 30
0.0
 11
84.5704
 21
77.1384
 31
0.0
  0
LINE
  8
0
 62
     0
 10
84.5704
 20
77.1384
 30
0.0
 11
83.771
 21
77.1384
 31
0.0
  0
LINE
  8
0
 62
     0
 10
83.771
 20
77.1384
 30
0.0
 11
83.771
 21
82.9374
 31
0.0
  0
LINE
  8
0
 62
     0
 10
83.771
 20
82.9374
 30
0.0
 11
84.5704
 21
82.9374
 31
0.0
  0
LINE
  8
0
 62
     0
 10
84.5704
 20
82.9374
 30
0.0
 11
84.5704
 21
86.0379
 31
0.0
  0
LINE
  8
0
 62
     0
 10
84.5704
 20
86.0379
 30
0.0
 11
83.771
 21
86.0379
 31
0.0
  0
LINE
  8
0
 62
     0
 10
83.771
 20
86.0379
 30
0.0
 11
83.771
 21
87.0384
 31
0.0
  0
LINE
  8
0
 62
     0
 10
83.771
 20
87.0384
 30
0.0
 11
69.7699
 21
87.0384
 31
0.0
  0
LINE
  8
0
 62
     0
 10
50.7199
 20
87.0384
 30
0.0
 11
50.7199
 21
86.0379
 31
0.0
  0
LINE
  8
0
 62
     0
 10
50.7199
 20
86.0379
 30
0.0
 11
49.9209
 21
86.0379
 31
0.0
  0
LINE
  8
0
 62
     0
 10
49.9209
 20
86.0379
 30
0.0
 11
49.9209
 21
82.9374
 31
0.0
  0
LINE
  8
0
 62
     0
 10
49.9209
 20
82.9374
 30
0.0
 11
50.7199
 21
82.9374
 31
0.0
  0
LINE
  8
0
 62
     0
 10
50.7199
 20
82.9374
 30
0.0
 11
50.7199
 21
77.1384
 31
0.0
  0
LINE
  8
0
 62
     0
 10
50.7199
 20
77.1384
 30
0.0
 11
49.9209
 21
77.1384
 31
0.0
  0
LINE
  8
0
 62
     0
 10
49.9209
 20
77.1384
 30
0.0
 11
49.9209
 21
74.0378
 31
0.0
  0
LINE
  8
0
 62
     0
 10
49.9209
 20
74.0378
 30
0.0
 11
50.7199
 21
74.0378
 31
0.0
  0
LINE
  8
0
 62
     0
 10
50.7199
 20
74.0378
 30
0.0
 11
50.7199
 21
73.0373
 31
0.0
  0
LINE
  8
0
 62
     0
 10
50.7199
 20
73.0373
 30
0.0
 11
64.721
 21
73.0373
 31
0.0
  0
LINE
  8
0
 62
     0
 10
64.721
 20
73.0373
 30
0.0
 11
64.721
 21
74.0378
 31
0.0
  0
LINE
  8
0
 62
     0
 10
64.721
 20
74.0378
 30
0.0
 11
65.5204
 21
74.0378
 31
0.0
  0
LINE
  8
0
 62
     0
 10
65.5204
 20
74.0378
 30
0.0
 11
65.5204
 21
77.1384
 31
0.0
  0
LINE
  8
0
 62
     0
 10
65.5204
 20
77.1384
 30
0.0
 11
64.721
 21
77.1384
 31
0.0
  0
LINE
  8
0
 62
     0
 10
64.721
 20
77.1384
 30
0.0
 11
64.721
 21
82.9374
 31
0.0
  0
LINE
  8
0
 62
     0
 10
64.721
 20
82.9374
 30
0.0
 11
65.5204
 21
82.9374
 31
0.0
  0
LINE
  8
0
 62
     0
 10
65.5204
 20
82.9374
 30
0.0
 11
65.5204
 21
86.0379
 31
0.0
  0
LINE
  8
0
 62
     0
 10
65.5204
 20
86.0379
 30
0.0
 11
64.721
 21
86.0379
 31
0.0
  0
LINE
  8
0
 62
     0
 10
64.721
 20
86.0379
 30
0.0
 11
64.721
 21
87.0384
 31
0.0
  0
LINE
  8
0
 62
     0
 10
64.721
 20
87.0384
 30
0.0
 11
50.7199
 21
87.0384
 31
0.0
  0
LINE
  8
0
 62
     0
 10
31.6701
 20
87.0384
 30
0.0
 11
31.6701
 21
86.0379
 31
0.0
  0
LINE
  8
0
 62
     0
 10
31.6701
 20
86.0379
 30
0.0
 11
30.8708
 21
86.0379
 31
0.0
  0
LINE
  8
0
 62
     0
 10
30.8708
 20
86.0379
 30
0.0
 11
30.8708
 21
82.9374
 31
0.0
  0
LINE
  8
0
 62
     0
 10
30.8708
 20
82.9374
 30
0.0
 11
31.6701
 21
82.9374
 31
0.0
  0
LINE
  8
0
 62
     0
 10
31.6701
 20
82.9374
 30
0.0
 11
31.6701
 21
77.1384
 31
0.0
  0
LINE
  8
0
 62
     0
 10
31.6701
 20
77.1384
 30
0.0
 11
30.8708
 21
77.1384
 31
0.0
  0
LINE
  8
0
 62
     0
 10
30.8708
 20
77.1384
 30
0.0
 11
30.8708
 21
74.0378
 31
0.0
  0
LINE
  8
0
 62
     0
 10
30.8708
 20
74.0378
 30
0.0
 11
31.6701
 21
74.0378
 31
0.0
  0
LINE
  8
0
 62
     0
 10
31.6701
 20
74.0378
 30
0.0
 11
31.6701
 21
73.0373
 31
0.0
  0
LINE
  8
0
 62
     0
 10
31.6701
 20
73.0373
 30
0.0
 11
45.671
 21
73.0373
 31
0.0
  0
LINE
  8
0
 62
     0
 10
45.671
 20
73.0373
 30
0.0
 11
45.671
 21
74.0378
 31
0.0
  0
LINE
  8
0
 62
     0
 10
45.671
 20
74.0378
 30
0.0
 11
46.4704
 21
74.0378
 31
0.0
  0
LINE
  8
0
 62
     0
 10
46.4704
 20
74.0378
 30
0.0
 11
46.4704
 21
77.1384
 31
0.0
  0
LINE
  8
0
 62
     0
 10
46.4704
 20
77.1384
 30
0.0
 11
45.671
 21
77.1384
 31
0.0
  0
LINE
  8
0
 62
     0
 10
45.671
 20
77.1384
 30
0.0
 11
45.671
 21
82.9374
 31
0.0
  0
LINE
  8
0
 62
     0
 10
45.671
 20
82.9374
 30
0.0
 11
46.4704
 21
82.9374
 31
0.0
  0
LINE
  8
0
 62
     0
 10
46.4704
 20
82.9374
 30
0.0
 11
46.4704
 21
86.0379
 31
0.0
  0
LINE
  8
0
 62
     0
 10
46.4704
 20
86.0379
 30
0.0
 11
45.671
 21
86.0379
 31
0.0
  0
LINE
  8
0
 62
     0
 10
45.671
 20
86.0379
 30
0.0
 11
45.671
 21
87.0384
 31
0.0
  0
LINE
  8
0
 62
     0
 10
45.671
 20
87.0384
 30
0.0
 11
31.6701
 21
87.0384
 31
0.0
  0
LINE
  8
0
 62
     0
 10
12.6201
 20
87.0384
 30
0.0
 11
12.6201
 21
86.0379
 31
0.0
  0
LINE
  8
0
 62
     0
 10
12.6201
 20
86.0379
 30
0.0
 11
11.8194
 21
86.0379
 31
0.0
  0
LINE
  8
0
 62
     0
 10
11.8194
 20
86.0379
 30
0.0
 11
11.8194
 21
82.9374
 31
0.0
  0
LINE
  8
0
 62
     0
 10
11.8194
 20
82.9374
 30
0.0
 11
12.6201
 21
82.9374
 31
0.0
  0
LINE
  8
0
 62
     0
 10
12.6201
 20
82.9374
 30
0.0
 11
12.6201
 21
77.1384
 31
0.0
  0
LINE
  8
0
 62
     0
 10
12.6201
 20
77.1384
 30
0.0
 11
11.8194
 21
77.1384
 31
0.0
  0
LINE
  8
0
 62
     0
 10
11.8194
 20
77.1384
 30
0.0
 11
11.8194
 21
74.0378
 31
0.0
  0
LINE
  8
0
 62
     0
 10
11.8194
 20
74.0378
 30
0.0
 11
12.6201
 21
74.0378
 31
0.0
  0
LINE
  8
0
 62
     0
 10
12.6201
 20
74.0378
 30
0.0
 11
12.6201
 21
73.0373
 31
0.0
  0
LINE
  8
0
 62
     0
 10
12.6201
 20
73.0373
 30
0.0
 11
26.6209
 21
73.0373
 31
0.0
  0
LINE
  8
0
 62
     0
 10
26.6209
 20
73.0373
 30
0.0
 11
26.6209
 21
74.0378
 31
0.0
  0
LINE
  8
0
 62
     0
 10
26.6209
 20
74.0378
 30
0.0
 11
27.4188
 21
74.0378
 31
0.0
  0
LINE
  8
0
 62
     0
 10
27.4188
 20
74.0378
 30
0.0
 11
27.4188
 21
77.1384
 31
0.0
  0
LINE
  8
0
 62
     0
 10
27.4188
 20
77.1384
 30
0.0
 11
26.6209
 21
77.1384
 31
0.0
  0
LINE
  8
0
 62
     0
 10
26.6209
 20
77.1384
 30
0.0
 11
26.6209
 21
82.9374
 31
0.0
  0
LINE
  8
0
 62
     0
 10
26.6209
 20
82.9374
 30
0.0
 11
27.4188
 21
82.9374
 31
0.0
  0
LINE
  8
0
 62
     0
 10
27.4188
 20
82.9374
 30
0.0
 11
27.4188
 21
86.0379
 31
0.0
  0
LINE
  8
0
 62
     0
 10
27.4188
 20
86.0379
 30
0.0
 11
26.6209
 21
86.0379
 31
0.0
  0
LINE
  8
0
 62
     0
 10
26.6209
 20
86.0379
 30
0.0
 11
26.6209
 21
87.0384
 31
0.0
  0
LINE
  8
0
 62
     0
 10
26.6209
 20
87.0384
 30
0.0
 11
12.6201
 21
87.0384
 31
0.0
  0
LINE
  8
0
 62
     0
 10
4.84106
 20
98.3477
 30
0.0
 11
4.61091
 21
98.2306
 31
0.0
  0
LINE
  8
0
 62
     0
 10
4.61091
 20
98.2306
 30
0.0
 11
4.42764
 21
98.0475
 31
0.0
  0
LINE
  8
0
 62
     0
 10
4.42764
 20
98.0475
 30
0.0
 11
4.31052
 21
97.8172
 31
0.0
  0
LINE
  8
0
 62
     0
 10
4.31052
 20
97.8172
 30
0.0
 11
4.27055
 21
97.5625
 31
0.0
  0
LINE
  8
0
 62
     0
 10
4.27055
 20
97.5625
 30
0.0
 11
4.31052
 21
97.3088
 31
0.0
  0
LINE
  8
0
 62
     0
 10
4.31052
 20
97.3088
 30
0.0
 11
4.42764
 21
97.0788
 31
0.0
  0
LINE
  8
0
 62
     0
 10
4.42764
 20
97.0788
 30
0.0
 11
4.61091
 21
96.8954
 31
0.0
  0
LINE
  8
0
 62
     0
 10
4.61091
 20
96.8954
 30
0.0
 11
4.84106
 21
96.7782
 31
0.0
  0
LINE
  8
0
 62
     0
 10
4.84106
 20
96.7782
 30
0.0
 11
5.09598
 21
96.7384
 31
0.0
  0
LINE
  8
0
 62
     0
 10
5.09598
 20
96.7384
 30
0.0
 11
5.34956
 21
96.7782
 31
0.0
  0
LINE
  8
0
 62
     0
 10
5.34956
 20
96.7782
 30
0.0
 11
5.57967
 21
96.8954
 31
0.0
  0
LINE
  8
0
 62
     0
 10
5.57967
 20
96.8954
 30
0.0
 11
5.76294
 21
97.0788
 31
0.0
  0
LINE
  8
0
 62
     0
 10
5.76294
 20
97.0788
 30
0.0
 11
5.8801
 21
97.3088
 31
0.0
  0
LINE
  8
0
 62
     0
 10
5.8801
 20
97.3088
 30
0.0
 11
5.92007
 21
97.5625
 31
0.0
  0
LINE
  8
0
 62
     0
 10
5.92007
 20
97.5625
 30
0.0
 11
5.8801
 21
97.8172
 31
0.0
  0
LINE
  8
0
 62
     0
 10
5.8801
 20
97.8172
 30
0.0
 11
5.76294
 21
98.0475
 31
0.0
  0
LINE
  8
0
 62
     0
 10
5.76294
 20
98.0475
 30
0.0
 11
5.57967
 21
98.2306
 31
0.0
  0
LINE
  8
0
 62
     0
 10
5.57967
 20
98.2306
 30
0.0
 11
5.34956
 21
98.3477
 31
0.0
  0
LINE
  8
0
 62
     0
 10
5.34956
 20
98.3477
 30
0.0
 11
5.09598
 21
98.388
 31
0.0
  0
LINE
  8
0
 62
     0
 10
5.09598
 20
98.388
 30
0.0
 11
4.84106
 21
98.3477
 31
0.0
  0
LINE
  8
0
 62
     0
 10
329.166
 20
98.3477
 30
0.0
 11
328.936
 21
98.2306
 31
0.0
  0
LINE
  8
0
 62
     0
 10
328.936
 20
98.2306
 30
0.0
 11
328.753
 21
98.0475
 31
0.0
  0
LINE
  8
0
 62
     0
 10
328.753
 20
98.0475
 30
0.0
 11
328.636
 21
97.8172
 31
0.0
  0
LINE
  8
0
 62
     0
 10
328.636
 20
97.8172
 30
0.0
 11
328.596
 21
97.5625
 31
0.0
  0
LINE
  8
0
 62
     0
 10
328.596
 20
97.5625
 30
0.0
 11
328.636
 21
97.3088
 31
0.0
  0
LINE
  8
0
 62
     0
 10
328.636
 20
97.3088
 30
0.0
 11
328.753
 21
97.0788
 31
0.0
  0
LINE
  8
0
 62
     0
 10
328.753
 20
97.0788
 30
0.0
 11
328.936
 21
96.8954
 31
0.0
  0
LINE
  8
0
 62
     0
 10
328.936
 20
96.8954
 30
0.0
 11
329.166
 21
96.7782
 31
0.0
  0
LINE
  8
0
 62
     0
 10
329.166
 20
96.7782
 30
0.0
 11
329.421
 21
96.7384
 31
0.0
  0
LINE
  8
0
 62
     0
 10
329.421
 20
96.7384
 30
0.0
 11
329.675
 21
96.7782
 31
0.0
  0
LINE
  8
0
 62
     0
 10
329.675
 20
96.7782
 30
0.0
 11
329.905
 21
96.8954
 31
0.0
  0
LINE
  8
0
 62
     0
 10
329.905
 20
96.8954
 30
0.0
 11
330.089
 21
97.0788
 31
0.0
  0
LINE
  8
0
 62
     0
 10
330.089
 20
97.0788
 30
0.0
 11
330.206
 21
97.3088
 31
0.0
  0
LINE
  8
0
 62
     0
 10
330.206
 20
97.3088
 30
0.0
 11
330.247
 21
97.5625
 31
0.0
  0
LINE
  8
0
 62
     0
 10
330.247
 20
97.5625
 30
0.0
 11
330.206
 21
97.8172
 31
0.0
  0
LINE
  8
0
 62
     0
 10
330.206
 20
97.8172
 30
0.0
 11
330.089
 21
98.0475
 31
0.0
  0
LINE
  8
0
 62
     0
 10
330.089
 20
98.0475
 30
0.0
 11
329.905
 21
98.2306
 31
0.0
  0
LINE
  8
0
 62
     0
 10
329.905
 20
98.2306
 30
0.0
 11
329.675
 21
98.3477
 31
0.0
  0
LINE
  8
0
 62
     0
 10
329.675
 20
98.3477
 30
0.0
 11
329.421
 21
98.388
 31
0.0
  0
LINE
  8
0
 62
     0
 10
329.421
 20
98.388
 30
0.0
 11
329.166
 21
98.3477
 31
0.0
  0
LINE
  8
0
 62
     0
 10
221.058
 20
98.3477
 30
0.0
 11
220.828
 21
98.2306
 31
0.0
  0
LINE
  8
0
 62
     0
 10
220.828
 20
98.2306
 30
0.0
 11
220.645
 21
98.0475
 31
0.0
  0
LINE
  8
0
 62
     0
 10
220.645
 20
98.0475
 30
0.0
 11
220.527
 21
97.8172
 31
0.0
  0
LINE
  8
0
 62
     0
 10
220.527
 20
97.8172
 30
0.0
 11
220.488
 21
97.5625
 31
0.0
  0
LINE
  8
0
 62
     0
 10
220.488
 20
97.5625
 30
0.0
 11
220.527
 21
97.3088
 31
0.0
  0
LINE
  8
0
 62
     0
 10
220.527
 20
97.3088
 30
0.0
 11
220.645
 21
97.0788
 31
0.0
  0
LINE
  8
0
 62
     0
 10
220.645
 20
97.0788
 30
0.0
 11
220.828
 21
96.8954
 31
0.0
  0
LINE
  8
0
 62
     0
 10
220.828
 20
96.8954
 30
0.0
 11
221.058
 21
96.7782
 31
0.0
  0
LINE
  8
0
 62
     0
 10
221.058
 20
96.7782
 30
0.0
 11
221.313
 21
96.7384
 31
0.0
  0
LINE
  8
0
 62
     0
 10
221.313
 20
96.7384
 30
0.0
 11
221.568
 21
96.7782
 31
0.0
  0
LINE
  8
0
 62
     0
 10
221.568
 20
96.7782
 30
0.0
 11
221.798
 21
96.8954
 31
0.0
  0
LINE
  8
0
 62
     0
 10
221.798
 20
96.8954
 30
0.0
 11
221.98
 21
97.0788
 31
0.0
  0
LINE
  8
0
 62
     0
 10
221.98
 20
97.0788
 30
0.0
 11
222.097
 21
97.3088
 31
0.0
  0
LINE
  8
0
 62
     0
 10
222.097
 20
97.3088
 30
0.0
 11
222.137
 21
97.5625
 31
0.0
  0
LINE
  8
0
 62
     0
 10
222.137
 20
97.5625
 30
0.0
 11
222.097
 21
97.8172
 31
0.0
  0
LINE
  8
0
 62
     0
 10
222.097
 20
97.8172
 30
0.0
 11
221.98
 21
98.0475
 31
0.0
  0
LINE
  8
0
 62
     0
 10
221.98
 20
98.0475
 30
0.0
 11
221.798
 21
98.2306
 31
0.0
  0
LINE
  8
0
 62
     0
 10
221.798
 20
98.2306
 30
0.0
 11
221.568
 21
98.3477
 31
0.0
  0
LINE
  8
0
 62
     0
 10
221.568
 20
98.3477
 30
0.0
 11
221.313
 21
98.388
 31
0.0
  0
LINE
  8
0
 62
     0
 10
221.313
 20
98.388
 30
0.0
 11
221.058
 21
98.3477
 31
0.0
  0
LINE
  8
0
 62
     0
 10
112.948
 20
98.3477
 30
0.0
 11
112.718
 21
98.2306
 31
0.0
  0
LINE
  8
0
 62
     0
 10
112.718
 20
98.2306
 30
0.0
 11
112.536
 21
98.0475
 31
0.0
  0
LINE
  8
0
 62
     0
 10
112.536
 20
98.0475
 30
0.0
 11
112.419
 21
97.8172
 31
0.0
  0
LINE
  8
0
 62
     0
 10
112.419
 20
97.8172
 30
0.0
 11
112.379
 21
97.5625
 31
0.0
  0
LINE
  8
0
 62
     0
 10
112.379
 20
97.5625
 30
0.0
 11
112.419
 21
97.3088
 31
0.0
  0
LINE
  8
0
 62
     0
 10
112.419
 20
97.3088
 30
0.0
 11
112.536
 21
97.0788
 31
0.0
  0
LINE
  8
0
 62
     0
 10
112.536
 20
97.0788
 30
0.0
 11
112.718
 21
96.8954
 31
0.0
  0
LINE
  8
0
 62
     0
 10
112.718
 20
96.8954
 30
0.0
 11
112.948
 21
96.7782
 31
0.0
  0
LINE
  8
0
 62
     0
 10
112.948
 20
96.7782
 30
0.0
 11
113.203
 21
96.7384
 31
0.0
  0
LINE
  8
0
 62
     0
 10
113.203
 20
96.7384
 30
0.0
 11
113.458
 21
96.7782
 31
0.0
  0
LINE
  8
0
 62
     0
 10
113.458
 20
96.7782
 30
0.0
 11
113.688
 21
96.8954
 31
0.0
  0
LINE
  8
0
 62
     0
 10
113.688
 20
96.8954
 30
0.0
 11
113.871
 21
97.0788
 31
0.0
  0
LINE
  8
0
 62
     0
 10
113.871
 20
97.0788
 30
0.0
 11
113.988
 21
97.3088
 31
0.0
  0
LINE
  8
0
 62
     0
 10
113.988
 20
97.3088
 30
0.0
 11
114.028
 21
97.5625
 31
0.0
  0
LINE
  8
0
 62
     0
 10
114.028
 20
97.5625
 30
0.0
 11
113.988
 21
97.8172
 31
0.0
  0
LINE
  8
0
 62
     0
 10
113.988
 20
97.8172
 30
0.0
 11
113.871
 21
98.0475
 31
0.0
  0
LINE
  8
0
 62
     0
 10
113.871
 20
98.0475
 30
0.0
 11
113.688
 21
98.2306
 31
0.0
  0
LINE
  8
0
 62
     0
 10
113.688
 20
98.2306
 30
0.0
 11
113.458
 21
98.3477
 31
0.0
  0
LINE
  8
0
 62
     0
 10
113.458
 20
98.3477
 30
0.0
 11
113.203
 21
98.388
 31
0.0
  0
LINE
  8
0
 62
     0
 10
113.203
 20
98.388
 30
0.0
 11
112.948
 21
98.3477
 31
0.0
  0
ENDSEC
  0
EOF
