<?xml version="1.0" encoding="UTF-8"?>
<!-- Generated by SVGo -->
<svg width="344.327mm" height="112.202mm" viewBox="0.000 0.000 344.327 112.202" xmlns="http://www.w3.org/2000/svg" xmlns:xlink="http://www.w3.org/1999/xlink">
<polygon points="337.327,5.001 337.483,5.007 337.639,5.025 337.793,5.056 337.945,5.098 338.092,5.153 338.234,5.218 338.371,5.295 338.502,5.382 338.625,5.480 338.741,5.586 338.847,5.702 338.945,5.825 339.032,5.956 339.109,6.093 339.174,6.235 339.229,6.382 339.271,6.534 339.302,6.688 339.320,6.844 339.327,7.001 339.327,105.202 339.320,105.358 339.302,105.514 339.271,105.668 339.229,105.820 339.174,105.967 339.109,106.109 339.032,106.246 338.945,106.377 338.847,106.500 338.741,106.616 338.625,106.722 338.502,106.820 338.371,106.907 338.234,106.984 338.092,107.049 337.945,107.104 337.793,107.146 337.639,107.177 337.483,107.195 337.327,107.201 7.001,107.202 6.844,107.195 6.688,107.177 6.534,107.146 6.382,107.104 6.235,107.049 6.093,106.984 5.956,106.907 5.825,106.820 5.702,106.722 5.586,106.616 5.480,106.500 5.382,106.377 5.295,106.246 5.218,106.109 5.153,105.967 5.098,105.820 5.056,105.668 5.025,105.514 5.007,105.358 5.000,105.202 5.001,7.001 5.007,6.844 5.025,6.688 5.056,6.534 5.098,6.382 5.153,6.235 5.218,6.093 5.295,5.956 5.382,5.825 5.480,5.702 5.586,5.586 5.702,5.480 5.825,5.382 5.956,5.295 6.093,5.218 6.235,5.153 6.382,5.098 6.534,5.056 6.688,5.025 6.844,5.007 7.001,5.000" style="fill:none;stroke-width:0.050000mm;stroke:black"/>
<polygon points="9.746,101.417 9.516,101.534 9.333,101.717 9.216,101.947 9.176,102.202 9.216,102.456 9.333,102.686 9.516,102.869 9.746,102.986 10.001,103.027 10.255,102.986 10.485,102.869 10.668,102.686 10.785,102.456 10.826,102.202 10.785,101.947 10.668,101.717 10.485,101.534 10.255,101.417 10.001,101.376" style="fill:none;stroke-width:0.050000mm;stroke:black"/>
<polygon points="117.854,101.417 117.624,101.534 117.442,101.717 117.325,101.947 117.284,102.202 117.325,102.456 117.442,102.686 117.624,102.869 117.854,102.986 118.109,103.027 118.364,102.986 118.594,102.869 118.777,102.686 118.894,102.456 118.934,102.202 118.894,101.947 118.777,101.717 118.594,101.534 118.364,101.417 118.109,101.376" style="fill:none;stroke-width:0.050000mm;stroke:black"/>
<polygon points="225.963,101.417 225.733,101.534 225.550,101.717 225.433,101.947 225.393,102.202 225.433,102.456 225.550,102.686 225.733,102.869 225.963,102.986 226.218,103.027 226.473,102.986 226.703,102.869 226.885,102.686 227.002,102.456 227.043,102.202 227.002,101.947 226.885,101.717 226.703,101.534 226.473,101.417 226.218,101.376" style="fill:none;stroke-width:0.050000mm;stroke:black"/>
<polygon points="334.072,101.417 333.842,101.534 333.659,101.717 333.542,101.947 333.502,102.202 333.542,102.456 333.659,102.686 333.842,102.869 334.072,102.986 334.327,103.027 334.581,102.986 334.811,102.869 334.994,102.686 335.111,102.456 335.152,102.202 335.111,101.947 334.994,101.717 334.811,101.534 334.581,101.417 334.327,101.376" style="fill:none;stroke-width:0.050000mm;stroke:black"/>
<polygon points="312.800,77.676 312.800,78.676 312.000,78.676 312.000,81.775 312.800,81.775 312.800,87.576 312.000,87.576 312.000,90.676 312.800,90.676 312.800,91.676 326.800,91.676 326.800,90.676 327.600,90.676 327.600,87.576 326.800,87.576 326.800,81.775 327.600,81.775 327.600,78.676 326.800,78.676 326.800,77.676" style="fill:none;stroke-width:0.050000mm;stroke:black"/>
<polygon points="293.750,77.676 293.750,78.676 292.950,78.676 292.950,81.775 293.750,81.775 293.750,87.576 292.950,87.576 292.950,90.676 293.750,90.676 293.750,91.676 307.750,91.676 307.750,90.676 308.550,90.676 308.550,87.576 307.750,87.576 307.750,81.775 308.550,81.775 308.550,78.676 307.750,78.676 307.750,77.676" style="fill:none;stroke-width:0.050000mm;stroke:black"/>
<polygon points="274.700,77.676 274.700,78.676 273.900,78.676 273.900,81.775 274.700,81.775 274.700,87.576 273.900,87.576 273.900,90.676 274.700,90.676 274.700,91.676 288.700,91.676 288.700,90.676 289.500,90.676 289.500,87.576 288.700,87.576 288.700,81.775 289.500,81.775 289.500,78.676 288.700,78.676 288.700,77.676" style="fill:none;stroke-width:0.050000mm;stroke:black"/>
<polygon points="253.269,77.676 253.269,78.676 252.469,78.676 252.469,81.775 253.269,81.775 253.269,87.576 252.469,87.576 252.469,90.676 253.269,90.676 253.269,91.676 267.269,91.676 267.269,90.676 268.069,90.676 268.069,87.576 267.269,87.576 267.269,81.775 268.069,81.775 268.069,78.676 267.269,78.676 267.269,77.676" style="fill:none;stroke-width:0.050000mm;stroke:black"/>
<polygon points="224.694,77.676 224.694,78.676 223.894,78.676 223.894,81.775 224.694,81.775 224.694,87.576 223.894,87.576 223.894,90.676 224.694,90.676 224.694,91.676 238.694,91.676 238.694,90.676 239.494,90.676 239.494,87.576 238.694,87.576 238.694,81.775 239.494,81.775 239.494,78.676 238.694,78.676 238.694,77.676" style="fill:none;stroke-width:0.050000mm;stroke:black"/>
<polygon points="198.500,77.676 198.500,78.676 197.700,78.676 197.700,81.775 198.500,81.775 198.500,87.576 197.700,87.576 197.700,90.676 198.500,90.676 198.500,91.676 212.500,91.676 212.500,90.676 213.300,90.676 213.300,87.576 212.500,87.576 212.500,81.775 213.300,81.775 213.300,78.676 212.500,78.676 212.500,77.676" style="fill:none;stroke-width:0.050000mm;stroke:black"/>
<polygon points="172.307,77.676 172.307,78.676 171.507,78.676 171.507,81.775 172.307,81.775 172.307,87.576 171.507,87.576 171.507,90.676 172.307,90.676 172.307,91.676 186.307,91.676 186.307,90.676 187.107,90.676 187.107,87.576 186.307,87.576 186.307,81.775 187.107,81.775 187.107,78.676 186.307,78.676 186.307,77.676" style="fill:none;stroke-width:0.050000mm;stroke:black"/>
<polygon points="143.732,77.676 143.732,78.676 142.932,78.676 142.932,81.775 143.732,81.775 143.732,87.576 142.932,87.576 142.932,90.676 143.732,90.676 143.732,91.676 157.732,91.676 157.732,90.676 158.532,90.676 158.532,87.576 157.732,87.576 157.732,81.775 158.532,81.775 158.532,78.676 157.732,78.676 157.732,77.676" style="fill:none;stroke-width:0.050000mm;stroke:black"/>
<polygon points="119.919,77.676 119.919,78.676 119.119,78.676 119.119,81.775 119.919,81.775 119.919,87.576 119.119,87.576 119.119,90.676 119.919,90.676 119.919,91.676 133.919,91.676 133.919,90.676 134.719,90.676 134.719,87.576 133.919,87.576 133.919,81.775 134.719,81.775 134.719,78.676 133.919,78.676 133.919,77.676" style="fill:none;stroke-width:0.050000mm;stroke:black"/>
<polygon points="96.107,77.676 96.107,78.676 95.307,78.676 95.307,81.775 96.107,81.775 96.107,87.576 95.307,87.576 95.307,90.676 96.107,90.676 96.107,91.676 110.107,91.676 110.107,90.676 110.907,90.676 110.907,87.576 110.107,87.576 110.107,81.775 110.907,81.775 110.907,78.676 110.107,78.676 110.107,77.676" style="fill:none;stroke-width:0.050000mm;stroke:black"/>
<polygon points="74.676,77.676 74.676,78.676 73.876,78.676 73.876,81.775 74.676,81.775 74.676,87.576 73.876,87.576 73.876,90.676 74.676,90.676 74.676,91.676 88.676,91.676 88.676,90.676 89.476,90.676 89.476,87.576 88.676,87.576 88.676,81.775 89.476,81.775 89.476,78.676 88.676,78.676 88.676,77.676" style="fill:none;stroke-width:0.050000mm;stroke:black"/>
<polygon points="55.626,77.676 55.626,78.676 54.826,78.676 54.826,81.775 55.626,81.775 55.626,87.576 54.826,87.576 54.826,90.676 55.626,90.676 55.626,91.676 69.626,91.676 69.626,90.676 70.426,90.676 70.426,87.576 69.626,87.576 69.626,81.775 70.426,81.775 70.426,78.676 69.626,78.676 69.626,77.676" style="fill:none;stroke-width:0.050000mm;stroke:black"/>
<polygon points="36.576,77.676 36.576,78.676 35.776,78.676 35.776,81.775 36.576,81.775 36.576,87.576 35.776,87.576 35.776,90.676 36.576,90.676 36.576,91.676 50.576,91.676 50.576,90.676 51.376,90.676 51.376,87.576 50.576,87.576 50.576,81.775 51.376,81.775 51.376,78.676 50.576,78.676 50.576,77.676" style="fill:none;stroke-width:0.050000mm;stroke:black"/>
<polygon points="17.526,77.676 17.526,78.676 16.725,78.676 16.725,81.775 17.526,81.775 17.526,87.576 16.725,87.576 16.725,90.676 17.526,90.676 17.526,91.676 31.526,91.676 31.526,90.676 32.324,90.676 32.324,87.576 31.526,87.576 31.526,81.775 32.324,81.775 32.324,78.676 31.526,78.676 31.526,77.676" style="fill:none;stroke-width:0.050000mm;stroke:black"/>
<polygon points="312.801,58.626 312.801,59.626 312.001,59.626 312.001,62.726 312.801,62.726 312.801,68.526 312.001,68.526 312.001,71.626 312.801,71.626 312.801,72.626 326.801,72.626 326.801,71.626 327.601,71.626 327.601,68.526 326.801,68.526 326.801,62.726 327.601,62.726 327.601,59.626 326.801,59.626 326.801,58.626" style="fill:none;stroke-width:0.050000mm;stroke:black"/>
<polygon points="293.751,58.626 293.751,59.626 292.951,59.626 292.951,62.726 293.751,62.726 293.751,68.526 292.951,68.526 292.951,71.626 293.751,71.626 293.751,72.626 307.751,72.626 307.751,71.626 308.551,71.626 308.551,68.526 307.751,68.526 307.751,62.726 308.551,62.726 308.551,59.626 307.751,59.626 307.751,58.626" style="fill:none;stroke-width:0.050000mm;stroke:black"/>
<polygon points="274.701,58.626 274.701,59.626 273.901,59.626 273.901,62.726 274.701,62.726 274.701,68.526 273.901,68.526 273.901,71.626 274.701,71.626 274.701,72.626 288.701,72.626 288.701,71.626 289.501,71.626 289.501,68.526 288.701,68.526 288.701,62.726 289.501,62.726 289.501,59.626 288.701,59.626 288.701,58.626" style="fill:none;stroke-width:0.050000mm;stroke:black"/>
<polygon points="255.651,58.626 255.651,59.626 254.851,59.626 254.851,62.726 255.651,62.726 255.651,68.526 254.851,68.526 254.851,71.626 255.651,71.626 255.651,72.626 269.651,72.626 269.651,71.626 270.451,71.626 270.451,68.526 269.651,68.526 269.651,62.726 270.451,62.726 270.451,59.626 269.651,59.626 269.651,58.626" style="fill:none;stroke-width:0.050000mm;stroke:black"/>
<polygon points="236.601,58.626 236.601,59.626 235.801,59.626 235.801,62.726 236.601,62.726 236.601,68.526 235.801,68.526 235.801,71.626 236.601,71.626 236.601,72.626 250.601,72.626 250.601,71.626 251.401,71.626 251.401,68.526 250.601,68.526 250.601,62.726 251.401,62.726 251.401,59.626 250.601,59.626 250.601,58.626" style="fill:none;stroke-width:0.050000mm;stroke:black"/>
<polygon points="217.551,58.626 217.551,59.626 216.751,59.626 216.751,62.726 217.551,62.726 217.551,68.526 216.751,68.526 216.751,71.626 217.551,71.626 217.551,72.626 231.551,72.626 231.551,71.626 232.351,71.626 232.351,68.526 231.551,68.526 231.551,62.726 232.351,62.726 232.351,59.626 231.551,59.626 231.551,58.626" style="fill:none;stroke-width:0.050000mm;stroke:black"/>
<polygon points="198.501,58.626 198.501,59.626 197.701,59.626 197.701,62.726 198.501,62.726 198.501,68.526 197.701,68.526 197.701,71.626 198.501,71.626 198.501,72.626 212.501,72.626 212.501,71.626 213.301,71.626 213.301,68.526 212.501,68.526 212.501,62.726 213.301,62.726 213.301,59.626 212.501,59.626 212.501,58.626" style="fill:none;stroke-width:0.050000mm;stroke:black"/>
<polygon points="179.451,58.626 179.451,59.626 178.651,59.626 178.651,62.726 179.451,62.726 179.451,68.526 178.651,68.526 178.651,71.626 179.451,71.626 179.451,72.626 193.451,72.626 193.451,71.626 194.251,71.626 194.251,68.526 193.451,68.526 193.451,62.726 194.251,62.726 194.251,59.626 193.451,59.626 193.451,58.626" style="fill:none;stroke-width:0.050000mm;stroke:black"/>
<polygon points="160.401,58.626 160.401,59.626 159.601,59.626 159.601,62.726 160.401,62.726 160.401,68.526 159.601,68.526 159.601,71.626 160.401,71.626 160.401,72.626 174.401,72.626 174.401,71.626 175.201,71.626 175.201,68.526 174.401,68.526 174.401,62.726 175.201,62.726 175.201,59.626 174.401,59.626 174.401,58.626" style="fill:none;stroke-width:0.050000mm;stroke:black"/>
<polygon points="141.351,58.626 141.351,59.626 140.551,59.626 140.551,62.726 141.351,62.726 141.351,68.526 140.551,68.526 140.551,71.626 141.351,71.626 141.351,72.626 155.351,72.626 155.351,71.626 156.151,71.626 156.151,68.526 155.351,68.526 155.351,62.726 156.151,62.726 156.151,59.626 155.351,59.626 155.351,58.626" style="fill:none;stroke-width:0.050000mm;stroke:black"/>
<polygon points="122.301,58.626 122.301,59.626 121.501,59.626 121.501,62.726 122.301,62.726 122.301,68.526 121.501,68.526 121.501,71.626 122.301,71.626 122.301,72.626 136.301,72.626 136.301,71.626 137.101,71.626 137.101,68.526 136.301,68.526 136.301,62.726 137.101,62.726 137.101,59.626 136.301,59.626 136.301,58.626" style="fill:none;stroke-width:0.050000mm;stroke:black"/>
<polygon points="98.488,58.626 98.488,59.626 97.688,59.626 97.688,62.726 98.488,62.726 98.488,68.526 97.688,68.526 97.688,71.626 98.488,71.626 98.488,72.626 112.488,72.626 112.488,71.626 113.288,71.626 113.288,68.526 112.488,68.526 112.488,62.726 113.288,62.726 113.288,59.626 112.488,59.626 112.488,58.626" style="fill:none;stroke-width:0.050000mm;stroke:black"/>
<polygon points="74.676,58.626 74.676,59.626 73.876,59.626 73.876,62.726 74.676,62.726 74.676,68.526 73.876,68.526 73.876,71.626 74.676,71.626 74.676,72.626 88.676,72.626 88.676,71.626 89.476,71.626 89.476,68.526 88.676,68.526 88.676,62.726 89.476,62.726 89.476,59.626 88.676,59.626 88.676,58.626" style="fill:none;stroke-width:0.050000mm;stroke:black"/>
<polygon points="55.626,58.626 55.626,59.626 54.826,59.626 54.826,62.726 55.626,62.726 55.626,68.526 54.826,68.526 54.826,71.626 55.626,71.626 55.626,72.626 69.626,72.626 69.626,71.626 70.426,71.626 70.426,68.526 69.626,68.526 69.626,62.726 70.426,62.726 70.426,59.626 69.626,59.626 69.626,58.626" style="fill:none;stroke-width:0.050000mm;stroke:black"/>
<polygon points="36.576,58.626 36.576,59.626 35.776,59.626 35.776,62.726 36.576,62.726 36.576,68.526 35.776,68.526 35.776,71.626 36.576,71.626 36.576,72.626 50.576,72.626 50.576,71.626 51.376,71.626 51.376,68.526 50.576,68.526 50.576,62.726 51.376,62.726 51.376,59.626 50.576,59.626 50.576,58.626" style="fill:none;stroke-width:0.050000mm;stroke:black"/>
<polygon points="17.526,58.626 17.526,59.626 16.725,59.626 16.725,62.726 17.526,62.726 17.526,68.526 16.725,68.526 16.725,71.626 17.526,71.626 17.526,72.626 31.526,72.626 31.526,71.626 32.324,71.626 32.324,68.526 31.526,68.526 31.526,62.726 32.324,62.726 32.324,59.626 31.526,59.626 31.526,58.626" style="fill:none;stroke-width:0.050000mm;stroke:black"/>
<polygon points="310.419,39.576 310.419,40.576 309.619,40.576 309.619,43.676 310.419,43.676 310.419,49.476 309.619,49.476 309.619,52.576 310.419,52.576 310.419,53.576 324.419,53.576 324.419,52.576 325.219,52.576 325.219,49.476 324.419,49.476 324.419,43.676 325.219,43.676 325.219,40.576 324.419,40.576 324.419,39.576" style="fill:none;stroke-width:0.050000mm;stroke:black"/>
<polygon points="288.988,39.576 288.988,40.576 288.188,40.576 288.188,43.676 288.988,43.676 288.988,49.476 288.188,49.476 288.188,52.576 288.988,52.576 288.988,53.576 302.988,53.576 302.988,52.576 303.788,52.576 303.788,49.476 302.988,49.476 302.988,43.676 303.788,43.676 303.788,40.576 302.988,40.576 302.988,39.576" style="fill:none;stroke-width:0.050000mm;stroke:black"/>
<polygon points="269.938,39.576 269.938,40.576 269.138,40.576 269.138,43.676 269.938,43.676 269.938,49.476 269.138,49.476 269.138,52.576 269.938,52.576 269.938,53.576 283.938,53.576 283.938,52.576 284.738,52.576 284.738,49.476 283.938,49.476 283.938,43.676 284.738,43.676 284.738,40.576 283.938,40.576 283.938,39.576" style="fill:none;stroke-width:0.050000mm;stroke:black"/>
<polygon points="250.888,39.576 250.888,40.576 250.088,40.576 250.088,43.676 250.888,43.676 250.888,49.476 250.088,49.476 250.088,52.576 250.888,52.576 250.888,53.576 264.888,53.576 264.888,52.576 265.688,52.576 265.688,49.476 264.888,49.476 264.888,43.676 265.688,43.676 265.688,40.576 264.888,40.576 264.888,39.576" style="fill:none;stroke-width:0.050000mm;stroke:black"/>
<polygon points="231.838,39.576 231.838,40.576 231.038,40.576 231.038,43.676 231.838,43.676 231.838,49.476 231.038,49.476 231.038,52.576 231.838,52.576 231.838,53.576 245.838,53.576 245.838,52.576 246.638,52.576 246.638,49.476 245.838,49.476 245.838,43.676 246.638,43.676 246.638,40.576 245.838,40.576 245.838,39.576" style="fill:none;stroke-width:0.050000mm;stroke:black"/>
<polygon points="212.788,39.576 212.788,40.576 211.988,40.576 211.988,43.676 212.788,43.676 212.788,49.476 211.988,49.476 211.988,52.576 212.788,52.576 212.788,53.576 226.788,53.576 226.788,52.576 227.588,52.576 227.588,49.476 226.788,49.476 226.788,43.676 227.588,43.676 227.588,40.576 226.788,40.576 226.788,39.576" style="fill:none;stroke-width:0.050000mm;stroke:black"/>
<polygon points="193.738,39.576 193.738,40.576 192.938,40.576 192.938,43.676 193.738,43.676 193.738,49.476 192.938,49.476 192.938,52.576 193.738,52.576 193.738,53.576 207.738,53.576 207.738,52.576 208.538,52.576 208.538,49.476 207.738,49.476 207.738,43.676 208.538,43.676 208.538,40.576 207.738,40.576 207.738,39.576" style="fill:none;stroke-width:0.050000mm;stroke:black"/>
<polygon points="174.688,39.576 174.688,40.576 173.888,40.576 173.888,43.676 174.688,43.676 174.688,49.476 173.888,49.476 173.888,52.576 174.688,52.576 174.688,53.576 188.688,53.576 188.688,52.576 189.488,52.576 189.488,49.476 188.688,49.476 188.688,43.676 189.488,43.676 189.488,40.576 188.688,40.576 188.688,39.576" style="fill:none;stroke-width:0.050000mm;stroke:black"/>
<polygon points="155.638,39.576 155.638,40.576 154.838,40.576 154.838,43.676 155.638,43.676 155.638,49.476 154.838,49.476 154.838,52.576 155.638,52.576 155.638,53.576 169.638,53.576 169.638,52.576 170.438,52.576 170.438,49.476 169.638,49.476 169.638,43.676 170.438,43.676 170.438,40.576 169.638,40.576 169.638,39.576" style="fill:none;stroke-width:0.050000mm;stroke:black"/>
<polygon points="136.588,39.576 136.588,40.576 135.788,40.576 135.788,43.676 136.588,43.676 136.588,49.476 135.788,49.476 135.788,52.576 136.588,52.576 136.588,53.576 150.588,53.576 150.588,52.576 151.388,52.576 151.388,49.476 150.588,49.476 150.588,43.676 151.388,43.676 151.388,40.576 150.588,40.576 150.588,39.576" style="fill:none;stroke-width:0.050000mm;stroke:black"/>
<polygon points="117.538,39.576 117.538,40.576 116.738,40.576 116.738,43.676 117.538,43.676 117.538,49.476 116.738,49.476 116.738,52.576 117.538,52.576 117.538,53.576 131.538,53.576 131.538,52.576 132.338,52.576 132.338,49.476 131.538,49.476 131.538,43.676 132.338,43.676 132.338,40.576 131.538,40.576 131.538,39.576" style="fill:none;stroke-width:0.050000mm;stroke:black"/>
<polygon points="96.107,39.576 96.107,40.576 95.307,40.576 95.307,43.676 96.107,43.676 96.107,49.476 95.307,49.476 95.307,52.576 96.107,52.576 96.107,53.576 110.107,53.576 110.107,52.576 110.907,52.576 110.907,49.476 110.107,49.476 110.107,43.676 110.907,43.676 110.907,40.576 110.107,40.576 110.107,39.576" style="fill:none;stroke-width:0.050000mm;stroke:black"/>
<polygon points="74.676,39.576 74.676,40.576 73.876,40.576 73.876,43.676 74.676,43.676 74.676,49.476 73.876,49.476 73.876,52.576 74.676,52.576 74.676,53.576 88.676,53.576 88.676,52.576 89.476,52.576 89.476,49.476 88.676,49.476 88.676,43.676 89.476,43.676 89.476,40.576 88.676,40.576 88.676,39.576" style="fill:none;stroke-width:0.050000mm;stroke:black"/>
<polygon points="55.626,39.576 55.626,40.576 54.826,40.576 54.826,43.676 55.626,43.676 55.626,49.476 54.826,49.476 54.826,52.576 55.626,52.576 55.626,53.576 69.626,53.576 69.626,52.576 70.426,52.576 70.426,49.476 69.626,49.476 69.626,43.676 70.426,43.676 70.426,40.576 69.626,40.576 69.626,39.576" style="fill:none;stroke-width:0.050000mm;stroke:black"/>
<polygon points="36.576,39.576 36.576,40.576 35.776,40.576 35.776,43.676 36.576,43.676 36.576,49.476 35.776,49.476 35.776,52.576 36.576,52.576 36.576,53.576 50.576,53.576 50.576,52.576 51.376,52.576 51.376,49.476 50.576,49.476 50.576,43.676 51.376,43.676 51.376,40.576 50.576,40.576 50.576,39.576" style="fill:none;stroke-width:0.050000mm;stroke:black"/>
<polygon points="17.526,39.576 17.526,40.576 16.725,40.576 16.725,43.676 17.526,43.676 17.526,49.476 16.725,49.476 16.725,52.576 17.526,52.576 17.526,53.576 31.526,53.576 31.526,52.576 32.324,52.576 32.324,49.476 31.526,49.476 31.526,43.676 32.324,43.676 32.324,40.576 31.526,40.576 31.526,39.576" style="fill:none;stroke-width:0.050000mm;stroke:black"/>
<polygon points="308.038,20.526 308.038,21.526 307.238,21.526 307.238,24.626 308.038,24.626 308.038,30.425 307.238,30.425 307.238,33.526 308.038,33.526 308.038,34.526 322.038,34.526 322.038,33.526 322.838,33.526 322.838,30.425 322.038,30.425 322.038,24.626 322.838,24.626 322.838,21.526 322.038,21.526 322.038,20.526" style="fill:none;stroke-width:0.050000mm;stroke:black"/>
<polygon points="284.226,20.526 284.226,21.526 283.426,21.526 283.426,24.626 284.226,24.626 284.226,30.425 283.426,30.425 283.426,33.526 284.226,33.526 284.226,34.526 298.226,34.526 298.226,33.526 299.026,33.526 299.026,30.425 298.226,30.425 298.226,24.626 299.026,24.626 299.026,21.526 298.226,21.526 298.226,20.526" style="fill:none;stroke-width:0.050000mm;stroke:black"/>
<polygon points="265.176,20.526 265.176,21.526 264.376,21.526 264.376,24.626 265.176,24.626 265.176,30.425 264.376,30.425 264.376,33.526 265.176,33.526 265.176,34.526 279.176,34.526 279.176,33.526 279.976,33.526 279.976,30.425 279.176,30.425 279.176,24.626 279.976,24.626 279.976,21.526 279.176,21.526 279.176,20.526" style="fill:none;stroke-width:0.050000mm;stroke:black"/>
<polygon points="246.126,20.526 246.126,21.526 245.326,21.526 245.326,24.626 246.126,24.626 246.126,30.425 245.326,30.425 245.326,33.526 246.126,33.526 246.126,34.526 260.126,34.526 260.126,33.526 260.926,33.526 260.926,30.425 260.126,30.425 260.126,24.626 260.926,24.626 260.926,21.526 260.126,21.526 260.126,20.526" style="fill:none;stroke-width:0.050000mm;stroke:black"/>
<polygon points="227.076,20.526 227.076,21.526 226.276,21.526 226.276,24.626 227.076,24.626 227.076,30.425 226.276,30.425 226.276,33.526 227.076,33.526 227.076,34.526 241.076,34.526 241.076,33.526 241.876,33.526 241.876,30.425 241.076,30.425 241.076,24.626 241.876,24.626 241.876,21.526 241.076,21.526 241.076,20.526" style="fill:none;stroke-width:0.050000mm;stroke:black"/>
<polygon points="208.026,20.526 208.026,21.526 207.226,21.526 207.226,24.626 208.026,24.626 208.026,30.425 207.226,30.425 207.226,33.526 208.026,33.526 208.026,34.526 222.026,34.526 222.026,33.526 222.826,33.526 222.826,30.425 222.026,30.425 222.026,24.626 222.826,24.626 222.826,21.526 222.026,21.526 222.026,20.526" style="fill:none;stroke-width:0.050000mm;stroke:black"/>
<polygon points="188.976,20.526 188.976,21.526 188.176,21.526 188.176,24.626 188.976,24.626 188.976,30.425 188.176,30.425 188.176,33.526 188.976,33.526 188.976,34.526 202.976,34.526 202.976,33.526 203.776,33.526 203.776,30.425 202.976,30.425 202.976,24.626 203.776,24.626 203.776,21.526 202.976,21.526 202.976,20.526" style="fill:none;stroke-width:0.050000mm;stroke:black"/>
<polygon points="169.926,20.526 169.926,21.526 169.126,21.526 169.126,24.626 169.926,24.626 169.926,30.425 169.126,30.425 169.126,33.526 169.926,33.526 169.926,34.526 183.926,34.526 183.926,33.526 184.726,33.526 184.726,30.425 183.926,30.425 183.926,24.626 184.726,24.626 184.726,21.526 183.926,21.526 183.926,20.526" style="fill:none;stroke-width:0.050000mm;stroke:black"/>
<polygon points="150.876,20.526 150.876,21.526 150.076,21.526 150.076,24.626 150.876,24.626 150.876,30.425 150.076,30.425 150.076,33.526 150.876,33.526 150.876,34.526 164.876,34.526 164.876,33.526 165.676,33.526 165.676,30.425 164.876,30.425 164.876,24.626 165.676,24.626 165.676,21.526 164.876,21.526 164.876,20.526" style="fill:none;stroke-width:0.050000mm;stroke:black"/>
<polygon points="131.826,20.526 131.826,21.526 131.025,21.526 131.025,24.626 131.826,24.626 131.826,30.425 131.025,30.425 131.025,33.526 131.826,33.526 131.826,34.526 145.826,34.526 145.826,33.526 146.626,33.526 146.626,30.425 145.826,30.425 145.826,24.626 146.626,24.626 146.626,21.526 145.826,21.526 145.826,20.526" style="fill:none;stroke-width:0.050000mm;stroke:black"/>
<polygon points="112.775,20.526 112.775,21.526 111.976,21.526 111.976,24.626 112.775,24.626 112.775,30.425 111.976,30.425 111.976,33.526 112.775,33.526 112.775,34.526 126.775,34.526 126.775,33.526 127.575,33.526 127.575,30.425 126.775,30.425 126.775,24.626 127.575,24.626 127.575,21.526 126.775,21.526 126.775,20.526" style="fill:none;stroke-width:0.050000mm;stroke:black"/>
<polygon points="93.726,20.526 93.726,21.526 92.926,21.526 92.926,24.626 93.726,24.626 93.726,30.425 92.926,30.425 92.926,33.526 93.726,33.526 93.726,34.526 107.726,34.526 107.726,33.526 108.525,33.526 108.525,30.425 107.726,30.425 107.726,24.626 108.525,24.626 108.525,21.526 107.726,21.526 107.726,20.526" style="fill:none;stroke-width:0.050000mm;stroke:black"/>
<polygon points="74.676,20.526 74.676,21.526 73.876,21.526 73.876,24.626 74.676,24.626 74.676,30.425 73.876,30.425 73.876,33.526 74.676,33.526 74.676,34.526 88.676,34.526 88.676,33.526 89.476,33.526 89.476,30.425 88.676,30.425 88.676,24.626 89.476,24.626 89.476,21.526 88.676,21.526 88.676,20.526" style="fill:none;stroke-width:0.050000mm;stroke:black"/>
<polygon points="55.626,20.526 55.626,21.526 54.826,21.526 54.826,24.626 55.626,24.626 55.626,30.425 54.826,30.425 54.826,33.526 55.626,33.526 55.626,34.526 69.626,34.526 69.626,33.526 70.426,33.526 70.426,30.425 69.626,30.425 69.626,24.626 70.426,24.626 70.426,21.526 69.626,21.526 69.626,20.526" style="fill:none;stroke-width:0.050000mm;stroke:black"/>
<polygon points="36.576,20.526 36.576,21.526 35.776,21.526 35.776,24.626 36.576,24.626 36.576,30.425 35.776,30.425 35.776,33.526 36.576,33.526 36.576,34.526 50.576,34.526 50.576,33.526 51.376,33.526 51.376,30.425 50.576,30.425 50.576,24.626 51.376,24.626 51.376,21.526 50.576,21.526 50.576,20.526" style="fill:none;stroke-width:0.050000mm;stroke:black"/>
<polygon points="17.526,20.526 17.526,21.526 16.725,21.526 16.725,24.626 17.526,24.626 17.526,30.425 16.725,30.425 16.725,33.526 17.526,33.526 17.526,34.526 31.526,34.526 31.526,33.526 32.324,33.526 32.324,30.425 31.526,30.425 31.526,24.626 32.324,24.626 32.324,21.526 31.526,21.526 31.526,20.526" style="fill:none;stroke-width:0.050000mm;stroke:black"/>
<polygon points="9.746,9.216 9.516,9.333 9.333,9.516 9.216,9.746 9.176,10.001 9.216,10.255 9.333,10.485 9.516,10.668 9.746,10.785 10.001,10.826 10.255,10.785 10.485,10.668 10.668,10.485 10.785,10.255 10.826,10.001 10.785,9.746 10.668,9.516 10.485,9.333 10.255,9.216 10.001,9.176" style="fill:none;stroke-width:0.050000mm;stroke:black"/>
<polygon points="334.072,9.216 333.842,9.333 333.659,9.516 333.542,9.746 333.502,10.001 333.542,10.255 333.659,10.485 333.842,10.668 334.072,10.785 334.327,10.826 334.581,10.785 334.811,10.668 334.994,10.485 335.111,10.255 335.152,10.001 335.111,9.746 334.994,9.516 334.811,9.333 334.581,9.216 334.327,9.176" style="fill:none;stroke-width:0.050000mm;stroke:black"/>
<polygon points="225.963,9.216 225.733,9.333 225.550,9.516 225.433,9.746 225.393,10.001 225.433,10.255 225.550,10.485 225.733,10.668 225.963,10.785 226.218,10.826 226.473,10.785 226.703,10.668 226.885,10.485 227.002,10.255 227.043,10.001 227.002,9.746 226.885,9.516 226.703,9.333 226.473,9.216 226.218,9.176" style="fill:none;stroke-width:0.050000mm;stroke:black"/>
<polygon points="117.854,9.216 117.624,9.333 117.442,9.516 117.325,9.746 117.284,10.001 117.325,10.255 117.442,10.485 117.624,10.668 117.854,10.785 118.109,10.826 118.364,10.785 118.594,10.668 118.777,10.485 118.894,10.255 118.934,10.001 118.894,9.746 118.777,9.516 118.594,9.333 118.364,9.216 118.109,9.176" style="fill:none;stroke-width:0.050000mm;stroke:black"/>
</svg>