  0
SECTION
  2
HEADER
  9
$ACADVER
  1
AC1009
  9
$EXTMIN
 10
0.0
 20
0.0
 30
0.0
  9
$EXTMAX
 10
1000.0
 20
1000.0
 30
0.0
  9
$FILLMODE
 70
 0
  9
$SPLFRAME
 70
 1
  0
ENDSEC
  0
SECTION
  2
TABLES
  0
TABLE
  2
LAYER
 70
1
  0
LAYER
  2
0
 70
     0
 62
     7
  6
CONTINUOUS
  0
ENDTAB
  0
ENDSEC
  0
SECTION
  2
ENTITIES
  0
LINE
  8
0
 62
     0
 10
332.421
 20
102.563
 30
0.0
 11
332.577
 21
102.556
 31
0.0
  0
LINE
  8
0
 62
     0
 10
332.577
 20
102.556
 30
0.0
 11
332.733
 21
102.538
 31
0.0
  0
LINE
  8
0
 62
     0
 10
332.733
 20
102.538
 30
0.0
 11
332.887
 21
102.508
 31
0.0
  0
LINE
  8
0
 62
     0
 10
332.887
 20
102.508
 30
0.0
 11
333.04
 21
102.465
 31
0.0
  0
LINE
  8
0
 62
     0
 10
333.04
 20
102.465
 30
0.0
 11
333.186
 21
102.41
 31
0.0
  0
LINE
  8
0
 62
     0
 10
333.186
 20
102.41
 30
0.0
 11
333.328
 21
102.345
 31
0.0
  0
LINE
  8
0
 62
     0
 10
333.328
 20
102.345
 30
0.0
 11
333.466
 21
102.269
 31
0.0
  0
LINE
  8
0
 62
     0
 10
333.466
 20
102.269
 30
0.0
 11
333.597
 21
102.181
 31
0.0
  0
LINE
  8
0
 62
     0
 10
333.597
 20
102.181
 30
0.0
 11
333.72
 21
102.084
 31
0.0
  0
LINE
  8
0
 62
     0
 10
333.72
 20
102.084
 30
0.0
 11
333.835
 21
101.977
 31
0.0
  0
LINE
  8
0
 62
     0
 10
333.835
 20
101.977
 30
0.0
 11
333.941
 21
101.862
 31
0.0
  0
LINE
  8
0
 62
     0
 10
333.941
 20
101.862
 30
0.0
 11
334.039
 21
101.739
 31
0.0
  0
LINE
  8
0
 62
     0
 10
334.039
 20
101.739
 30
0.0
 11
334.126
 21
101.608
 31
0.0
  0
LINE
  8
0
 62
     0
 10
334.126
 20
101.608
 30
0.0
 11
334.203
 21
101.471
 31
0.0
  0
LINE
  8
0
 62
     0
 10
334.203
 20
101.471
 30
0.0
 11
334.268
 21
101.328
 31
0.0
  0
LINE
  8
0
 62
     0
 10
334.268
 20
101.328
 30
0.0
 11
334.323
 21
101.182
 31
0.0
  0
LINE
  8
0
 62
     0
 10
334.323
 20
101.182
 30
0.0
 11
334.366
 21
101.03
 31
0.0
  0
LINE
  8
0
 62
     0
 10
334.366
 20
101.03
 30
0.0
 11
334.396
 21
100.876
 31
0.0
  0
LINE
  8
0
 62
     0
 10
334.396
 20
100.876
 30
0.0
 11
334.414
 21
100.719
 31
0.0
  0
LINE
  8
0
 62
     0
 10
334.414
 20
100.719
 30
0.0
 11
334.421
 21
100.562
 31
0.0
  0
LINE
  8
0
 62
     0
 10
334.421
 20
100.562
 30
0.0
 11
334.421
 21
2.36196
 31
0.0
  0
LINE
  8
0
 62
     0
 10
334.421
 20
2.36196
 30
0.0
 11
334.414
 21
2.20624
 31
0.0
  0
LINE
  8
0
 62
     0
 10
334.414
 20
2.20624
 30
0.0
 11
334.396
 21
2.05052
 31
0.0
  0
LINE
  8
0
 62
     0
 10
334.396
 20
2.05052
 30
0.0
 11
334.366
 21
1.89618
 31
0.0
  0
LINE
  8
0
 62
     0
 10
334.366
 20
1.89618
 30
0.0
 11
334.323
 21
1.74322
 31
0.0
  0
LINE
  8
0
 62
     0
 10
334.323
 20
1.74322
 30
0.0
 11
334.268
 21
1.59714
 31
0.0
  0
LINE
  8
0
 62
     0
 10
334.268
 20
1.59714
 30
0.0
 11
334.203
 21
1.45521
 31
0.0
  0
LINE
  8
0
 62
     0
 10
334.203
 20
1.45521
 30
0.0
 11
334.126
 21
1.31741
 31
0.0
  0
LINE
  8
0
 62
     0
 10
334.126
 20
1.31741
 30
0.0
 11
334.039
 21
1.18649
 31
0.0
  0
LINE
  8
0
 62
     0
 10
334.039
 20
1.18649
 30
0.0
 11
333.941
 21
1.06385
 31
0.0
  0
LINE
  8
0
 62
     0
 10
333.941
 20
1.06385
 30
0.0
 11
333.835
 21
0.94809
 31
0.0
  0
LINE
  8
0
 62
     0
 10
333.835
 20
0.94809
 30
0.0
 11
333.72
 21
0.841982
 31
0.0
  0
LINE
  8
0
 62
     0
 10
333.72
 20
0.841982
 30
0.0
 11
333.597
 21
0.744142
 31
0.0
  0
LINE
  8
0
 62
     0
 10
333.597
 20
0.744142
 30
0.0
 11
333.466
 21
0.657324
 31
0.0
  0
LINE
  8
0
 62
     0
 10
333.466
 20
0.657324
 30
0.0
 11
333.328
 21
0.580154
 31
0.0
  0
LINE
  8
0
 62
     0
 10
333.328
 20
0.580154
 30
0.0
 11
333.186
 21
0.515387
 31
0.0
  0
LINE
  8
0
 62
     0
 10
333.186
 20
0.515387
 30
0.0
 11
333.04
 21
0.460266
 31
0.0
  0
LINE
  8
0
 62
     0
 10
333.04
 20
0.460266
 30
0.0
 11
332.887
 21
0.417544
 31
0.0
  0
LINE
  8
0
 62
     0
 10
332.887
 20
0.417544
 30
0.0
 11
332.733
 21
0.38723
 31
0.0
  0
LINE
  8
0
 62
     0
 10
332.733
 20
0.38723
 30
0.0
 11
332.577
 21
0.369316
 31
0.0
  0
LINE
  8
0
 62
     0
 10
332.577
 20
0.369316
 30
0.0
 11
332.421
 21
0.362423
 31
0.0
  0
LINE
  8
0
 62
     0
 10
332.421
 20
0.362423
 30
0.0
 11
2.096
 21
0.362423
 31
0.0
  0
LINE
  8
0
 62
     0
 10
2.096
 20
0.362423
 30
0.0
 11
1.9389
 21
0.369316
 31
0.0
  0
LINE
  8
0
 62
     0
 10
1.9389
 20
0.369316
 30
0.0
 11
1.7818
 21
0.38723
 31
0.0
  0
LINE
  8
0
 62
     0
 10
1.7818
 20
0.38723
 30
0.0
 11
1.62884
 21
0.417544
 31
0.0
  0
LINE
  8
0
 62
     0
 10
1.62884
 20
0.417544
 30
0.0
 11
1.47588
 21
0.460266
 31
0.0
  0
LINE
  8
0
 62
     0
 10
1.47588
 20
0.460266
 30
0.0
 11
1.32981
 21
0.515387
 31
0.0
  0
LINE
  8
0
 62
     0
 10
1.32981
 20
0.515387
 30
0.0
 11
1.18787
 21
0.580154
 31
0.0
  0
LINE
  8
0
 62
     0
 10
1.18787
 20
0.580154
 30
0.0
 11
1.05006
 21
0.657324
 31
0.0
  0
LINE
  8
0
 62
     0
 10
1.05006
 20
0.657324
 30
0.0
 11
0.919152
 21
0.744142
 31
0.0
  0
LINE
  8
0
 62
     0
 10
0.919152
 20
0.744142
 30
0.0
 11
0.796505
 21
0.841982
 31
0.0
  0
LINE
  8
0
 62
     0
 10
0.796505
 20
0.841982
 30
0.0
 11
0.680752
 21
0.94809
 31
0.0
  0
LINE
  8
0
 62
     0
 10
0.680752
 20
0.94809
 30
0.0
 11
0.574643
 21
1.06385
 31
0.0
  0
LINE
  8
0
 62
     0
 10
0.574643
 20
1.06385
 30
0.0
 11
0.4768
 21
1.18649
 31
0.0
  0
LINE
  8
0
 62
     0
 10
0.4768
 20
1.18649
 30
0.0
 11
0.389985
 21
1.31741
 31
0.0
  0
LINE
  8
0
 62
     0
 10
0.389985
 20
1.31741
 30
0.0
 11
0.312815
 21
1.45521
 31
0.0
  0
LINE
  8
0
 62
     0
 10
0.312815
 20
1.45521
 30
0.0
 11
0.248047
 21
1.59714
 31
0.0
  0
LINE
  8
0
 62
     0
 10
0.248047
 20
1.59714
 30
0.0
 11
0.192925
 21
1.74322
 31
0.0
  0
LINE
  8
0
 62
     0
 10
0.192925
 20
1.74322
 30
0.0
 11
0.150206
 21
1.89618
 31
0.0
  0
LINE
  8
0
 62
     0
 10
0.150206
 20
1.89618
 30
0.0
 11
0.119889
 21
2.05052
 31
0.0
  0
LINE
  8
0
 62
     0
 10
0.119889
 20
2.05052
 30
0.0
 11
0.101975
 21
2.20624
 31
0.0
  0
LINE
  8
0
 62
     0
 10
0.101975
 20
2.20624
 30
0.0
 11
0.0950846
 21
2.36196
 31
0.0
  0
LINE
  8
0
 62
     0
 10
0.0950846
 20
2.36196
 30
0.0
 11
0.0950846
 21
100.562
 31
0.0
  0
LINE
  8
0
 62
     0
 10
0.0950846
 20
100.562
 30
0.0
 11
0.101975
 21
100.719
 31
0.0
  0
LINE
  8
0
 62
     0
 10
0.101975
 20
100.719
 30
0.0
 11
0.119889
 21
100.876
 31
0.0
  0
LINE
  8
0
 62
     0
 10
0.119889
 20
100.876
 30
0.0
 11
0.150206
 21
101.03
 31
0.0
  0
LINE
  8
0
 62
     0
 10
0.150206
 20
101.03
 30
0.0
 11
0.192925
 21
101.182
 31
0.0
  0
LINE
  8
0
 62
     0
 10
0.192925
 20
101.182
 30
0.0
 11
0.248047
 21
101.328
 31
0.0
  0
LINE
  8
0
 62
     0
 10
0.248047
 20
101.328
 30
0.0
 11
0.312815
 21
101.471
 31
0.0
  0
LINE
  8
0
 62
     0
 10
0.312815
 20
101.471
 30
0.0
 11
0.389985
 21
101.608
 31
0.0
  0
LINE
  8
0
 62
     0
 10
0.389985
 20
101.608
 30
0.0
 11
0.4768
 21
101.739
 31
0.0
  0
LINE
  8
0
 62
     0
 10
0.4768
 20
101.739
 30
0.0
 11
0.574643
 21
101.862
 31
0.0
  0
LINE
  8
0
 62
     0
 10
0.574643
 20
101.862
 30
0.0
 11
0.680752
 21
101.977
 31
0.0
  0
LINE
  8
0
 62
     0
 10
0.680752
 20
101.977
 30
0.0
 11
0.796505
 21
102.084
 31
0.0
  0
LINE
  8
0
 62
     0
 10
0.796505
 20
102.084
 30
0.0
 11
0.919152
 21
102.181
 31
0.0
  0
LINE
  8
0
 62
     0
 10
0.919152
 20
102.181
 30
0.0
 11
1.05006
 21
102.269
 31
0.0
  0
LINE
  8
0
 62
     0
 10
1.05006
 20
102.269
 30
0.0
 11
1.18787
 21
102.345
 31
0.0
  0
LINE
  8
0
 62
     0
 10
1.18787
 20
102.345
 30
0.0
 11
1.32981
 21
102.41
 31
0.0
  0
LINE
  8
0
 62
     0
 10
1.32981
 20
102.41
 30
0.0
 11
1.47588
 21
102.465
 31
0.0
  0
LINE
  8
0
 62
     0
 10
1.47588
 20
102.465
 30
0.0
 11
1.62884
 21
102.508
 31
0.0
  0
LINE
  8
0
 62
     0
 10
1.62884
 20
102.508
 30
0.0
 11
1.7818
 21
102.538
 31
0.0
  0
LINE
  8
0
 62
     0
 10
1.7818
 20
102.538
 30
0.0
 11
1.9389
 21
102.556
 31
0.0
  0
LINE
  8
0
 62
     0
 10
1.9389
 20
102.556
 30
0.0
 11
2.096
 21
102.563
 31
0.0
  0
LINE
  8
0
 62
     0
 10
2.096
 20
102.563
 30
0.0
 11
332.421
 21
102.563
 31
0.0
  0
LINE
  8
0
 62
     0
 10
4.84106
 20
6.14744
 30
0.0
 11
4.61091
 21
6.03031
 31
0.0
  0
LINE
  8
0
 62
     0
 10
4.61091
 20
6.03031
 30
0.0
 11
4.42764
 21
5.84701
 31
0.0
  0
LINE
  8
0
 62
     0
 10
4.42764
 20
5.84701
 30
0.0
 11
4.31052
 21
5.61689
 31
0.0
  0
LINE
  8
0
 62
     0
 10
4.31052
 20
5.61689
 30
0.0
 11
4.27055
 21
5.36194
 31
0.0
  0
LINE
  8
0
 62
     0
 10
4.27055
 20
5.36194
 30
0.0
 11
4.31052
 21
5.1084
 31
0.0
  0
LINE
  8
0
 62
     0
 10
4.31052
 20
5.1084
 30
0.0
 11
4.42764
 21
4.87825
 31
0.0
  0
LINE
  8
0
 62
     0
 10
4.42764
 20
4.87825
 30
0.0
 11
4.61091
 21
4.69498
 31
0.0
  0
LINE
  8
0
 62
     0
 10
4.61091
 20
4.69498
 30
0.0
 11
4.84106
 21
4.57786
 31
0.0
  0
LINE
  8
0
 62
     0
 10
4.84106
 20
4.57786
 30
0.0
 11
5.09598
 21
4.53651
 31
0.0
  0
LINE
  8
0
 62
     0
 10
5.09598
 20
4.53651
 30
0.0
 11
5.34956
 21
4.57786
 31
0.0
  0
LINE
  8
0
 62
     0
 10
5.34956
 20
4.57786
 30
0.0
 11
5.57967
 21
4.69498
 31
0.0
  0
LINE
  8
0
 62
     0
 10
5.57967
 20
4.69498
 30
0.0
 11
5.76294
 21
4.87825
 31
0.0
  0
LINE
  8
0
 62
     0
 10
5.76294
 20
4.87825
 30
0.0
 11
5.8801
 21
5.1084
 31
0.0
  0
LINE
  8
0
 62
     0
 10
5.8801
 20
5.1084
 30
0.0
 11
5.92007
 21
5.36194
 31
0.0
  0
LINE
  8
0
 62
     0
 10
5.92007
 20
5.36194
 30
0.0
 11
5.8801
 21
5.61689
 31
0.0
  0
LINE
  8
0
 62
     0
 10
5.8801
 20
5.61689
 30
0.0
 11
5.76294
 21
5.84701
 31
0.0
  0
LINE
  8
0
 62
     0
 10
5.76294
 20
5.84701
 30
0.0
 11
5.57967
 21
6.03031
 31
0.0
  0
LINE
  8
0
 62
     0
 10
5.57967
 20
6.03031
 30
0.0
 11
5.34956
 21
6.14744
 31
0.0
  0
LINE
  8
0
 62
     0
 10
5.34956
 20
6.14744
 30
0.0
 11
5.09598
 21
6.1874
 31
0.0
  0
LINE
  8
0
 62
     0
 10
5.09598
 20
6.1874
 30
0.0
 11
4.84106
 21
6.14744
 31
0.0
  0
LINE
  8
0
 62
     0
 10
112.948
 20
6.14744
 30
0.0
 11
112.718
 21
6.03031
 31
0.0
  0
LINE
  8
0
 62
     0
 10
112.718
 20
6.03031
 30
0.0
 11
112.536
 21
5.84701
 31
0.0
  0
LINE
  8
0
 62
     0
 10
112.536
 20
5.84701
 30
0.0
 11
112.419
 21
5.61689
 31
0.0
  0
LINE
  8
0
 62
     0
 10
112.419
 20
5.61689
 30
0.0
 11
112.379
 21
5.36194
 31
0.0
  0
LINE
  8
0
 62
     0
 10
112.379
 20
5.36194
 30
0.0
 11
112.419
 21
5.1084
 31
0.0
  0
LINE
  8
0
 62
     0
 10
112.419
 20
5.1084
 30
0.0
 11
112.536
 21
4.87825
 31
0.0
  0
LINE
  8
0
 62
     0
 10
112.536
 20
4.87825
 30
0.0
 11
112.718
 21
4.69498
 31
0.0
  0
LINE
  8
0
 62
     0
 10
112.718
 20
4.69498
 30
0.0
 11
112.948
 21
4.57786
 31
0.0
  0
LINE
  8
0
 62
     0
 10
112.948
 20
4.57786
 30
0.0
 11
113.203
 21
4.53651
 31
0.0
  0
LINE
  8
0
 62
     0
 10
113.203
 20
4.53651
 30
0.0
 11
113.458
 21
4.57786
 31
0.0
  0
LINE
  8
0
 62
     0
 10
113.458
 20
4.57786
 30
0.0
 11
113.688
 21
4.69498
 31
0.0
  0
LINE
  8
0
 62
     0
 10
113.688
 20
4.69498
 30
0.0
 11
113.871
 21
4.87825
 31
0.0
  0
LINE
  8
0
 62
     0
 10
113.871
 20
4.87825
 30
0.0
 11
113.988
 21
5.1084
 31
0.0
  0
LINE
  8
0
 62
     0
 10
113.988
 20
5.1084
 30
0.0
 11
114.028
 21
5.36194
 31
0.0
  0
LINE
  8
0
 62
     0
 10
114.028
 20
5.36194
 30
0.0
 11
113.988
 21
5.61689
 31
0.0
  0
LINE
  8
0
 62
     0
 10
113.988
 20
5.61689
 30
0.0
 11
113.871
 21
5.84701
 31
0.0
  0
LINE
  8
0
 62
     0
 10
113.871
 20
5.84701
 30
0.0
 11
113.688
 21
6.03031
 31
0.0
  0
LINE
  8
0
 62
     0
 10
113.688
 20
6.03031
 30
0.0
 11
113.458
 21
6.14744
 31
0.0
  0
LINE
  8
0
 62
     0
 10
113.458
 20
6.14744
 30
0.0
 11
113.203
 21
6.1874
 31
0.0
  0
LINE
  8
0
 62
     0
 10
113.203
 20
6.1874
 30
0.0
 11
112.948
 21
6.14744
 31
0.0
  0
LINE
  8
0
 62
     0
 10
221.058
 20
6.14744
 30
0.0
 11
220.828
 21
6.03031
 31
0.0
  0
LINE
  8
0
 62
     0
 10
220.828
 20
6.03031
 30
0.0
 11
220.645
 21
5.84701
 31
0.0
  0
LINE
  8
0
 62
     0
 10
220.645
 20
5.84701
 30
0.0
 11
220.527
 21
5.61689
 31
0.0
  0
LINE
  8
0
 62
     0
 10
220.527
 20
5.61689
 30
0.0
 11
220.488
 21
5.36194
 31
0.0
  0
LINE
  8
0
 62
     0
 10
220.488
 20
5.36194
 30
0.0
 11
220.527
 21
5.1084
 31
0.0
  0
LINE
  8
0
 62
     0
 10
220.527
 20
5.1084
 30
0.0
 11
220.645
 21
4.87825
 31
0.0
  0
LINE
  8
0
 62
     0
 10
220.645
 20
4.87825
 30
0.0
 11
220.828
 21
4.69498
 31
0.0
  0
LINE
  8
0
 62
     0
 10
220.828
 20
4.69498
 30
0.0
 11
221.058
 21
4.57786
 31
0.0
  0
LINE
  8
0
 62
     0
 10
221.058
 20
4.57786
 30
0.0
 11
221.313
 21
4.53651
 31
0.0
  0
LINE
  8
0
 62
     0
 10
221.313
 20
4.53651
 30
0.0
 11
221.568
 21
4.57786
 31
0.0
  0
LINE
  8
0
 62
     0
 10
221.568
 20
4.57786
 30
0.0
 11
221.798
 21
4.69498
 31
0.0
  0
LINE
  8
0
 62
     0
 10
221.798
 20
4.69498
 30
0.0
 11
221.98
 21
4.87825
 31
0.0
  0
LINE
  8
0
 62
     0
 10
221.98
 20
4.87825
 30
0.0
 11
222.097
 21
5.1084
 31
0.0
  0
LINE
  8
0
 62
     0
 10
222.097
 20
5.1084
 30
0.0
 11
222.137
 21
5.36194
 31
0.0
  0
LINE
  8
0
 62
     0
 10
222.137
 20
5.36194
 30
0.0
 11
222.097
 21
5.61689
 31
0.0
  0
LINE
  8
0
 62
     0
 10
222.097
 20
5.61689
 30
0.0
 11
221.98
 21
5.84701
 31
0.0
  0
LINE
  8
0
 62
     0
 10
221.98
 20
5.84701
 30
0.0
 11
221.798
 21
6.03031
 31
0.0
  0
LINE
  8
0
 62
     0
 10
221.798
 20
6.03031
 30
0.0
 11
221.568
 21
6.14744
 31
0.0
  0
LINE
  8
0
 62
     0
 10
221.568
 20
6.14744
 30
0.0
 11
221.313
 21
6.1874
 31
0.0
  0
LINE
  8
0
 62
     0
 10
221.313
 20
6.1874
 30
0.0
 11
221.058
 21
6.14744
 31
0.0
  0
LINE
  8
0
 62
     0
 10
329.166
 20
6.14744
 30
0.0
 11
328.936
 21
6.03031
 31
0.0
  0
LINE
  8
0
 62
     0
 10
328.936
 20
6.03031
 30
0.0
 11
328.753
 21
5.84701
 31
0.0
  0
LINE
  8
0
 62
     0
 10
328.753
 20
5.84701
 30
0.0
 11
328.636
 21
5.61689
 31
0.0
  0
LINE
  8
0
 62
     0
 10
328.636
 20
5.61689
 30
0.0
 11
328.596
 21
5.36194
 31
0.0
  0
LINE
  8
0
 62
     0
 10
328.596
 20
5.36194
 30
0.0
 11
328.636
 21
5.1084
 31
0.0
  0
LINE
  8
0
 62
     0
 10
328.636
 20
5.1084
 30
0.0
 11
328.753
 21
4.87825
 31
0.0
  0
LINE
  8
0
 62
     0
 10
328.753
 20
4.87825
 30
0.0
 11
328.936
 21
4.69498
 31
0.0
  0
LINE
  8
0
 62
     0
 10
328.936
 20
4.69498
 30
0.0
 11
329.166
 21
4.57786
 31
0.0
  0
LINE
  8
0
 62
     0
 10
329.166
 20
4.57786
 30
0.0
 11
329.421
 21
4.53651
 31
0.0
  0
LINE
  8
0
 62
     0
 10
329.421
 20
4.53651
 30
0.0
 11
329.675
 21
4.57786
 31
0.0
  0
LINE
  8
0
 62
     0
 10
329.675
 20
4.57786
 30
0.0
 11
329.905
 21
4.69498
 31
0.0
  0
LINE
  8
0
 62
     0
 10
329.905
 20
4.69498
 30
0.0
 11
330.089
 21
4.87825
 31
0.0
  0
LINE
  8
0
 62
     0
 10
330.089
 20
4.87825
 30
0.0
 11
330.206
 21
5.1084
 31
0.0
  0
LINE
  8
0
 62
     0
 10
330.206
 20
5.1084
 30
0.0
 11
330.247
 21
5.36194
 31
0.0
  0
LINE
  8
0
 62
     0
 10
330.247
 20
5.36194
 30
0.0
 11
330.206
 21
5.61689
 31
0.0
  0
LINE
  8
0
 62
     0
 10
330.206
 20
5.61689
 30
0.0
 11
330.089
 21
5.84701
 31
0.0
  0
LINE
  8
0
 62
     0
 10
330.089
 20
5.84701
 30
0.0
 11
329.905
 21
6.03031
 31
0.0
  0
LINE
  8
0
 62
     0
 10
329.905
 20
6.03031
 30
0.0
 11
329.675
 21
6.14744
 31
0.0
  0
LINE
  8
0
 62
     0
 10
329.675
 20
6.14744
 30
0.0
 11
329.421
 21
6.1874
 31
0.0
  0
LINE
  8
0
 62
     0
 10
329.421
 20
6.1874
 30
0.0
 11
329.166
 21
6.14744
 31
0.0
  0
LINE
  8
0
 62
     0
 10
4.84106
 20
98.3477
 30
0.0
 11
4.61091
 21
98.2306
 31
0.0
  0
LINE
  8
0
 62
     0
 10
4.61091
 20
98.2306
 30
0.0
 11
4.42764
 21
98.0475
 31
0.0
  0
LINE
  8
0
 62
     0
 10
4.42764
 20
98.0475
 30
0.0
 11
4.31052
 21
97.8172
 31
0.0
  0
LINE
  8
0
 62
     0
 10
4.31052
 20
97.8172
 30
0.0
 11
4.27055
 21
97.5625
 31
0.0
  0
LINE
  8
0
 62
     0
 10
4.27055
 20
97.5625
 30
0.0
 11
4.31052
 21
97.3088
 31
0.0
  0
LINE
  8
0
 62
     0
 10
4.31052
 20
97.3088
 30
0.0
 11
4.42764
 21
97.0788
 31
0.0
  0
LINE
  8
0
 62
     0
 10
4.42764
 20
97.0788
 30
0.0
 11
4.61091
 21
96.8954
 31
0.0
  0
LINE
  8
0
 62
     0
 10
4.61091
 20
96.8954
 30
0.0
 11
4.84106
 21
96.7782
 31
0.0
  0
LINE
  8
0
 62
     0
 10
4.84106
 20
96.7782
 30
0.0
 11
5.09598
 21
96.7384
 31
0.0
  0
LINE
  8
0
 62
     0
 10
5.09598
 20
96.7384
 30
0.0
 11
5.34956
 21
96.7782
 31
0.0
  0
LINE
  8
0
 62
     0
 10
5.34956
 20
96.7782
 30
0.0
 11
5.57967
 21
96.8954
 31
0.0
  0
LINE
  8
0
 62
     0
 10
5.57967
 20
96.8954
 30
0.0
 11
5.76294
 21
97.0788
 31
0.0
  0
LINE
  8
0
 62
     0
 10
5.76294
 20
97.0788
 30
0.0
 11
5.8801
 21
97.3088
 31
0.0
  0
LINE
  8
0
 62
     0
 10
5.8801
 20
97.3088
 30
0.0
 11
5.92007
 21
97.5625
 31
0.0
  0
LINE
  8
0
 62
     0
 10
5.92007
 20
97.5625
 30
0.0
 11
5.8801
 21
97.8172
 31
0.0
  0
LINE
  8
0
 62
     0
 10
5.8801
 20
97.8172
 30
0.0
 11
5.76294
 21
98.0475
 31
0.0
  0
LINE
  8
0
 62
     0
 10
5.76294
 20
98.0475
 30
0.0
 11
5.57967
 21
98.2306
 31
0.0
  0
LINE
  8
0
 62
     0
 10
5.57967
 20
98.2306
 30
0.0
 11
5.34956
 21
98.3477
 31
0.0
  0
LINE
  8
0
 62
     0
 10
5.34956
 20
98.3477
 30
0.0
 11
5.09598
 21
98.388
 31
0.0
  0
LINE
  8
0
 62
     0
 10
5.09598
 20
98.388
 30
0.0
 11
4.84106
 21
98.3477
 31
0.0
  0
LINE
  8
0
 62
     0
 10
329.166
 20
98.3477
 30
0.0
 11
328.936
 21
98.2306
 31
0.0
  0
LINE
  8
0
 62
     0
 10
328.936
 20
98.2306
 30
0.0
 11
328.753
 21
98.0475
 31
0.0
  0
LINE
  8
0
 62
     0
 10
328.753
 20
98.0475
 30
0.0
 11
328.636
 21
97.8172
 31
0.0
  0
LINE
  8
0
 62
     0
 10
328.636
 20
97.8172
 30
0.0
 11
328.596
 21
97.5625
 31
0.0
  0
LINE
  8
0
 62
     0
 10
328.596
 20
97.5625
 30
0.0
 11
328.636
 21
97.3088
 31
0.0
  0
LINE
  8
0
 62
     0
 10
328.636
 20
97.3088
 30
0.0
 11
328.753
 21
97.0788
 31
0.0
  0
LINE
  8
0
 62
     0
 10
328.753
 20
97.0788
 30
0.0
 11
328.936
 21
96.8954
 31
0.0
  0
LINE
  8
0
 62
     0
 10
328.936
 20
96.8954
 30
0.0
 11
329.166
 21
96.7782
 31
0.0
  0
LINE
  8
0
 62
     0
 10
329.166
 20
96.7782
 30
0.0
 11
329.421
 21
96.7384
 31
0.0
  0
LINE
  8
0
 62
     0
 10
329.421
 20
96.7384
 30
0.0
 11
329.675
 21
96.7782
 31
0.0
  0
LINE
  8
0
 62
     0
 10
329.675
 20
96.7782
 30
0.0
 11
329.905
 21
96.8954
 31
0.0
  0
LINE
  8
0
 62
     0
 10
329.905
 20
96.8954
 30
0.0
 11
330.089
 21
97.0788
 31
0.0
  0
LINE
  8
0
 62
     0
 10
330.089
 20
97.0788
 30
0.0
 11
330.206
 21
97.3088
 31
0.0
  0
LINE
  8
0
 62
     0
 10
330.206
 20
97.3088
 30
0.0
 11
330.247
 21
97.5625
 31
0.0
  0
LINE
  8
0
 62
     0
 10
330.247
 20
97.5625
 30
0.0
 11
330.206
 21
97.8172
 31
0.0
  0
LINE
  8
0
 62
     0
 10
330.206
 20
97.8172
 30
0.0
 11
330.089
 21
98.0475
 31
0.0
  0
LINE
  8
0
 62
     0
 10
330.089
 20
98.0475
 30
0.0
 11
329.905
 21
98.2306
 31
0.0
  0
LINE
  8
0
 62
     0
 10
329.905
 20
98.2306
 30
0.0
 11
329.675
 21
98.3477
 31
0.0
  0
LINE
  8
0
 62
     0
 10
329.675
 20
98.3477
 30
0.0
 11
329.421
 21
98.388
 31
0.0
  0
LINE
  8
0
 62
     0
 10
329.421
 20
98.388
 30
0.0
 11
329.166
 21
98.3477
 31
0.0
  0
LINE
  8
0
 62
     0
 10
221.058
 20
98.3477
 30
0.0
 11
220.828
 21
98.2306
 31
0.0
  0
LINE
  8
0
 62
     0
 10
220.828
 20
98.2306
 30
0.0
 11
220.645
 21
98.0475
 31
0.0
  0
LINE
  8
0
 62
     0
 10
220.645
 20
98.0475
 30
0.0
 11
220.527
 21
97.8172
 31
0.0
  0
LINE
  8
0
 62
     0
 10
220.527
 20
97.8172
 30
0.0
 11
220.488
 21
97.5625
 31
0.0
  0
LINE
  8
0
 62
     0
 10
220.488
 20
97.5625
 30
0.0
 11
220.527
 21
97.3088
 31
0.0
  0
LINE
  8
0
 62
     0
 10
220.527
 20
97.3088
 30
0.0
 11
220.645
 21
97.0788
 31
0.0
  0
LINE
  8
0
 62
     0
 10
220.645
 20
97.0788
 30
0.0
 11
220.828
 21
96.8954
 31
0.0
  0
LINE
  8
0
 62
     0
 10
220.828
 20
96.8954
 30
0.0
 11
221.058
 21
96.7782
 31
0.0
  0
LINE
  8
0
 62
     0
 10
221.058
 20
96.7782
 30
0.0
 11
221.313
 21
96.7384
 31
0.0
  0
LINE
  8
0
 62
     0
 10
221.313
 20
96.7384
 30
0.0
 11
221.568
 21
96.7782
 31
0.0
  0
LINE
  8
0
 62
     0
 10
221.568
 20
96.7782
 30
0.0
 11
221.798
 21
96.8954
 31
0.0
  0
LINE
  8
0
 62
     0
 10
221.798
 20
96.8954
 30
0.0
 11
221.98
 21
97.0788
 31
0.0
  0
LINE
  8
0
 62
     0
 10
221.98
 20
97.0788
 30
0.0
 11
222.097
 21
97.3088
 31
0.0
  0
LINE
  8
0
 62
     0
 10
222.097
 20
97.3088
 30
0.0
 11
222.137
 21
97.5625
 31
0.0
  0
LINE
  8
0
 62
     0
 10
222.137
 20
97.5625
 30
0.0
 11
222.097
 21
97.8172
 31
0.0
  0
LINE
  8
0
 62
     0
 10
222.097
 20
97.8172
 30
0.0
 11
221.98
 21
98.0475
 31
0.0
  0
LINE
  8
0
 62
     0
 10
221.98
 20
98.0475
 30
0.0
 11
221.798
 21
98.2306
 31
0.0
  0
LINE
  8
0
 62
     0
 10
221.798
 20
98.2306
 30
0.0
 11
221.568
 21
98.3477
 31
0.0
  0
LINE
  8
0
 62
     0
 10
221.568
 20
98.3477
 30
0.0
 11
221.313
 21
98.388
 31
0.0
  0
LINE
  8
0
 62
     0
 10
221.313
 20
98.388
 30
0.0
 11
221.058
 21
98.3477
 31
0.0
  0
LINE
  8
0
 62
     0
 10
112.948
 20
98.3477
 30
0.0
 11
112.718
 21
98.2306
 31
0.0
  0
LINE
  8
0
 62
     0
 10
112.718
 20
98.2306
 30
0.0
 11
112.536
 21
98.0475
 31
0.0
  0
LINE
  8
0
 62
     0
 10
112.536
 20
98.0475
 30
0.0
 11
112.419
 21
97.8172
 31
0.0
  0
LINE
  8
0
 62
     0
 10
112.419
 20
97.8172
 30
0.0
 11
112.379
 21
97.5625
 31
0.0
  0
LINE
  8
0
 62
     0
 10
112.379
 20
97.5625
 30
0.0
 11
112.419
 21
97.3088
 31
0.0
  0
LINE
  8
0
 62
     0
 10
112.419
 20
97.3088
 30
0.0
 11
112.536
 21
97.0788
 31
0.0
  0
LINE
  8
0
 62
     0
 10
112.536
 20
97.0788
 30
0.0
 11
112.718
 21
96.8954
 31
0.0
  0
LINE
  8
0
 62
     0
 10
112.718
 20
96.8954
 30
0.0
 11
112.948
 21
96.7782
 31
0.0
  0
LINE
  8
0
 62
     0
 10
112.948
 20
96.7782
 30
0.0
 11
113.203
 21
96.7384
 31
0.0
  0
LINE
  8
0
 62
     0
 10
113.203
 20
96.7384
 30
0.0
 11
113.458
 21
96.7782
 31
0.0
  0
LINE
  8
0
 62
     0
 10
113.458
 20
96.7782
 30
0.0
 11
113.688
 21
96.8954
 31
0.0
  0
LINE
  8
0
 62
     0
 10
113.688
 20
96.8954
 30
0.0
 11
113.871
 21
97.0788
 31
0.0
  0
LINE
  8
0
 62
     0
 10
113.871
 20
97.0788
 30
0.0
 11
113.988
 21
97.3088
 31
0.0
  0
LINE
  8
0
 62
     0
 10
113.988
 20
97.3088
 30
0.0
 11
114.028
 21
97.5625
 31
0.0
  0
LINE
  8
0
 62
     0
 10
114.028
 20
97.5625
 30
0.0
 11
113.988
 21
97.8172
 31
0.0
  0
LINE
  8
0
 62
     0
 10
113.988
 20
97.8172
 30
0.0
 11
113.871
 21
98.0475
 31
0.0
  0
LINE
  8
0
 62
     0
 10
113.871
 20
98.0475
 30
0.0
 11
113.688
 21
98.2306
 31
0.0
  0
LINE
  8
0
 62
     0
 10
113.688
 20
98.2306
 30
0.0
 11
113.458
 21
98.3477
 31
0.0
  0
LINE
  8
0
 62
     0
 10
113.458
 20
98.3477
 30
0.0
 11
113.203
 21
98.388
 31
0.0
  0
LINE
  8
0
 62
     0
 10
113.203
 20
98.388
 30
0.0
 11
112.948
 21
98.3477
 31
0.0
  0
ENDSEC
  0
EOF
